G04*
G04 #@! TF.GenerationSoftware,Altium Limited,Altium Designer,24.2.2 (26)*
G04*
G04 Layer_Color=32896*
%FSLAX44Y44*%
%MOMM*%
G71*
G04*
G04 #@! TF.SameCoordinates,14A9DA51-42A2-44A4-A91A-1E31E54FDAF6*
G04*
G04*
G04 #@! TF.FilePolarity,Positive*
G04*
G01*
G75*
%ADD12C,0.1524*%
%ADD17C,0.1270*%
%ADD19C,0.2032*%
%ADD95C,0.2000*%
D12*
X607586Y862584D02*
G03*
X607586Y862584I-1796J0D01*
G01*
X578184Y437689D02*
X585009Y430864D01*
X565611Y425116D02*
X572436Y418291D01*
X560404Y419909D02*
X567229Y413084D01*
X547831Y407336D02*
X554656Y400511D01*
D17*
X458300Y899900D02*
X532300D01*
X458300D02*
Y902600D01*
X532300Y899900D02*
Y902600D01*
X458300Y942900D02*
X460100D01*
X530500D02*
X532300D01*
X458300Y925350D02*
Y942900D01*
X532300Y925350D02*
Y942900D01*
D19*
X603504Y869696D02*
Y884696D01*
X570992Y869936D02*
Y884936D01*
X579256Y386181D02*
X579256Y384385D01*
X577460Y382590D01*
X575665D01*
X572074Y386181D01*
Y387976D01*
X573869Y389772D01*
X575665Y389772D01*
X581051Y387976D02*
X582847D01*
X584642Y389772D01*
X584642Y391567D01*
X583744Y392465D01*
X581949D01*
X581949Y394260D01*
X581051Y395158D01*
X579256Y395158D01*
X577460Y393363D01*
Y391567D01*
X578358Y390669D01*
X580154D01*
X580153Y388874D01*
X581051Y387976D01*
X580154Y390669D02*
X581949Y392465D01*
X459740Y892555D02*
X462279D01*
X461009D01*
Y886207D01*
X462279Y884937D01*
X463548D01*
X464818Y886207D01*
X452122Y884937D02*
X457200D01*
X452122Y890016D01*
Y891285D01*
X453392Y892555D01*
X455931D01*
X457200Y891285D01*
X582168Y852930D02*
Y845312D01*
X578359D01*
X577090Y846582D01*
Y851660D01*
X578359Y852930D01*
X582168D01*
X574551Y845312D02*
X572011D01*
X573281D01*
Y852930D01*
X574551Y851660D01*
X595748Y409855D02*
X595748Y411651D01*
X597544Y413446D01*
X599339D01*
X602930Y409855D01*
Y408060D01*
X601135Y406264D01*
X599339Y406264D01*
X593055Y408957D02*
X589464Y405367D01*
X590362Y404469D01*
X597544D01*
X598441Y403571D01*
D95*
X509800Y955400D02*
G03*
X509800Y955400I-1000J0D01*
G01*
M02*
