G04*
G04 #@! TF.GenerationSoftware,Altium Limited,Altium Designer,24.2.2 (26)*
G04*
G04 Layer_Physical_Order=1*
G04 Layer_Color=255*
%FSLAX44Y44*%
%MOMM*%
G71*
G04*
G04 #@! TF.SameCoordinates,14A9DA51-42A2-44A4-A91A-1E31E54FDAF6*
G04*
G04*
G04 #@! TF.FilePolarity,Positive*
G04*
G01*
G75*
%ADD10C,0.5080*%
%ADD12C,0.1524*%
%ADD13C,0.2540*%
%ADD15C,0.3810*%
%ADD20R,1.8034X1.1176*%
G04:AMPARAMS|DCode=21|XSize=1.1176mm|YSize=1.8034mm|CornerRadius=0mm|HoleSize=0mm|Usage=FLASHONLY|Rotation=60.000|XOffset=0mm|YOffset=0mm|HoleType=Round|Shape=Rectangle|*
%AMROTATEDRECTD21*
4,1,4,0.5015,-0.9348,-1.0603,-0.0331,-0.5015,0.9348,1.0603,0.0331,0.5015,-0.9348,0.0*
%
%ADD21ROTATEDRECTD21*%

%ADD22R,1.1176X1.8034*%
%ADD23R,3.0988X1.7000*%
%ADD24R,0.8382X1.7000*%
G04:AMPARAMS|DCode=25|XSize=1.3716mm|YSize=1.8542mm|CornerRadius=0mm|HoleSize=0mm|Usage=FLASHONLY|Rotation=225.000|XOffset=0mm|YOffset=0mm|HoleType=Round|Shape=Rectangle|*
%AMROTATEDRECTD25*
4,1,4,-0.1706,1.1405,1.1405,-0.1706,0.1706,-1.1405,-1.1405,0.1706,-0.1706,1.1405,0.0*
%
%ADD25ROTATEDRECTD25*%

G04:AMPARAMS|DCode=26|XSize=1.1176mm|YSize=1.8034mm|CornerRadius=0mm|HoleSize=0mm|Usage=FLASHONLY|Rotation=45.000|XOffset=0mm|YOffset=0mm|HoleType=Round|Shape=Rectangle|*
%AMROTATEDRECTD26*
4,1,4,0.2425,-1.0327,-1.0327,0.2425,-0.2425,1.0327,1.0327,-0.2425,0.2425,-1.0327,0.0*
%
%ADD26ROTATEDRECTD26*%

%ADD27O,2.2000X0.6096*%
%ADD28O,1.6510X0.6096*%
%ADD29R,1.6510X1.4000*%
%ADD30R,1.8000X1.4000*%
G04:AMPARAMS|DCode=31|XSize=0.381mm|YSize=1.65mm|CornerRadius=0mm|HoleSize=0mm|Usage=FLASHONLY|Rotation=45.000|XOffset=0mm|YOffset=0mm|HoleType=Round|Shape=Rectangle|*
%AMROTATEDRECTD31*
4,1,4,0.4487,-0.7181,-0.7181,0.4487,-0.4487,0.7181,0.7181,-0.4487,0.4487,-0.7181,0.0*
%
%ADD31ROTATEDRECTD31*%

G04:AMPARAMS|DCode=32|XSize=0.381mm|YSize=1.65mm|CornerRadius=0mm|HoleSize=0mm|Usage=FLASHONLY|Rotation=315.000|XOffset=0mm|YOffset=0mm|HoleType=Round|Shape=Rectangle|*
%AMROTATEDRECTD32*
4,1,4,-0.7181,-0.4487,0.4487,0.7181,0.7181,0.4487,-0.4487,-0.7181,-0.7181,-0.4487,0.0*
%
%ADD32ROTATEDRECTD32*%

G04:AMPARAMS|DCode=33|XSize=1.4mm|YSize=1.651mm|CornerRadius=0mm|HoleSize=0mm|Usage=FLASHONLY|Rotation=135.000|XOffset=0mm|YOffset=0mm|HoleType=Round|Shape=Rectangle|*
%AMROTATEDRECTD33*
4,1,4,1.0787,0.0887,-0.0887,-1.0787,-1.0787,-0.0887,0.0887,1.0787,1.0787,0.0887,0.0*
%
%ADD33ROTATEDRECTD33*%

G04:AMPARAMS|DCode=34|XSize=1.1176mm|YSize=1.8034mm|CornerRadius=0mm|HoleSize=0mm|Usage=FLASHONLY|Rotation=135.000|XOffset=0mm|YOffset=0mm|HoleType=Round|Shape=Rectangle|*
%AMROTATEDRECTD34*
4,1,4,1.0327,0.2425,-0.2425,-1.0327,-1.0327,-0.2425,0.2425,1.0327,1.0327,0.2425,0.0*
%
%ADD34ROTATEDRECTD34*%

G04:AMPARAMS|DCode=35|XSize=1.1176mm|YSize=1.8034mm|CornerRadius=0mm|HoleSize=0mm|Usage=FLASHONLY|Rotation=120.000|XOffset=0mm|YOffset=0mm|HoleType=Round|Shape=Rectangle|*
%AMROTATEDRECTD35*
4,1,4,1.0603,-0.0331,-0.5015,-0.9348,-1.0603,0.0331,0.5015,0.9348,1.0603,-0.0331,0.0*
%
%ADD35ROTATEDRECTD35*%

G04:AMPARAMS|DCode=36|XSize=1.1176mm|YSize=1.8034mm|CornerRadius=0mm|HoleSize=0mm|Usage=FLASHONLY|Rotation=112.500|XOffset=0mm|YOffset=0mm|HoleType=Round|Shape=Rectangle|*
%AMROTATEDRECTD36*
4,1,4,1.0469,-0.1712,-0.6192,-0.8613,-1.0469,0.1712,0.6192,0.8613,1.0469,-0.1712,0.0*
%
%ADD36ROTATEDRECTD36*%

G04:AMPARAMS|DCode=37|XSize=1.1176mm|YSize=1.8034mm|CornerRadius=0mm|HoleSize=0mm|Usage=FLASHONLY|Rotation=105.000|XOffset=0mm|YOffset=0mm|HoleType=Round|Shape=Rectangle|*
%AMROTATEDRECTD37*
4,1,4,1.0156,-0.3064,-0.7264,-0.7731,-1.0156,0.3064,0.7264,0.7731,1.0156,-0.3064,0.0*
%
%ADD37ROTATEDRECTD37*%

G04:AMPARAMS|DCode=38|XSize=1.1176mm|YSize=1.8034mm|CornerRadius=0mm|HoleSize=0mm|Usage=FLASHONLY|Rotation=97.500|XOffset=0mm|YOffset=0mm|HoleType=Round|Shape=Rectangle|*
%AMROTATEDRECTD38*
4,1,4,0.9669,-0.4363,-0.8211,-0.6717,-0.9669,0.4363,0.8211,0.6717,0.9669,-0.4363,0.0*
%
%ADD38ROTATEDRECTD38*%

G04:AMPARAMS|DCode=39|XSize=1.1176mm|YSize=1.8034mm|CornerRadius=0mm|HoleSize=0mm|Usage=FLASHONLY|Rotation=82.500|XOffset=0mm|YOffset=0mm|HoleType=Round|Shape=Rectangle|*
%AMROTATEDRECTD39*
4,1,4,0.8211,-0.6717,-0.9669,-0.4363,-0.8211,0.6717,0.9669,0.4363,0.8211,-0.6717,0.0*
%
%ADD39ROTATEDRECTD39*%

G04:AMPARAMS|DCode=40|XSize=1.1176mm|YSize=1.8034mm|CornerRadius=0mm|HoleSize=0mm|Usage=FLASHONLY|Rotation=75.000|XOffset=0mm|YOffset=0mm|HoleType=Round|Shape=Rectangle|*
%AMROTATEDRECTD40*
4,1,4,0.7264,-0.7731,-1.0156,-0.3064,-0.7264,0.7731,1.0156,0.3064,0.7264,-0.7731,0.0*
%
%ADD40ROTATEDRECTD40*%

G04:AMPARAMS|DCode=41|XSize=1.1176mm|YSize=1.8034mm|CornerRadius=0mm|HoleSize=0mm|Usage=FLASHONLY|Rotation=67.500|XOffset=0mm|YOffset=0mm|HoleType=Round|Shape=Rectangle|*
%AMROTATEDRECTD41*
4,1,4,0.6192,-0.8613,-1.0469,-0.1712,-0.6192,0.8613,1.0469,0.1712,0.6192,-0.8613,0.0*
%
%ADD41ROTATEDRECTD41*%

%ADD42R,1.5000X1.2000*%
%ADD77C,1.7780*%
%ADD78C,1.6200*%
%ADD79C,1.5240*%
%ADD80O,0.7750X1.5500*%
%ADD81O,1.3000X0.6500*%
%ADD82O,1.8000X3.3000*%
%ADD83O,3.3020X2.0000*%
%ADD84C,1.6500*%
%ADD85C,0.6350*%
%ADD86C,1.5494*%
%ADD87C,1.0160*%
D10*
X483870Y499872D02*
X511302Y472440D01*
X483870Y499872D02*
Y500380D01*
X471170Y752856D02*
Y797250D01*
X387350Y791210D02*
X398780D01*
X408192Y608033D02*
Y702832D01*
X407445Y607285D02*
X408192Y608033D01*
Y702832D02*
X408940Y703580D01*
X288726Y579120D02*
X379280D01*
X284480Y574874D02*
X288726Y579120D01*
X379280D02*
X386490Y586330D01*
X284480Y462280D02*
Y574874D01*
X254000Y431800D02*
X284480Y462280D01*
X254000Y508000D02*
X269240Y523240D01*
Y599440D01*
X394970D01*
X254000Y584200D02*
X269240Y599440D01*
X238760Y545303D02*
Y622300D01*
X271780Y655320D01*
X294386D01*
X292935Y656771D02*
X294386Y655320D01*
X278130Y671576D02*
X292935Y656771D01*
X424616Y721106D02*
X441960D01*
X421640Y718130D02*
X424616Y721106D01*
X421640Y658296D02*
Y718130D01*
X424616Y655320D02*
X474980D01*
X421640Y658296D02*
X424616Y655320D01*
X441960Y721106D02*
Y764540D01*
X421894Y784606D02*
Y820980D01*
Y784606D02*
X441960Y764540D01*
X398780Y820940D02*
Y885940D01*
Y796290D02*
Y820940D01*
X340614Y818440D02*
Y834768D01*
Y749300D02*
Y818440D01*
X317500Y823480D02*
Y885940D01*
Y820940D02*
Y823480D01*
X301244Y792226D02*
X317500D01*
Y755650D02*
Y797306D01*
Y823480D01*
X398780Y774446D02*
Y796290D01*
X384302Y797306D02*
X387350Y796290D01*
X394970Y599440D02*
X444500Y549910D01*
X394970Y599440D02*
Y752856D01*
X278130Y671576D02*
Y716280D01*
X317500Y755650D01*
X293370Y702056D02*
X340614Y749300D01*
X444500Y548535D02*
Y549910D01*
X445718Y526600D02*
X447424Y524894D01*
X445718Y526600D02*
Y547317D01*
X444500Y548535D02*
X445718Y547317D01*
X442235Y573409D02*
X468658Y546986D01*
X469516D01*
X441376Y573409D02*
X442235D01*
X471170Y797250D02*
X487205Y813285D01*
Y815758D01*
X494097Y822650D01*
X496570D01*
X398780Y774446D02*
X420370Y752856D01*
X340614Y834768D02*
X391786Y885940D01*
X398780D01*
X554990Y247650D02*
Y341305D01*
X533400Y228600D02*
X535940D01*
X554990Y247650D01*
X533400Y226695D02*
Y228600D01*
X508254Y201549D02*
X533400Y226695D01*
X508254Y198120D02*
Y201549D01*
X537958Y358337D02*
X554990Y341305D01*
X477266Y198120D02*
X508000D01*
X238760Y545303D02*
X248123Y535940D01*
X251460D01*
D12*
X570690Y104635D02*
G03*
X764464Y202736I-78930J396331D01*
G01*
X577415Y110920D02*
G03*
X754355Y201675I-84544J382695D01*
G01*
X563415Y98405D02*
G03*
X774696Y205254I-71608J403912D01*
G01*
X586021Y144024D02*
G03*
X736721Y228473I-90721J338576D01*
G01*
X524533Y7248D02*
G03*
X733065Y69948I-29233J475352D01*
G01*
X631556Y152043D02*
G03*
X736437Y218619I-136256J330557D01*
G01*
X724632Y688340D02*
X736600Y700308D01*
X613410Y688340D02*
X724632D01*
X598170Y703580D02*
X613410Y688340D01*
X668752Y632460D02*
X724632Y688340D01*
X613180Y670560D02*
X680720D01*
X598210Y655590D02*
X613180Y670560D01*
X680720D02*
X688340Y678180D01*
X683260Y622300D02*
X736600Y675640D01*
X480984Y622300D02*
X683260D01*
X447502Y588818D02*
X480984Y622300D01*
X439420Y596900D02*
X474980Y632460D01*
X668752D01*
X736600Y700308D02*
Y701040D01*
X566420Y694690D02*
X589280Y717550D01*
X591820D01*
X423839Y403098D02*
X469599Y448859D01*
X392938Y403098D02*
X423839D01*
X386120Y396280D02*
X392938Y403098D01*
X645160Y429260D02*
Y452374D01*
Y482346D02*
Y502920D01*
X625172Y899160D02*
X634372Y889960D01*
X617220Y899160D02*
X625172D01*
X634372Y889960D02*
X651518D01*
X465836Y506196D02*
Y507492D01*
X471275Y494180D02*
Y500756D01*
X465836Y506196D02*
X471275Y500756D01*
X523550Y941400D02*
X530300Y934650D01*
Y914400D02*
Y934650D01*
X520300Y941400D02*
X523550D01*
X597666Y886460D02*
X625172D01*
X736600Y574040D02*
X736600D01*
X734060D02*
X736600D01*
X565150Y194310D02*
X577289Y110902D01*
X754380Y201930D02*
Y530860D01*
X774700Y205258D02*
X774700Y561340D01*
X774700Y205254D02*
Y205258D01*
X553720Y182880D02*
X563415Y98405D01*
X736600Y599440D02*
X736600D01*
X734013D02*
X736600D01*
X795020Y266700D02*
Y741680D01*
X651510Y768350D02*
X768350D01*
X795020Y741680D01*
X784860Y282706D02*
Y736600D01*
X648970Y760730D02*
X760730D01*
X784860Y736600D01*
X736600Y548640D02*
X754380Y530860D01*
X764540Y202946D02*
Y546100D01*
X736600Y574040D02*
X764540Y546100D01*
X736600Y599440D02*
X774700Y561340D01*
X782320Y279400D02*
Y280166D01*
X784860Y282706D01*
X782320Y254000D02*
X795020Y266700D01*
X600710Y819150D02*
X651510Y768350D01*
X586021Y144024D02*
Y144024D01*
Y144024D02*
X590097Y128812D01*
X728853Y78074D02*
X733092Y69972D01*
X503574Y180340D02*
X524510Y7620D01*
X543889Y114681D02*
X545000Y109959D01*
X546100Y101600D01*
X419537Y553283D02*
X433070Y539750D01*
X728980Y867410D02*
X744220D01*
X354330Y792226D02*
X369316D01*
X505496Y784860D02*
X511687Y791051D01*
X514699D02*
X518668Y795020D01*
X511687Y791051D02*
X514699D01*
X504190Y784860D02*
X505496D01*
X418880Y256060D02*
X451640D01*
X386120D02*
X418880D01*
Y198154D02*
Y256060D01*
X418846Y198120D02*
X418880Y198154D01*
X523240Y198120D02*
X538226D01*
X452120Y226060D02*
Y241300D01*
X386080Y226100D02*
X386120Y226060D01*
X386080Y226100D02*
Y241300D01*
X388874Y198120D02*
X403860D01*
X271272Y792226D02*
X286512D01*
X443484Y791464D02*
X458470D01*
X375920Y821194D02*
Y840740D01*
X375666Y820940D02*
X375920Y821194D01*
X294386Y820940D02*
X294640Y821194D01*
Y840740D01*
X568960Y604520D02*
X690880D01*
X556260Y485140D02*
X642366D01*
X545618Y474498D02*
X553142Y482021D01*
X556260Y485140D01*
X386080Y558800D02*
X397471Y570191D01*
X395803Y578683D02*
X397471Y577016D01*
X293878Y558800D02*
X386080D01*
X397471Y570191D02*
Y577016D01*
X236220Y393700D02*
X388620Y546100D01*
X241300Y383746D02*
X396087Y538533D01*
X397187D01*
X386080Y558800D02*
X436110Y508770D01*
X241300Y292100D02*
Y383746D01*
X236220Y271780D02*
Y393700D01*
X386120Y256060D02*
Y396280D01*
X480060Y256540D02*
X482600Y254000D01*
X406400Y304800D02*
X421640Y289560D01*
X472440D02*
X495300Y266700D01*
X421640Y289560D02*
X472440D01*
X495300Y241300D02*
Y266700D01*
Y241300D02*
X508000Y228600D01*
X522224Y257018D02*
X530382D01*
X474442Y304800D02*
X522224Y257018D01*
X530382D02*
X533400Y254000D01*
X457200Y304800D02*
X474442D01*
X688340Y342900D02*
X690880Y340360D01*
X660400Y370840D02*
X688340Y342900D01*
X685800D02*
X688340D01*
X673100Y330200D02*
X685800Y342900D01*
X631556Y152043D02*
X634897Y143977D01*
X690880Y299720D02*
Y340360D01*
X468630Y641350D02*
X563880D01*
X422077Y594797D02*
X468630Y641350D01*
X236220Y271780D02*
X254000Y254000D01*
X241300Y292100D02*
X254000Y279400D01*
X594360Y815340D02*
X648970Y760730D01*
X594360Y815340D02*
Y847090D01*
X595630Y848360D01*
X617220D01*
X600710Y819150D02*
Y834767D01*
X601603Y835660D02*
X617220D01*
X600710Y834767D02*
X601603Y835660D01*
X563880Y641350D02*
X566420Y643890D01*
Y694690D01*
X591820Y717550D02*
X615950Y741680D01*
Y774700D01*
X572770Y817880D02*
X615950Y774700D01*
X565736Y861060D02*
X572770Y854026D01*
Y817880D02*
Y854026D01*
X557784Y861060D02*
X565736D01*
X596773Y887353D02*
X597666Y886460D01*
X596773Y887353D02*
Y904240D01*
X585344Y875156D02*
Y904367D01*
Y875156D02*
X586740Y873760D01*
X623935Y822960D02*
X626047Y820848D01*
X617220Y822960D02*
X623935D01*
X626047Y819844D02*
Y820848D01*
Y819844D02*
X626110Y819781D01*
Y811530D02*
Y819781D01*
X684530Y809244D02*
X685546Y810260D01*
X684530Y792480D02*
Y809244D01*
X646430Y828933D02*
Y865202D01*
Y828933D02*
X647323Y828040D01*
X713740D01*
X625172Y886460D02*
X646430Y865202D01*
X640080Y824027D02*
X640973Y823134D01*
X640080Y824027D02*
Y858852D01*
X640973Y823134D02*
X669390D01*
X635000Y817880D02*
X650748D01*
X633730Y819150D02*
X635000Y817880D01*
X633730Y819150D02*
Y852170D01*
X625172Y873760D02*
X640080Y858852D01*
X625715Y860185D02*
X633730Y852170D01*
X655574Y810260D02*
Y813054D01*
X650748Y817880D02*
X655574Y813054D01*
X687566Y909332D02*
X714248Y882650D01*
Y863981D02*
Y882650D01*
X692912Y851535D02*
X701675D01*
X709295Y859155D01*
X709422D02*
X714248Y863981D01*
X709295Y859155D02*
X709422D01*
X676691Y909332D02*
X687566D01*
X685546Y844169D02*
X692912Y851535D01*
X685546Y843280D02*
Y844169D01*
X657054Y884424D02*
X661166D01*
X670560Y875030D01*
X651518Y889960D02*
X657054Y884424D01*
X670560Y875030D02*
X683514D01*
X670462Y859155D02*
X683514D01*
X657479Y846074D02*
X662940Y851535D01*
X657381Y846074D02*
X657479D01*
X662940Y851633D02*
X670462Y859155D01*
X662940Y851535D02*
Y851633D01*
X659638Y867410D02*
X671830D01*
X658368Y868680D02*
X659638Y867410D01*
X683514Y859155D02*
Y875030D01*
X618095Y860185D02*
X625715D01*
X617220Y873760D02*
X625172D01*
X586740D02*
X617220D01*
X690880Y604520D02*
X736600Y650240D01*
X669390Y823134D02*
X670282Y822242D01*
Y783213D02*
Y822242D01*
Y783213D02*
X671175Y782320D01*
X713740D01*
X617220Y861060D02*
X618095Y860185D01*
X687811Y165672D02*
X695875Y170327D01*
X680847Y161223D02*
X687811Y165672D01*
X678228Y890270D02*
X695960D01*
X677918Y889960D02*
X678228Y890270D01*
X634746Y905510D02*
X647668D01*
X651518Y909360D01*
X603758Y467360D02*
X625094D01*
X599003Y431363D02*
Y431871D01*
X608584Y441452D01*
X599257Y503357D02*
X609092Y493522D01*
X599003Y503357D02*
X599257D01*
X565821Y463262D02*
Y467197D01*
X556768Y476250D02*
X565821Y467197D01*
X495300Y99060D02*
Y111506D01*
X445770Y102870D02*
X446687Y109836D01*
X446862Y114681D01*
X396240Y113030D02*
X397973Y119498D01*
X399254Y124151D01*
X349250Y129540D02*
X351606Y135227D01*
X353288Y139754D01*
X303530Y151130D02*
X307043Y157215D01*
X309753Y161223D01*
X518250Y466484D02*
Y466611D01*
Y466484D02*
X529781Y454953D01*
X518007Y443637D02*
X518466D01*
X506984Y454660D02*
X518007Y443637D01*
X482123Y461804D02*
Y463066D01*
X470916Y450596D02*
Y450596D01*
X462589Y482600D02*
X482123Y463066D01*
X462280Y482600D02*
X462589D01*
X470916Y450596D02*
X482123Y461804D01*
X559562Y188468D02*
X570562Y104618D01*
X547116Y189484D02*
X553720Y182880D01*
X547116Y189484D02*
Y199136D01*
X553720Y205740D01*
Y194310D02*
X559562Y188468D01*
X736600Y228473D02*
Y254000D01*
X590077Y128807D02*
X591346Y124151D01*
X736600Y279400D02*
Y279400D01*
X701040Y314960D02*
X736600Y279400D01*
X520509Y381000D02*
X665480D01*
X473071Y429700D02*
X480914Y437544D01*
X473071Y428438D02*
X520509Y381000D01*
X473071Y428438D02*
Y429700D01*
X665480Y381000D02*
X701040Y345440D01*
Y314960D02*
Y345440D01*
X634897Y143977D02*
X637312Y139754D01*
X690880Y299720D02*
X736600Y254000D01*
X670425Y915598D02*
X676691Y909332D01*
X669902Y915598D02*
X670425D01*
X633730Y920750D02*
X664750D01*
X669902Y915598D01*
X624840Y911860D02*
X633730Y920750D01*
X617220Y911860D02*
X624840D01*
X254000Y254000D02*
X303784Y303784D01*
Y354584D01*
X386080Y436880D01*
X254000Y279400D02*
X294640Y320040D01*
Y360680D01*
X381000Y447040D01*
X254000Y381000D02*
X370840Y497840D01*
X434340D01*
X442923Y506423D01*
X375920Y487680D02*
X436880D01*
X266700Y378460D02*
X375920Y487680D01*
X436880D02*
X444337Y495137D01*
X445445Y469965D02*
X446969Y471489D01*
X442305D02*
X443829Y469965D01*
X374969Y471489D02*
X442305D01*
X276860Y373380D02*
X374969Y471489D01*
X443829Y469965D02*
X445445D01*
X287020Y368300D02*
X375920Y457200D01*
X442685D01*
X451407Y465921D01*
X381000Y447040D02*
X445150D01*
X458284Y460174D01*
X386080Y436880D02*
X446126D01*
X463852Y454606D01*
X463852D01*
X287020Y332740D02*
Y368300D01*
X276860Y353060D02*
Y373380D01*
X266700Y368300D02*
Y378460D01*
X261704Y307424D02*
X287020Y332740D01*
X254000Y330200D02*
X276860Y353060D01*
X254000Y355600D02*
X266700Y368300D01*
X458284Y460174D02*
X458284D01*
X451407Y465921D02*
X452537D01*
X256624Y307424D02*
X261704D01*
X254000Y304800D02*
X256624Y307424D01*
X670560Y447040D02*
Y513080D01*
X572666Y518160D02*
X665480D01*
X670560Y513080D01*
X723900Y584200D02*
X734060Y574040D01*
X559680Y584200D02*
X723900D01*
X711200Y574040D02*
X736600Y548640D01*
X560656Y574040D02*
X711200D01*
X721360Y538480D02*
Y548640D01*
X561990Y563880D02*
X706120D01*
X721360Y548640D01*
X569151Y525780D02*
X675640D01*
X680720Y520700D01*
Y464820D02*
Y520700D01*
X462280Y426720D02*
Y430404D01*
X518160Y370840D02*
X660400D01*
X462280Y426720D02*
X518160Y370840D01*
X444186Y506423D02*
X452190Y498418D01*
X442923Y506423D02*
X444186D01*
X452190Y498418D02*
X452190D01*
X711200Y330200D02*
Y350520D01*
Y330200D02*
X736600Y304800D01*
X670560Y391160D02*
X711200Y350520D01*
X523240Y391160D02*
X670560D01*
X721360Y345440D02*
X736600Y330200D01*
X721360Y345440D02*
Y355600D01*
X675640Y401320D02*
X721360Y355600D01*
X538153Y401320D02*
X675640D01*
X680720Y464820D02*
X725678Y419862D01*
Y417322D02*
Y419862D01*
Y417322D02*
X736600Y406400D01*
X670560Y447040D02*
X736600Y381000D01*
X539129Y411480D02*
X680720D01*
X736600Y355600D01*
X462280Y430404D02*
X475167Y443291D01*
X485261Y429139D02*
X523240Y391160D01*
X485261Y430755D02*
X486482Y431976D01*
X485261Y429139D02*
Y430755D01*
X507151Y432322D02*
X538153Y401320D01*
X512719Y437890D02*
X539129Y411480D01*
X545618Y472882D02*
Y474498D01*
Y472882D02*
X546664Y471835D01*
X642366Y485140D02*
X645160Y482346D01*
X558878Y448656D02*
X641442D01*
X645160Y452374D01*
X541266Y466268D02*
X558878Y448656D01*
X721360Y538480D02*
X736600Y523240D01*
X711200D02*
Y541020D01*
X698500Y553720D02*
X711200Y541020D01*
Y523240D02*
X736600Y497840D01*
X693420Y543560D02*
X701040Y535940D01*
Y508000D02*
Y535940D01*
Y508000D02*
X736600Y472440D01*
X690880Y477520D02*
X736600Y431800D01*
X690880Y477520D02*
Y528320D01*
X685800Y533400D02*
X690880Y528320D01*
X565276Y533400D02*
X685800D01*
X564301Y543560D02*
X693420D01*
X562966Y553720D02*
X698500D01*
X547011Y492504D02*
X572666Y518160D01*
X541443Y498072D02*
X569151Y525780D01*
X535695Y503819D02*
X565276Y533400D01*
X449580Y180340D02*
X503574D01*
X447294Y182626D02*
X449580Y180340D01*
X447294Y182626D02*
Y198120D01*
X590097Y128812D02*
X591346Y124151D01*
X547878Y86614D02*
X548072Y84998D01*
X548645Y80209D01*
X552090Y54038D01*
X552357Y49206D01*
X443173Y84935D02*
X443230Y85344D01*
X442514Y80155D02*
X443173Y84935D01*
X439066Y53965D02*
X442514Y80155D01*
X438243Y49206D02*
X439066Y53965D01*
X419100Y198120D02*
X447294D01*
X454660Y256540D02*
X480060D01*
X451640Y256060D02*
X452120Y256540D01*
X550012Y586740D02*
X551180D01*
X496718Y533445D02*
X550012Y586740D01*
X486136Y532364D02*
X548132Y594360D01*
X728933D01*
X734013Y599440D01*
X496718Y525420D02*
Y533445D01*
X479298Y508000D02*
X496718Y525420D01*
X476734Y508000D02*
X479298D01*
X469253Y515481D02*
X476734Y508000D01*
X513065Y526450D02*
X560656Y574040D01*
X507497Y532017D02*
X559680Y584200D01*
X444337Y495137D02*
X446623Y492851D01*
X518813Y520702D02*
X561990Y563880D01*
X524380Y515134D02*
X562966Y553720D01*
X530128Y509387D02*
X564301Y543560D01*
D13*
X447029Y960227D02*
G03*
X311589Y39082I48271J-477627D01*
G01*
X447204Y960245D02*
G03*
X447029Y960227I48096J-477645D01*
G01*
X285381Y885899D02*
G03*
X227043Y115512I209919J-403299D01*
G01*
X294914Y207848D02*
G03*
X476723Y142626I201110J274590D01*
G01*
X351159Y38114D02*
G03*
X374619Y31165I144422J444486D01*
G01*
X298757Y186423D02*
G03*
X386536Y144125I196801J296176D01*
G01*
X421561Y944106D02*
G03*
X236347Y93539I73739J-461506D01*
G01*
X297028Y196631D02*
G03*
X431709Y140480I198272J285969D01*
G01*
X398531Y933339D02*
G03*
X232294Y103973I96769J-450739D01*
G01*
X410411Y23066D02*
G03*
X434578Y19238I85170J459534D01*
G01*
X471121Y15881D02*
G03*
X495581Y15240I24460J466720D01*
G01*
X440689Y953152D02*
G03*
X248026Y78549I54611J-470552D01*
G01*
X447294Y908558D02*
Y959962D01*
X454406Y901446D02*
X520954D01*
X447294Y908558D02*
X454406Y901446D01*
X520954D02*
X532765Y889635D01*
X316546Y51050D02*
X318947Y54730D01*
X311808Y38889D02*
X315149Y46955D01*
X447029Y960227D02*
X447294Y959962D01*
X315149Y46955D02*
X316546Y51050D01*
X227043Y115512D02*
X294914Y207848D01*
X351159Y38114D02*
X386278Y144125D01*
X236347Y93539D02*
X298757Y186423D01*
X421561Y944106D02*
X421894Y943773D01*
Y820980D02*
Y943773D01*
Y818440D02*
Y820980D01*
X232294Y103973D02*
X297028Y196631D01*
X410284Y23449D02*
X431709Y140480D01*
X471121Y15881D02*
X476723Y142626D01*
X398531Y933339D02*
X398780Y933091D01*
X285381Y885899D02*
X285422Y885940D01*
X317500D01*
X248026Y78549D02*
X261272D01*
X248026D02*
X248026D01*
X261272D02*
X261747Y78074D01*
X398780Y885940D02*
Y933091D01*
X440690Y953150D02*
Y953152D01*
Y897890D02*
Y953150D01*
X440689Y953152D02*
X440690Y953150D01*
Y897890D02*
X496570Y842010D01*
Y822650D02*
Y842010D01*
X374404Y31410D02*
X376363Y35356D01*
X434330Y19490D02*
X435321Y23715D01*
X695706Y135382D02*
X695788Y135240D01*
X697952Y131504D01*
X711668Y107747D02*
X713867Y104031D01*
X697952Y131504D02*
X711668Y107747D01*
X649224Y112268D02*
X649234Y112244D01*
X650830Y108238D01*
X661328Y82894D01*
X662584Y78741D01*
X598678Y96012D02*
X598914Y95148D01*
X600054Y90984D01*
X607154Y64487D02*
X608439Y60361D01*
X600054Y90984D02*
X607154Y64487D01*
X495046Y81788D02*
X495048Y81532D01*
X495078Y77216D01*
Y49784D02*
X495300Y45466D01*
X495078Y49784D02*
Y77216D01*
X391643Y95160D02*
X391668Y95250D01*
X390508Y90994D02*
X391643Y95160D01*
X382161Y60361D02*
X383409Y64497D01*
X390508Y90994D01*
X341839Y112055D02*
X342138Y112776D01*
X340184Y108067D02*
X341839Y112055D01*
X328016Y78741D02*
X329686Y82723D01*
X340184Y108067D01*
X294512Y135411D02*
X294640Y135636D01*
X292385Y131656D02*
X294512Y135411D01*
X276733Y104031D02*
X278669Y107899D01*
X292385Y131656D01*
D15*
X523970Y471900D02*
G03*
X512654Y460584I-5651J-5664D01*
G01*
X535998Y15846D02*
G03*
X674996Y49905I-40698J466754D01*
G01*
X521970Y752856D02*
X532765Y763651D01*
Y889635D01*
X521970Y752856D02*
X572770D01*
X557784Y791464D02*
X596392Y752856D01*
X598170D01*
X548640Y791464D02*
X550608D01*
X552323D01*
X557784D01*
X557784Y791464D02*
Y822960D01*
X550608Y791464D02*
Y795029D01*
Y791464D02*
X552323Y789750D01*
X441960Y691134D02*
X462534D01*
X474980Y703580D01*
X471222Y536142D02*
Y545280D01*
Y536142D02*
X476530Y530834D01*
X469516Y546986D02*
X471222Y545280D01*
X474980Y703580D02*
Y716280D01*
X496570Y737870D01*
Y752856D01*
X524034Y449205D02*
X537420Y435820D01*
X535349Y460520D02*
X548735Y447135D01*
X523970Y471900D02*
X535349Y460520D01*
X511937Y191008D02*
X535998Y15846D01*
X508254Y198120D02*
X511937Y191008D01*
X512654Y460584D02*
X524034Y449205D01*
D20*
X441960Y691134D02*
D03*
Y721106D02*
D03*
X645160Y452374D02*
D03*
Y482346D02*
D03*
X495300Y15494D02*
D03*
X495300Y45466D02*
D03*
X495300Y111506D02*
D03*
Y81534D02*
D03*
D21*
X261747Y78074D02*
D03*
X276733Y104031D02*
D03*
X309753Y161223D02*
D03*
X294767Y135267D02*
D03*
D22*
X354330Y792226D02*
D03*
X384302D02*
D03*
X301244D02*
D03*
X271272D02*
D03*
X688340Y867410D02*
D03*
X658368D02*
D03*
X655574Y810260D02*
D03*
X685546D02*
D03*
X658114Y843280D02*
D03*
X688086D02*
D03*
X548640Y791464D02*
D03*
X518668D02*
D03*
X744220Y867410D02*
D03*
X714248D02*
D03*
X477266Y198120D02*
D03*
X447294D02*
D03*
X443484Y791464D02*
D03*
X473456D02*
D03*
X388874Y198120D02*
D03*
X418846D02*
D03*
X508254D02*
D03*
X538226D02*
D03*
D23*
X317500Y885940D02*
D03*
X398780D02*
D03*
D24*
X294386Y820940D02*
D03*
X317500D02*
D03*
X340614Y818440D02*
D03*
X375666Y820940D02*
D03*
X398780D02*
D03*
X421894Y818440D02*
D03*
D25*
X447424Y524894D02*
D03*
X469516Y546986D02*
D03*
D26*
X441376Y573409D02*
D03*
X420183Y552215D02*
D03*
X400883Y573603D02*
D03*
X422077Y594797D02*
D03*
X599003Y431363D02*
D03*
X620197Y452557D02*
D03*
D27*
X557784Y822960D02*
D03*
Y835660D02*
D03*
Y848360D02*
D03*
Y861060D02*
D03*
Y873760D02*
D03*
Y886460D02*
D03*
Y899160D02*
D03*
X617220Y911860D02*
D03*
Y899160D02*
D03*
Y886460D02*
D03*
Y873760D02*
D03*
Y861060D02*
D03*
Y848360D02*
D03*
Y835660D02*
D03*
Y822960D02*
D03*
D28*
X557784Y911860D02*
D03*
D29*
X651518Y909360D02*
D03*
Y889960D02*
D03*
X677918Y909360D02*
D03*
D30*
Y889960D02*
D03*
D31*
X507151Y432322D02*
D03*
X512719Y437890D02*
D03*
X518466Y443637D02*
D03*
X524034Y449205D02*
D03*
X529781Y454953D02*
D03*
X535349Y460520D02*
D03*
X541096Y466268D02*
D03*
X546664Y471835D02*
D03*
X486136Y532364D02*
D03*
X480568Y526796D02*
D03*
X474821Y521049D02*
D03*
X469253Y515481D02*
D03*
X463506Y509734D02*
D03*
X457938Y504166D02*
D03*
X452190Y498418D02*
D03*
X446623Y492851D02*
D03*
D32*
X547011Y492504D02*
D03*
X541443Y498072D02*
D03*
X535695Y503819D02*
D03*
X530128Y509387D02*
D03*
X524380Y515134D02*
D03*
X518813Y520702D02*
D03*
X513065Y526450D02*
D03*
X507497Y532017D02*
D03*
X446969Y471489D02*
D03*
X452537Y465921D02*
D03*
X458284Y460174D02*
D03*
X463852Y454606D02*
D03*
X469599Y448859D02*
D03*
X475167Y443291D02*
D03*
X480914Y437544D02*
D03*
X486482Y431976D02*
D03*
D33*
X598206Y468211D02*
D03*
X584488Y481929D02*
D03*
X579539Y449544D02*
D03*
X565821Y463262D02*
D03*
D34*
X599003Y503357D02*
D03*
X620197Y482163D02*
D03*
D35*
X728853Y78074D02*
D03*
X713867Y104031D02*
D03*
X695833Y135267D02*
D03*
X680847Y161223D02*
D03*
D36*
X662584Y78741D02*
D03*
X674054Y51050D02*
D03*
X648781Y112063D02*
D03*
X637312Y139754D02*
D03*
D37*
X608439Y60361D02*
D03*
X616196Y31410D02*
D03*
X591346Y124151D02*
D03*
X599104Y95200D02*
D03*
D38*
X556270Y19490D02*
D03*
X552357Y49206D02*
D03*
X543889Y114681D02*
D03*
X547802Y84965D02*
D03*
D39*
X434330Y19490D02*
D03*
X438243Y49206D02*
D03*
X446862Y114681D02*
D03*
X442950Y84965D02*
D03*
D40*
X382161Y60361D02*
D03*
X374404Y31410D02*
D03*
X391497Y95200D02*
D03*
X399254Y124151D02*
D03*
D41*
X316546Y51050D02*
D03*
X328016Y78741D02*
D03*
X353288Y139754D02*
D03*
X341819Y112063D02*
D03*
D42*
X452120Y226060D02*
D03*
X386120Y256060D02*
D03*
Y226060D02*
D03*
X452120Y256060D02*
D03*
D77*
X648970Y703580D02*
D03*
X674370D02*
D03*
X598170D02*
D03*
X623570D02*
D03*
X649010Y655590D02*
D03*
X674410D02*
D03*
X598210D02*
D03*
X623610D02*
D03*
X457200Y330200D02*
D03*
Y304800D02*
D03*
Y381000D02*
D03*
Y355600D02*
D03*
X406400D02*
D03*
Y381000D02*
D03*
Y304800D02*
D03*
Y330200D02*
D03*
X525780Y655320D02*
D03*
X551180D02*
D03*
X474980D02*
D03*
X500380D02*
D03*
X525780Y703580D02*
D03*
X551180D02*
D03*
X474980D02*
D03*
X500380D02*
D03*
X622300Y279400D02*
D03*
X596900D02*
D03*
X673100D02*
D03*
X647700D02*
D03*
X622300Y330200D02*
D03*
X596900D02*
D03*
X673100D02*
D03*
X647700D02*
D03*
X344170Y702056D02*
D03*
X369570D02*
D03*
X293370D02*
D03*
X318770D02*
D03*
X319786Y655320D02*
D03*
X294386D02*
D03*
X370586D02*
D03*
X345186D02*
D03*
X739140Y828040D02*
D03*
X713740D02*
D03*
X789940D02*
D03*
X764540D02*
D03*
X739140Y782320D02*
D03*
X713740D02*
D03*
X789940D02*
D03*
X764540D02*
D03*
X482600Y228600D02*
D03*
Y254000D02*
D03*
X508000Y228600D02*
D03*
Y254000D02*
D03*
X533400Y228600D02*
D03*
Y254000D02*
D03*
D78*
X572770Y752856D02*
D03*
X598170D02*
D03*
X420370D02*
D03*
X394970D02*
D03*
D79*
X736600Y701040D02*
D03*
Y675640D02*
D03*
Y650240D02*
D03*
Y624840D02*
D03*
Y599440D02*
D03*
Y574040D02*
D03*
Y548640D02*
D03*
Y523240D02*
D03*
Y497840D02*
D03*
Y472440D02*
D03*
X254000Y254000D02*
D03*
Y279400D02*
D03*
Y304800D02*
D03*
Y330200D02*
D03*
Y355600D02*
D03*
Y381000D02*
D03*
X177800D02*
D03*
Y355600D02*
D03*
Y330200D02*
D03*
Y304800D02*
D03*
Y279400D02*
D03*
Y254000D02*
D03*
X812800D02*
D03*
Y279400D02*
D03*
Y304800D02*
D03*
Y330200D02*
D03*
Y355600D02*
D03*
Y381000D02*
D03*
Y406400D02*
D03*
Y431800D02*
D03*
X736600Y254000D02*
D03*
Y279400D02*
D03*
Y304800D02*
D03*
Y330200D02*
D03*
Y355600D02*
D03*
Y381000D02*
D03*
Y406400D02*
D03*
Y431800D02*
D03*
X177800Y609600D02*
D03*
Y584200D02*
D03*
Y558800D02*
D03*
Y533400D02*
D03*
Y508000D02*
D03*
Y482600D02*
D03*
Y457200D02*
D03*
Y431800D02*
D03*
X254000Y609600D02*
D03*
Y584200D02*
D03*
Y558800D02*
D03*
Y533400D02*
D03*
Y508000D02*
D03*
Y482600D02*
D03*
Y457200D02*
D03*
Y431800D02*
D03*
X812800Y472440D02*
D03*
Y497840D02*
D03*
Y523240D02*
D03*
Y548640D02*
D03*
Y574040D02*
D03*
Y599440D02*
D03*
Y624840D02*
D03*
Y650240D02*
D03*
Y675640D02*
D03*
Y701040D02*
D03*
X645160Y502920D02*
D03*
D80*
X460300Y914400D02*
D03*
X530300D02*
D03*
D81*
X470300Y941400D02*
D03*
X520300D02*
D03*
D82*
X450070Y847650D02*
D03*
D83*
X496570Y822650D02*
D03*
Y882650D02*
D03*
D84*
X521970Y752856D02*
D03*
X496570D02*
D03*
X471170D02*
D03*
D85*
X688340Y678180D02*
D03*
X447502Y588818D02*
D03*
X471275Y494180D02*
D03*
X782320Y254000D02*
D03*
Y279400D02*
D03*
X546100Y99568D02*
D03*
X433070Y539750D02*
D03*
X728980Y867410D02*
D03*
X369316Y792226D02*
D03*
X504190Y784860D02*
D03*
X523240Y198120D02*
D03*
X403860D02*
D03*
X452120Y241300D02*
D03*
X386080D02*
D03*
X286512Y792226D02*
D03*
X458470Y791464D02*
D03*
X375920Y840740D02*
D03*
X294640D02*
D03*
X568960Y604520D02*
D03*
X439420Y596900D02*
D03*
X388620Y546100D02*
D03*
X397187Y538533D02*
D03*
X585344Y904367D02*
D03*
X596773Y904240D02*
D03*
X626110Y811530D02*
D03*
X684530Y792480D02*
D03*
X671830Y867410D02*
D03*
X695875Y170327D02*
D03*
X695960Y890270D02*
D03*
X634746Y905510D02*
D03*
X625094Y467360D02*
D03*
X609092Y493522D02*
D03*
X608584Y441452D02*
D03*
X556768Y476250D02*
D03*
X495300Y96520D02*
D03*
X445770Y100330D02*
D03*
X394970Y110490D02*
D03*
X347980Y127000D02*
D03*
X302260Y148590D02*
D03*
X518250Y466611D02*
D03*
X506222Y454914D02*
D03*
X293878Y558800D02*
D03*
X565150Y194310D02*
D03*
X553720Y205740D02*
D03*
Y194310D02*
D03*
X736437Y218619D02*
D03*
X462280Y482600D02*
D03*
X436110Y508770D02*
D03*
X551180Y586740D02*
D03*
D86*
X645160Y429260D02*
D03*
D87*
X483870Y500380D02*
D03*
X532765Y889635D02*
D03*
X407445Y607285D02*
D03*
X386490Y586330D02*
D03*
X408940Y703580D02*
D03*
X444500Y549910D02*
D03*
X537958Y358337D02*
D03*
X548640Y447040D02*
D03*
X537210Y435610D02*
D03*
M02*
