G04*
G04 #@! TF.GenerationSoftware,Altium Limited,Altium Designer,24.2.2 (26)*
G04*
G04 Layer_Physical_Order=2*
G04 Layer_Color=16711680*
%FSLAX44Y44*%
%MOMM*%
G71*
G04*
G04 #@! TF.SameCoordinates,14A9DA51-42A2-44A4-A91A-1E31E54FDAF6*
G04*
G04*
G04 #@! TF.FilePolarity,Positive*
G04*
G01*
G75*
%ADD10C,0.5080*%
%ADD12C,0.1524*%
%ADD15C,0.3810*%
G04:AMPARAMS|DCode=34|XSize=1.1176mm|YSize=1.8034mm|CornerRadius=0mm|HoleSize=0mm|Usage=FLASHONLY|Rotation=135.000|XOffset=0mm|YOffset=0mm|HoleType=Round|Shape=Rectangle|*
%AMROTATEDRECTD34*
4,1,4,1.0327,0.2425,-0.2425,-1.0327,-1.0327,-0.2425,0.2425,1.0327,1.0327,0.2425,0.0*
%
%ADD34ROTATEDRECTD34*%

%ADD77C,1.7780*%
%ADD78C,1.6200*%
%ADD79C,1.5240*%
%ADD80O,0.7750X1.5500*%
%ADD81O,1.3000X0.6500*%
%ADD82O,1.8000X3.3000*%
%ADD83O,3.3020X2.0000*%
%ADD84C,1.6500*%
%ADD85C,0.6350*%
%ADD86C,1.5494*%
%ADD87C,1.0160*%
%ADD88R,1.5000X1.5500*%
%ADD89R,0.3810X1.3500*%
%ADD90R,0.6350X1.0000*%
G36*
X517084Y953773D02*
X538821Y952265D01*
X560465Y949754D01*
X581970Y946246D01*
X593442Y943826D01*
Y940109D01*
X593406Y939927D01*
Y914027D01*
X592233Y913541D01*
X591534Y914241D01*
X590441Y914970D01*
X589153Y915227D01*
X581660D01*
X581660Y915227D01*
X580372Y914970D01*
X579279Y914241D01*
X575367Y910329D01*
X574638Y909236D01*
X574381Y907948D01*
Y896856D01*
X572033D01*
Y884403D01*
X544406D01*
X540341Y888468D01*
X540385Y888632D01*
Y890638D01*
X540065Y891832D01*
X545749Y897516D01*
X545749Y897516D01*
X546731Y898986D01*
X547076Y900720D01*
Y922020D01*
X546731Y923754D01*
X545749Y925225D01*
X536592Y934382D01*
X535121Y935364D01*
X533387Y935709D01*
X527741D01*
X527355Y936979D01*
X527724Y937226D01*
X528986Y939114D01*
X520300D01*
Y941400D01*
X518014D01*
Y947303D01*
X517050D01*
X514791Y946854D01*
X514015Y946336D01*
X512745Y947014D01*
Y950690D01*
X505299D01*
Y953137D01*
X506207Y954025D01*
X517084Y953773D01*
D02*
G37*
G36*
X491933Y962924D02*
Y950690D01*
X484355D01*
Y932110D01*
X504026D01*
X504113Y931675D01*
X505095Y930204D01*
X507327Y927972D01*
X508797Y926990D01*
X510532Y926645D01*
X531156D01*
X532037Y925642D01*
X531978Y925515D01*
X531790Y925247D01*
X531570Y925092D01*
Y921985D01*
X531590Y921980D01*
X531850Y921910D01*
X532090Y921820D01*
X532330Y921720D01*
X532570Y921610D01*
X532800Y921480D01*
X533020Y921340D01*
X533240Y921200D01*
X533450Y921040D01*
X533650Y920870D01*
X533840Y920690D01*
X534020Y920500D01*
X534190Y920300D01*
X534350Y920090D01*
X534490Y919870D01*
X534630Y919650D01*
X534760Y919420D01*
X534870Y919180D01*
X534970Y918940D01*
X535060Y918700D01*
X535130Y918440D01*
X535190Y918190D01*
X535240Y917930D01*
X535270Y917670D01*
X535290Y917410D01*
X535300Y917150D01*
Y911650D01*
X535290Y911380D01*
X535270Y911120D01*
X535240Y910860D01*
X535190Y910600D01*
X535130Y910350D01*
X535060Y910100D01*
X534970Y909850D01*
X534870Y909610D01*
X534760Y909370D01*
X534630Y909140D01*
X534500Y908920D01*
X534350Y908710D01*
X534190Y908500D01*
X534020Y908300D01*
X533840Y908110D01*
X533650Y907930D01*
X533450Y907760D01*
X533240Y907600D01*
X533030Y907450D01*
X532810Y907320D01*
X532580Y907190D01*
X532340Y907080D01*
X532100Y906980D01*
X531850Y906890D01*
X531600Y906820D01*
X531570Y906813D01*
Y904167D01*
X531579Y904167D01*
X531839Y904217D01*
X531895Y904239D01*
X531954Y904242D01*
X532204Y904302D01*
X532249Y904322D01*
X532298Y904326D01*
X532548Y904396D01*
X532633Y904439D01*
X532727Y904453D01*
X532977Y904543D01*
X533032Y904577D01*
X533096Y904589D01*
X533336Y904689D01*
X533374Y904715D01*
X533419Y904726D01*
X533659Y904836D01*
X533749Y904901D01*
X533854Y904936D01*
X534084Y905065D01*
X534104Y905082D01*
X534128Y905090D01*
X534347Y905220D01*
X534432Y905296D01*
X534535Y905342D01*
X534745Y905492D01*
X534773Y905522D01*
X534810Y905540D01*
X535020Y905700D01*
X535066Y905753D01*
X535127Y905787D01*
X535327Y905957D01*
X535371Y906012D01*
X535431Y906050D01*
X535621Y906230D01*
X535662Y906288D01*
X535720Y906329D01*
X535900Y906519D01*
X535938Y906579D01*
X535993Y906623D01*
X536163Y906823D01*
X536197Y906884D01*
X536250Y906930D01*
X536410Y907140D01*
X536742Y907234D01*
X538012Y906454D01*
Y902598D01*
X532669Y897255D01*
X531762D01*
X529824Y896736D01*
X528086Y895732D01*
X526668Y894314D01*
X525664Y892576D01*
X525145Y890638D01*
Y888632D01*
X525664Y886694D01*
X526668Y884956D01*
X528086Y883538D01*
X529824Y882534D01*
X531762Y882015D01*
X533768D01*
X533932Y882059D01*
X539324Y876666D01*
X540795Y875684D01*
X542529Y875339D01*
X542529Y875339D01*
X582764D01*
X584498Y875684D01*
X585969Y876666D01*
X589183Y879880D01*
X590165Y881350D01*
X590250Y881776D01*
X602463D01*
Y894666D01*
X603345Y895255D01*
X606647Y898557D01*
X607376Y899650D01*
X607633Y900938D01*
Y949565D01*
X608827Y950580D01*
X619965Y947855D01*
X640140Y941974D01*
X660040Y935219D01*
X679626Y927603D01*
X698861Y919139D01*
X717709Y909844D01*
X736134Y899736D01*
X754100Y888834D01*
X771573Y877159D01*
X788521Y864732D01*
X804910Y851579D01*
X820710Y837722D01*
X835890Y823190D01*
X850422Y808010D01*
X864279Y792210D01*
X877432Y775820D01*
X889859Y758873D01*
X901534Y741400D01*
X912436Y723434D01*
X922544Y705009D01*
X931839Y686161D01*
X940303Y666926D01*
X947919Y647340D01*
X954674Y627440D01*
X960555Y607265D01*
X965550Y586852D01*
X969650Y566241D01*
X972847Y545470D01*
X975134Y524580D01*
X976509Y503610D01*
X976959Y482995D01*
X976880Y482600D01*
X976959Y482205D01*
X976509Y461590D01*
X975134Y440620D01*
X972847Y419730D01*
X969650Y398959D01*
X965550Y378348D01*
X960555Y357935D01*
X954674Y337760D01*
X947919Y317860D01*
X940303Y298274D01*
X931839Y279039D01*
X922544Y260191D01*
X912436Y241766D01*
X901534Y223800D01*
X889859Y206327D01*
X877432Y189380D01*
X864279Y172990D01*
X850422Y157190D01*
X835890Y142010D01*
X820710Y127478D01*
X804910Y113621D01*
X788521Y100468D01*
X771573Y88041D01*
X754100Y76366D01*
X736134Y65464D01*
X717709Y55356D01*
X698861Y46061D01*
X679626Y37597D01*
X660040Y29981D01*
X640140Y23226D01*
X619965Y17345D01*
X599552Y12350D01*
X578941Y8250D01*
X558170Y5053D01*
X537280Y2766D01*
X516310Y1391D01*
X495695Y941D01*
X495300Y1020D01*
X494905Y941D01*
X474290Y1391D01*
X453320Y2766D01*
X432430Y5053D01*
X411659Y8250D01*
X391048Y12350D01*
X370635Y17345D01*
X350460Y23226D01*
X330560Y29981D01*
X310974Y37597D01*
X291739Y46061D01*
X272891Y55356D01*
X254466Y65464D01*
X236500Y76366D01*
X219027Y88041D01*
X202080Y100468D01*
X185690Y113621D01*
X169890Y127478D01*
X154710Y142010D01*
X140178Y157190D01*
X126321Y172990D01*
X113168Y189380D01*
X100741Y206327D01*
X89066Y223800D01*
X78164Y241766D01*
X68056Y260191D01*
X58761Y279039D01*
X50297Y298274D01*
X42681Y317860D01*
X35926Y337760D01*
X30045Y357935D01*
X25050Y378348D01*
X20950Y398959D01*
X17753Y419730D01*
X15466Y440620D01*
X14091Y461590D01*
X13641Y482205D01*
X13720Y482600D01*
X13641Y482995D01*
X14091Y503610D01*
X15466Y524580D01*
X17753Y545470D01*
X20950Y566241D01*
X25050Y586852D01*
X30045Y607265D01*
X35926Y627440D01*
X42681Y647340D01*
X50297Y666926D01*
X58761Y686161D01*
X68056Y705009D01*
X78164Y723434D01*
X89066Y741400D01*
X100741Y758873D01*
X113168Y775820D01*
X126321Y792210D01*
X140178Y808010D01*
X154710Y823190D01*
X169890Y837722D01*
X185690Y851579D01*
X202080Y864732D01*
X219027Y877159D01*
X236500Y888834D01*
X254466Y899736D01*
X272891Y909844D01*
X291739Y919139D01*
X310974Y927603D01*
X330560Y935219D01*
X350460Y941974D01*
X370635Y947855D01*
X391048Y952850D01*
X411659Y956950D01*
X432430Y960147D01*
X453320Y962434D01*
X474290Y963809D01*
X490934Y964172D01*
X491933Y962924D01*
D02*
G37*
%LPC*%
G36*
X523550Y947303D02*
X522586D01*
Y943686D01*
X528986D01*
X527724Y945574D01*
X525809Y946854D01*
X523550Y947303D01*
D02*
G37*
G36*
X473550D02*
X471570D01*
Y942670D01*
X479201D01*
X479004Y943659D01*
X477724Y945574D01*
X475809Y946854D01*
X473550Y947303D01*
D02*
G37*
G36*
X469030D02*
X467050D01*
X464791Y946854D01*
X462876Y945574D01*
X461596Y943659D01*
X461399Y942670D01*
X469030D01*
Y947303D01*
D02*
G37*
G36*
X479201Y940130D02*
X471570D01*
Y935497D01*
X473550D01*
X475809Y935946D01*
X477724Y937226D01*
X479004Y939141D01*
X479201Y940130D01*
D02*
G37*
G36*
X469030D02*
X461399D01*
X461596Y939141D01*
X462876Y937226D01*
X464791Y935946D01*
X467050Y935497D01*
X469030D01*
Y940130D01*
D02*
G37*
G36*
X518350Y924790D02*
X518300D01*
X517309Y924593D01*
X516469Y924031D01*
X515907Y923191D01*
X515710Y922200D01*
Y906650D01*
X515907Y905659D01*
X516469Y904819D01*
X517309Y904257D01*
X518300Y904060D01*
X529030D01*
Y906650D01*
X518300D01*
Y922200D01*
X518350D01*
Y922150D01*
X529030D01*
Y924740D01*
X518601D01*
X518350Y924790D01*
D02*
G37*
G36*
X461570Y919814D02*
Y914400D01*
Y908993D01*
X461660Y909050D01*
X461770Y909130D01*
X461870Y909210D01*
X461970Y909290D01*
X462070Y909380D01*
X462160Y909480D01*
X462240Y909580D01*
X462320Y909680D01*
X462400Y909790D01*
X462470Y909900D01*
X462530Y910020D01*
X462580Y910130D01*
X462630Y910250D01*
X462680Y910380D01*
X462710Y910500D01*
X462750Y910630D01*
X462770Y910760D01*
X462790Y910890D01*
X462800Y911020D01*
Y911150D01*
Y911250D01*
Y917550D01*
Y917650D01*
Y917790D01*
X462790Y917920D01*
X462770Y918050D01*
X462750Y918180D01*
X462720Y918310D01*
X462680Y918430D01*
X462630Y918550D01*
X462580Y918670D01*
X462530Y918790D01*
X462470Y918910D01*
X462400Y919020D01*
X462320Y919120D01*
X462250Y919230D01*
X462160Y919330D01*
X462070Y919420D01*
X461980Y919510D01*
X461880Y919600D01*
X461770Y919670D01*
X461670Y919750D01*
X461570Y919814D01*
D02*
G37*
G36*
X459030Y919814D02*
X458930Y919750D01*
X458830Y919670D01*
X458720Y919600D01*
X458620Y919510D01*
X458530Y919420D01*
X458440Y919330D01*
X458350Y919230D01*
X458280Y919120D01*
X458200Y919020D01*
X458130Y918910D01*
X458070Y918790D01*
X458020Y918670D01*
X457970Y918550D01*
X457920Y918430D01*
X457880Y918310D01*
X457850Y918180D01*
X457830Y918050D01*
X457810Y917920D01*
X457800Y917790D01*
Y917650D01*
Y911150D01*
Y911020D01*
X457810Y910890D01*
X457830Y910760D01*
X457850Y910630D01*
X457890Y910500D01*
X457920Y910380D01*
X457970Y910250D01*
X458020Y910130D01*
X458070Y910020D01*
X458130Y909900D01*
X458200Y909790D01*
X458280Y909680D01*
X458360Y909580D01*
X458440Y909480D01*
X458530Y909380D01*
X458630Y909290D01*
X458730Y909210D01*
X458830Y909130D01*
X458940Y909050D01*
X459030Y908993D01*
Y914400D01*
Y919814D01*
D02*
G37*
G36*
X529030Y919807D02*
X528940Y919750D01*
X528830Y919670D01*
X528730Y919590D01*
X528630Y919510D01*
X528530Y919420D01*
X528440Y919320D01*
X528360Y919220D01*
X528280Y919120D01*
X528200Y919010D01*
X528130Y918900D01*
X528070Y918780D01*
X528020Y918670D01*
X527970Y918550D01*
X527920Y918420D01*
X527890Y918300D01*
X527850Y918170D01*
X527830Y918040D01*
X527810Y917910D01*
X527800Y917780D01*
Y917650D01*
Y917550D01*
Y911250D01*
Y911150D01*
Y911010D01*
X527810Y910880D01*
X527830Y910750D01*
X527850Y910620D01*
X527880Y910490D01*
X527920Y910370D01*
X527970Y910250D01*
X528020Y910130D01*
X528070Y910010D01*
X528130Y909890D01*
X528200Y909780D01*
X528280Y909680D01*
X528350Y909570D01*
X528440Y909470D01*
X528530Y909380D01*
X528620Y909290D01*
X528720Y909200D01*
X528830Y909130D01*
X528930Y909050D01*
X529030Y908986D01*
Y914400D01*
Y919807D01*
D02*
G37*
G36*
X531570D02*
Y914400D01*
Y908986D01*
X531670Y909050D01*
X531770Y909130D01*
X531880Y909200D01*
X531980Y909290D01*
X532070Y909380D01*
X532160Y909470D01*
X532250Y909570D01*
X532320Y909680D01*
X532400Y909780D01*
X532470Y909890D01*
X532530Y910010D01*
X532580Y910130D01*
X532630Y910250D01*
X532680Y910370D01*
X532720Y910490D01*
X532750Y910620D01*
X532770Y910750D01*
X532790Y910880D01*
X532800Y911010D01*
Y911150D01*
Y917650D01*
Y917780D01*
X532790Y917910D01*
X532770Y918040D01*
X532750Y918170D01*
X532710Y918300D01*
X532680Y918420D01*
X532630Y918550D01*
X532580Y918670D01*
X532530Y918780D01*
X532470Y918900D01*
X532400Y919010D01*
X532320Y919120D01*
X532240Y919220D01*
X532160Y919320D01*
X532070Y919420D01*
X531970Y919510D01*
X531870Y919590D01*
X531770Y919670D01*
X531660Y919750D01*
X531570Y919807D01*
D02*
G37*
G36*
X472300Y924740D02*
X461570D01*
Y922150D01*
X472300D01*
Y906600D01*
X472250D01*
Y906650D01*
X461570D01*
Y904060D01*
X471999D01*
X472250Y904010D01*
X472300D01*
X473291Y904207D01*
X474131Y904769D01*
X474693Y905609D01*
X474890Y906600D01*
Y922150D01*
X474693Y923141D01*
X474131Y923981D01*
X473291Y924543D01*
X472300Y924740D01*
D02*
G37*
G36*
X459021Y924633D02*
X458761Y924583D01*
X458705Y924561D01*
X458646Y924558D01*
X458396Y924498D01*
X458351Y924478D01*
X458302Y924474D01*
X458052Y924404D01*
X457967Y924361D01*
X457873Y924347D01*
X457623Y924257D01*
X457567Y924223D01*
X457504Y924211D01*
X457264Y924110D01*
X457226Y924085D01*
X457181Y924074D01*
X456941Y923964D01*
X456851Y923899D01*
X456746Y923865D01*
X456516Y923735D01*
X456497Y923718D01*
X456473Y923710D01*
X456253Y923580D01*
X456168Y923504D01*
X456065Y923457D01*
X455855Y923307D01*
X455827Y923278D01*
X455790Y923260D01*
X455580Y923100D01*
X455534Y923047D01*
X455473Y923013D01*
X455273Y922843D01*
X455229Y922788D01*
X455169Y922750D01*
X454979Y922570D01*
X454938Y922512D01*
X454880Y922471D01*
X454700Y922281D01*
X454662Y922221D01*
X454607Y922177D01*
X454437Y921977D01*
X454403Y921916D01*
X454350Y921870D01*
X454190Y921660D01*
X454172Y921623D01*
X454142Y921595D01*
X453993Y921385D01*
X453946Y921282D01*
X453870Y921198D01*
X453740Y920977D01*
X453732Y920954D01*
X453715Y920934D01*
X453585Y920704D01*
X453551Y920599D01*
X453486Y920509D01*
X453376Y920269D01*
X453365Y920224D01*
X453340Y920186D01*
X453240Y919946D01*
X453227Y919883D01*
X453193Y919827D01*
X453103Y919577D01*
X453089Y919483D01*
X453046Y919398D01*
X452976Y919148D01*
X452972Y919099D01*
X452952Y919054D01*
X452892Y918804D01*
X452889Y918745D01*
X452867Y918689D01*
X452817Y918429D01*
X452817Y918331D01*
X452787Y918237D01*
X452757Y917977D01*
X452761Y917927D01*
X452748Y917878D01*
X452728Y917618D01*
X452734Y917567D01*
X452722Y917516D01*
X452712Y917246D01*
X452720Y917198D01*
X452710Y917150D01*
Y911650D01*
X452720Y911600D01*
X452712Y911550D01*
X452722Y911290D01*
X452734Y911241D01*
X452728Y911191D01*
X452748Y910931D01*
X452761Y910883D01*
X452757Y910833D01*
X452787Y910573D01*
X452817Y910479D01*
X452817Y910381D01*
X452867Y910121D01*
X452889Y910065D01*
X452892Y910006D01*
X452952Y909756D01*
X452967Y909723D01*
X452969Y909687D01*
X453039Y909427D01*
X453095Y909314D01*
X453115Y909191D01*
X453205Y908951D01*
X453230Y908911D01*
X453240Y908864D01*
X453340Y908624D01*
X453365Y908586D01*
X453376Y908541D01*
X453486Y908301D01*
X453551Y908211D01*
X453586Y908106D01*
X453716Y907876D01*
X453760Y907824D01*
X453785Y907759D01*
X453925Y907540D01*
X453925Y907540D01*
X454065Y907320D01*
X454142Y907240D01*
X454190Y907140D01*
X454350Y906930D01*
X454403Y906884D01*
X454437Y906823D01*
X454607Y906623D01*
X454662Y906579D01*
X454700Y906519D01*
X454880Y906329D01*
X454938Y906288D01*
X454979Y906230D01*
X455169Y906050D01*
X455229Y906012D01*
X455273Y905957D01*
X455473Y905787D01*
X455534Y905753D01*
X455580Y905700D01*
X455790Y905540D01*
X455890Y905491D01*
X455970Y905415D01*
X456190Y905275D01*
X456409Y905135D01*
X456474Y905110D01*
X456526Y905065D01*
X456756Y904936D01*
X456861Y904901D01*
X456951Y904836D01*
X457191Y904726D01*
X457236Y904715D01*
X457274Y904689D01*
X457514Y904589D01*
X457560Y904580D01*
X457601Y904555D01*
X457841Y904465D01*
X457964Y904445D01*
X458077Y904389D01*
X458337Y904319D01*
X458373Y904317D01*
X458406Y904302D01*
X458656Y904242D01*
X458715Y904239D01*
X458771Y904217D01*
X459030Y904167D01*
Y906815D01*
X459010Y906820D01*
X458750Y906890D01*
X458510Y906980D01*
X458270Y907080D01*
X458030Y907190D01*
X457800Y907320D01*
X457580Y907460D01*
X457360Y907600D01*
X457150Y907760D01*
X456950Y907930D01*
X456760Y908110D01*
X456580Y908300D01*
X456410Y908500D01*
X456250Y908710D01*
X456110Y908930D01*
X455970Y909150D01*
X455840Y909380D01*
X455730Y909620D01*
X455630Y909860D01*
X455540Y910100D01*
X455470Y910360D01*
X455410Y910610D01*
X455360Y910870D01*
X455330Y911130D01*
X455310Y911390D01*
X455300Y911650D01*
Y917150D01*
X455310Y917420D01*
X455330Y917680D01*
X455360Y917940D01*
X455410Y918200D01*
X455470Y918450D01*
X455540Y918700D01*
X455630Y918950D01*
X455730Y919190D01*
X455840Y919430D01*
X455970Y919660D01*
X456100Y919880D01*
X456250Y920090D01*
X456410Y920300D01*
X456580Y920500D01*
X456760Y920690D01*
X456950Y920870D01*
X457150Y921040D01*
X457360Y921200D01*
X457570Y921350D01*
X457790Y921480D01*
X458020Y921610D01*
X458260Y921720D01*
X458500Y921820D01*
X458750Y921910D01*
X459000Y921980D01*
X459030Y921987D01*
Y924633D01*
X459021Y924633D01*
D02*
G37*
G36*
X503080Y895298D02*
X497840D01*
Y883920D01*
X515561D01*
X515297Y885924D01*
X514034Y888974D01*
X512024Y891594D01*
X509404Y893604D01*
X506354Y894867D01*
X503080Y895298D01*
D02*
G37*
G36*
X495300D02*
X490060D01*
X486786Y894867D01*
X483736Y893604D01*
X481116Y891594D01*
X479106Y888974D01*
X477843Y885924D01*
X477579Y883920D01*
X495300D01*
Y895298D01*
D02*
G37*
G36*
X515561Y881380D02*
X497840D01*
Y870002D01*
X503080D01*
X506354Y870433D01*
X509404Y871696D01*
X512024Y873706D01*
X514034Y876326D01*
X515297Y879376D01*
X515561Y881380D01*
D02*
G37*
G36*
X495300D02*
X477579D01*
X477843Y879376D01*
X479106Y876326D01*
X481116Y873706D01*
X483736Y871696D01*
X486786Y870433D01*
X490060Y870002D01*
X495300D01*
Y881380D01*
D02*
G37*
G36*
X602463Y873231D02*
X591033D01*
Y858151D01*
X602463D01*
Y873231D01*
D02*
G37*
G36*
X583463D02*
X572033D01*
Y858151D01*
X583463D01*
Y873231D01*
D02*
G37*
G36*
X451340Y866622D02*
Y848920D01*
X461710D01*
Y855150D01*
X461313Y858163D01*
X460150Y860970D01*
X458300Y863380D01*
X455890Y865230D01*
X453083Y866393D01*
X451340Y866622D01*
D02*
G37*
G36*
X448800D02*
X447057Y866393D01*
X444250Y865230D01*
X441840Y863380D01*
X439990Y860970D01*
X438827Y858163D01*
X438430Y855150D01*
Y848920D01*
X448800D01*
Y866622D01*
D02*
G37*
G36*
X791445Y839470D02*
X791210D01*
Y829310D01*
X801370D01*
Y829545D01*
X800591Y832452D01*
X799086Y835058D01*
X796958Y837186D01*
X794352Y838691D01*
X791445Y839470D01*
D02*
G37*
G36*
X788670D02*
X788435D01*
X785528Y838691D01*
X782922Y837186D01*
X780794Y835058D01*
X779289Y832452D01*
X778510Y829545D01*
Y829310D01*
X788670D01*
Y839470D01*
D02*
G37*
G36*
X766045D02*
X765810D01*
Y829310D01*
X775970D01*
Y829545D01*
X775191Y832452D01*
X773686Y835058D01*
X771558Y837186D01*
X768952Y838691D01*
X766045Y839470D01*
D02*
G37*
G36*
X763270D02*
X763035D01*
X760128Y838691D01*
X757522Y837186D01*
X755394Y835058D01*
X753889Y832452D01*
X753110Y829545D01*
Y829310D01*
X763270D01*
Y839470D01*
D02*
G37*
G36*
X740645D02*
X740410D01*
Y829310D01*
X750570D01*
Y829545D01*
X749791Y832452D01*
X748286Y835058D01*
X746158Y837186D01*
X743552Y838691D01*
X740645Y839470D01*
D02*
G37*
G36*
X737870D02*
X737635D01*
X734728Y838691D01*
X732122Y837186D01*
X729994Y835058D01*
X728489Y832452D01*
X727710Y829545D01*
Y829310D01*
X737870D01*
Y839470D01*
D02*
G37*
G36*
X461710Y846380D02*
X451340D01*
Y828678D01*
X453083Y828907D01*
X455890Y830070D01*
X458300Y831920D01*
X460150Y834330D01*
X461313Y837137D01*
X461710Y840150D01*
Y846380D01*
D02*
G37*
G36*
X448800D02*
X438430D01*
Y840150D01*
X438827Y837137D01*
X439990Y834330D01*
X441840Y831920D01*
X444250Y830070D01*
X447057Y828907D01*
X448800Y828678D01*
Y846380D01*
D02*
G37*
G36*
X801370Y826770D02*
X791210D01*
Y816610D01*
X791445D01*
X794352Y817389D01*
X796958Y818894D01*
X799086Y821022D01*
X800591Y823628D01*
X801370Y826535D01*
Y826770D01*
D02*
G37*
G36*
X788670D02*
X778510D01*
Y826535D01*
X779289Y823628D01*
X780794Y821022D01*
X782922Y818894D01*
X785528Y817389D01*
X788435Y816610D01*
X788670D01*
Y826770D01*
D02*
G37*
G36*
X775970D02*
X765810D01*
Y816610D01*
X766045D01*
X768952Y817389D01*
X771558Y818894D01*
X773686Y821022D01*
X775191Y823628D01*
X775970Y826535D01*
Y826770D01*
D02*
G37*
G36*
X763270D02*
X753110D01*
Y826535D01*
X753889Y823628D01*
X755394Y821022D01*
X757522Y818894D01*
X760128Y817389D01*
X763035Y816610D01*
X763270D01*
Y826770D01*
D02*
G37*
G36*
X750570D02*
X740410D01*
Y816610D01*
X740645D01*
X743552Y817389D01*
X746158Y818894D01*
X748286Y821022D01*
X749791Y823628D01*
X750570Y826535D01*
Y826770D01*
D02*
G37*
G36*
X737870D02*
X727710D01*
Y826535D01*
X728489Y823628D01*
X729994Y821022D01*
X732122Y818894D01*
X734728Y817389D01*
X737635Y816610D01*
X737870D01*
Y826770D01*
D02*
G37*
G36*
X715245Y839470D02*
X712235D01*
X709328Y838691D01*
X706722Y837186D01*
X704594Y835058D01*
X703089Y832452D01*
X702310Y829545D01*
Y826535D01*
X703089Y823628D01*
X704594Y821022D01*
X706722Y818894D01*
X709328Y817389D01*
X712235Y816610D01*
X715245D01*
X718152Y817389D01*
X720758Y818894D01*
X722886Y821022D01*
X724391Y823628D01*
X725170Y826535D01*
Y829545D01*
X724391Y832452D01*
X722886Y835058D01*
X720758Y837186D01*
X718152Y838691D01*
X715245Y839470D01*
D02*
G37*
G36*
X503080Y835298D02*
X490060D01*
X486786Y834867D01*
X483736Y833604D01*
X481116Y831594D01*
X479106Y828974D01*
X477843Y825924D01*
X477412Y822650D01*
X477843Y819376D01*
X479106Y816326D01*
X481116Y813706D01*
X483736Y811696D01*
X486786Y810433D01*
X490060Y810002D01*
X503080D01*
X506354Y810433D01*
X509404Y811696D01*
X512024Y813706D01*
X514034Y816326D01*
X515297Y819376D01*
X515728Y822650D01*
X515297Y825924D01*
X514034Y828974D01*
X512024Y831594D01*
X509404Y833604D01*
X506354Y834867D01*
X503080Y835298D01*
D02*
G37*
G36*
X791445Y793750D02*
X791210D01*
Y783590D01*
X801370D01*
Y783825D01*
X800591Y786732D01*
X799086Y789338D01*
X796958Y791466D01*
X794352Y792971D01*
X791445Y793750D01*
D02*
G37*
G36*
X788670D02*
X788435D01*
X785528Y792971D01*
X782922Y791466D01*
X780794Y789338D01*
X779289Y786732D01*
X778510Y783825D01*
Y783590D01*
X788670D01*
Y793750D01*
D02*
G37*
G36*
X766045D02*
X765810D01*
Y783590D01*
X775970D01*
Y783825D01*
X775191Y786732D01*
X773686Y789338D01*
X771558Y791466D01*
X768952Y792971D01*
X766045Y793750D01*
D02*
G37*
G36*
X763270D02*
X763035D01*
X760128Y792971D01*
X757522Y791466D01*
X755394Y789338D01*
X753889Y786732D01*
X753110Y783825D01*
Y783590D01*
X763270D01*
Y793750D01*
D02*
G37*
G36*
X740645D02*
X740410D01*
Y783590D01*
X750570D01*
Y783825D01*
X749791Y786732D01*
X748286Y789338D01*
X746158Y791466D01*
X743552Y792971D01*
X740645Y793750D01*
D02*
G37*
G36*
X737870D02*
X737635D01*
X734728Y792971D01*
X732122Y791466D01*
X729994Y789338D01*
X728489Y786732D01*
X727710Y783825D01*
Y783590D01*
X737870D01*
Y793750D01*
D02*
G37*
G36*
X801370Y781050D02*
X791210D01*
Y770890D01*
X791445D01*
X794352Y771669D01*
X796958Y773174D01*
X799086Y775302D01*
X800591Y777908D01*
X801370Y780815D01*
Y781050D01*
D02*
G37*
G36*
X788670D02*
X778510D01*
Y780815D01*
X779289Y777908D01*
X780794Y775302D01*
X782922Y773174D01*
X785528Y771669D01*
X788435Y770890D01*
X788670D01*
Y781050D01*
D02*
G37*
G36*
X775970D02*
X765810D01*
Y770890D01*
X766045D01*
X768952Y771669D01*
X771558Y773174D01*
X773686Y775302D01*
X775191Y777908D01*
X775970Y780815D01*
Y781050D01*
D02*
G37*
G36*
X763270D02*
X753110D01*
Y780815D01*
X753889Y777908D01*
X755394Y775302D01*
X757522Y773174D01*
X760128Y771669D01*
X763035Y770890D01*
X763270D01*
Y781050D01*
D02*
G37*
G36*
X750570D02*
X740410D01*
Y770890D01*
X740645D01*
X743552Y771669D01*
X746158Y773174D01*
X748286Y775302D01*
X749791Y777908D01*
X750570Y780815D01*
Y781050D01*
D02*
G37*
G36*
X737870D02*
X727710D01*
Y780815D01*
X728489Y777908D01*
X729994Y775302D01*
X732122Y773174D01*
X734728Y771669D01*
X737635Y770890D01*
X737870D01*
Y781050D01*
D02*
G37*
G36*
X715245Y793750D02*
X712235D01*
X709328Y792971D01*
X706722Y791466D01*
X704594Y789338D01*
X703089Y786732D01*
X702310Y783825D01*
Y780815D01*
X703089Y777908D01*
X704594Y775302D01*
X706722Y773174D01*
X709328Y771669D01*
X712235Y770890D01*
X715245D01*
X718152Y771669D01*
X720758Y773174D01*
X722886Y775302D01*
X724391Y777908D01*
X725170Y780815D01*
Y783825D01*
X724391Y786732D01*
X722886Y789338D01*
X720758Y791466D01*
X718152Y792971D01*
X715245Y793750D01*
D02*
G37*
G36*
X599571Y763496D02*
X596769D01*
X594063Y762771D01*
X591637Y761370D01*
X589656Y759389D01*
X588255Y756963D01*
X587530Y754257D01*
Y751455D01*
X588255Y748749D01*
X589656Y746323D01*
X591637Y744342D01*
X594063Y742941D01*
X596769Y742216D01*
X599571D01*
X602277Y742941D01*
X604703Y744342D01*
X606684Y746323D01*
X608085Y748749D01*
X608810Y751455D01*
Y754257D01*
X608085Y756963D01*
X606684Y759389D01*
X604703Y761370D01*
X602277Y762771D01*
X599571Y763496D01*
D02*
G37*
G36*
X574171D02*
X571369D01*
X568663Y762771D01*
X566237Y761370D01*
X564256Y759389D01*
X562855Y756963D01*
X562130Y754257D01*
Y751455D01*
X562855Y748749D01*
X564256Y746323D01*
X566237Y744342D01*
X568663Y742941D01*
X571369Y742216D01*
X574171D01*
X576877Y742941D01*
X579303Y744342D01*
X581284Y746323D01*
X582685Y748749D01*
X583410Y751455D01*
Y754257D01*
X582685Y756963D01*
X581284Y759389D01*
X579303Y761370D01*
X576877Y762771D01*
X574171Y763496D01*
D02*
G37*
G36*
X421771D02*
X418969D01*
X416263Y762771D01*
X413837Y761370D01*
X411856Y759389D01*
X410455Y756963D01*
X409730Y754257D01*
Y751455D01*
X410455Y748749D01*
X411856Y746323D01*
X413837Y744342D01*
X416263Y742941D01*
X418969Y742216D01*
X421771D01*
X424477Y742941D01*
X426903Y744342D01*
X428884Y746323D01*
X430285Y748749D01*
X431010Y751455D01*
Y754257D01*
X430285Y756963D01*
X428884Y759389D01*
X426903Y761370D01*
X424477Y762771D01*
X421771Y763496D01*
D02*
G37*
G36*
X396371D02*
X393569D01*
X390863Y762771D01*
X388437Y761370D01*
X386456Y759389D01*
X385055Y756963D01*
X384330Y754257D01*
Y751455D01*
X385055Y748749D01*
X386456Y746323D01*
X388437Y744342D01*
X390863Y742941D01*
X393569Y742216D01*
X396371D01*
X399077Y742941D01*
X401503Y744342D01*
X403484Y746323D01*
X404885Y748749D01*
X405610Y751455D01*
Y754257D01*
X404885Y756963D01*
X403484Y759389D01*
X401503Y761370D01*
X399077Y762771D01*
X396371Y763496D01*
D02*
G37*
G36*
X523391Y763646D02*
X520550D01*
X517805Y762911D01*
X515345Y761490D01*
X513336Y759481D01*
X511915Y757021D01*
X511180Y754277D01*
Y751435D01*
X511915Y748691D01*
X513336Y746231D01*
X515345Y744222D01*
X517805Y742801D01*
X520550Y742066D01*
X523391D01*
X526135Y742801D01*
X528595Y744222D01*
X530604Y746231D01*
X532025Y748691D01*
X532760Y751435D01*
Y754277D01*
X532025Y757021D01*
X530604Y759481D01*
X528595Y761490D01*
X526135Y762911D01*
X523391Y763646D01*
D02*
G37*
G36*
X497990D02*
X495149D01*
X492405Y762911D01*
X489945Y761490D01*
X487936Y759481D01*
X486515Y757021D01*
X485780Y754277D01*
Y751435D01*
X486515Y748691D01*
X487936Y746231D01*
X489945Y744222D01*
X492405Y742801D01*
X495149Y742066D01*
X497990D01*
X500735Y742801D01*
X503195Y744222D01*
X505204Y746231D01*
X506625Y748691D01*
X507360Y751435D01*
Y754277D01*
X506625Y757021D01*
X505204Y759481D01*
X503195Y761490D01*
X500735Y762911D01*
X497990Y763646D01*
D02*
G37*
G36*
X472590D02*
X469749D01*
X467005Y762911D01*
X464545Y761490D01*
X462536Y759481D01*
X461115Y757021D01*
X460380Y754277D01*
Y751435D01*
X461115Y748691D01*
X462536Y746231D01*
X464545Y744222D01*
X467005Y742801D01*
X469749Y742066D01*
X472590D01*
X475335Y742801D01*
X477795Y744222D01*
X479804Y746231D01*
X481225Y748691D01*
X481960Y751435D01*
Y754277D01*
X481225Y757021D01*
X479804Y759481D01*
X477795Y761490D01*
X475335Y762911D01*
X472590Y763646D01*
D02*
G37*
G36*
X736600Y757782D02*
X732468Y757375D01*
X728494Y756170D01*
X724832Y754212D01*
X721622Y751578D01*
X718988Y748368D01*
X717030Y744706D01*
X715825Y740732D01*
X715418Y736600D01*
X715825Y732468D01*
X717030Y728494D01*
X718988Y724832D01*
X721622Y721622D01*
X724832Y718988D01*
X728494Y717030D01*
X732468Y715825D01*
X736600Y715418D01*
X740732Y715825D01*
X744706Y717030D01*
X748368Y718988D01*
X751578Y721622D01*
X754212Y724832D01*
X756170Y728494D01*
X757375Y732468D01*
X757782Y736600D01*
X757375Y740732D01*
X756170Y744706D01*
X754212Y748368D01*
X751578Y751578D01*
X748368Y754212D01*
X744706Y756170D01*
X740732Y757375D01*
X736600Y757782D01*
D02*
G37*
G36*
X254000D02*
X249868Y757375D01*
X245894Y756170D01*
X242232Y754212D01*
X239022Y751578D01*
X236388Y748368D01*
X234430Y744706D01*
X233225Y740732D01*
X232818Y736600D01*
X233225Y732468D01*
X234430Y728494D01*
X236388Y724832D01*
X239022Y721622D01*
X242232Y718988D01*
X245894Y717030D01*
X249868Y715825D01*
X254000Y715418D01*
X258132Y715825D01*
X262106Y717030D01*
X265768Y718988D01*
X268978Y721622D01*
X271612Y724832D01*
X273570Y728494D01*
X274775Y732468D01*
X275182Y736600D01*
X274775Y740732D01*
X273570Y744706D01*
X271612Y748368D01*
X268978Y751578D01*
X265768Y754212D01*
X262106Y756170D01*
X258132Y757375D01*
X254000Y757782D01*
D02*
G37*
G36*
X476485Y715010D02*
X473475D01*
X470568Y714231D01*
X467962Y712726D01*
X465834Y710598D01*
X464772Y708760D01*
X414537D01*
X413619Y709678D01*
X411881Y710681D01*
X409943Y711200D01*
X407937D01*
X405999Y710681D01*
X404261Y709678D01*
X402842Y708259D01*
X401839Y706521D01*
X401320Y704583D01*
Y702577D01*
X401839Y700639D01*
X402842Y698901D01*
X404261Y697483D01*
X405999Y696479D01*
X407937Y695960D01*
X409943D01*
X411881Y696479D01*
X413619Y697483D01*
X414537Y698400D01*
X464772D01*
X465834Y696562D01*
X467962Y694434D01*
X470568Y692929D01*
X473475Y692150D01*
X476485D01*
X479392Y692929D01*
X481998Y694434D01*
X484126Y696562D01*
X485631Y699168D01*
X486410Y702075D01*
Y705085D01*
X485631Y707992D01*
X484126Y710598D01*
X481998Y712726D01*
X479392Y714231D01*
X476485Y715010D01*
D02*
G37*
G36*
X675875D02*
X675640D01*
Y704850D01*
X685800D01*
Y705085D01*
X685021Y707992D01*
X683516Y710598D01*
X681388Y712726D01*
X678782Y714231D01*
X675875Y715010D01*
D02*
G37*
G36*
X673100D02*
X672865D01*
X669958Y714231D01*
X667352Y712726D01*
X665224Y710598D01*
X663719Y707992D01*
X662940Y705085D01*
Y704850D01*
X673100D01*
Y715010D01*
D02*
G37*
G36*
X650475D02*
X650240D01*
Y704850D01*
X660400D01*
Y705085D01*
X659621Y707992D01*
X658116Y710598D01*
X655988Y712726D01*
X653382Y714231D01*
X650475Y715010D01*
D02*
G37*
G36*
X647700D02*
X647465D01*
X644558Y714231D01*
X641952Y712726D01*
X639824Y710598D01*
X638319Y707992D01*
X637540Y705085D01*
Y704850D01*
X647700D01*
Y715010D01*
D02*
G37*
G36*
X625075D02*
X624840D01*
Y704850D01*
X635000D01*
Y705085D01*
X634221Y707992D01*
X632716Y710598D01*
X630588Y712726D01*
X627982Y714231D01*
X625075Y715010D01*
D02*
G37*
G36*
X622300D02*
X622065D01*
X619158Y714231D01*
X616552Y712726D01*
X614424Y710598D01*
X612919Y707992D01*
X612140Y705085D01*
Y704850D01*
X622300D01*
Y715010D01*
D02*
G37*
G36*
X552685D02*
X552450D01*
Y704850D01*
X562610D01*
Y705085D01*
X561831Y707992D01*
X560326Y710598D01*
X558198Y712726D01*
X555592Y714231D01*
X552685Y715010D01*
D02*
G37*
G36*
X549910D02*
X549675D01*
X546768Y714231D01*
X544162Y712726D01*
X542034Y710598D01*
X540529Y707992D01*
X539750Y705085D01*
Y704850D01*
X549910D01*
Y715010D01*
D02*
G37*
G36*
X527285D02*
X527050D01*
Y704850D01*
X537210D01*
Y705085D01*
X536431Y707992D01*
X534926Y710598D01*
X532798Y712726D01*
X530192Y714231D01*
X527285Y715010D01*
D02*
G37*
G36*
X524510D02*
X524275D01*
X521368Y714231D01*
X518762Y712726D01*
X516634Y710598D01*
X515129Y707992D01*
X514350Y705085D01*
Y704850D01*
X524510D01*
Y715010D01*
D02*
G37*
G36*
X501885D02*
X501650D01*
Y704850D01*
X511810D01*
Y705085D01*
X511031Y707992D01*
X509526Y710598D01*
X507398Y712726D01*
X504792Y714231D01*
X501885Y715010D01*
D02*
G37*
G36*
X499110D02*
X498875D01*
X495968Y714231D01*
X493362Y712726D01*
X491234Y710598D01*
X489729Y707992D01*
X488950Y705085D01*
Y704850D01*
X499110D01*
Y715010D01*
D02*
G37*
G36*
X371075Y713486D02*
X370840D01*
Y703326D01*
X381000D01*
Y703561D01*
X380221Y706468D01*
X378716Y709074D01*
X376588Y711202D01*
X373982Y712707D01*
X371075Y713486D01*
D02*
G37*
G36*
X368300D02*
X368065D01*
X365158Y712707D01*
X362552Y711202D01*
X360424Y709074D01*
X358919Y706468D01*
X358140Y703561D01*
Y703326D01*
X368300D01*
Y713486D01*
D02*
G37*
G36*
X345675D02*
X345440D01*
Y703326D01*
X355600D01*
Y703561D01*
X354821Y706468D01*
X353316Y709074D01*
X351188Y711202D01*
X348582Y712707D01*
X345675Y713486D01*
D02*
G37*
G36*
X342900D02*
X342665D01*
X339758Y712707D01*
X337152Y711202D01*
X335024Y709074D01*
X333519Y706468D01*
X332740Y703561D01*
Y703326D01*
X342900D01*
Y713486D01*
D02*
G37*
G36*
X320275D02*
X320040D01*
Y703326D01*
X330200D01*
Y703561D01*
X329421Y706468D01*
X327916Y709074D01*
X325788Y711202D01*
X323182Y712707D01*
X320275Y713486D01*
D02*
G37*
G36*
X317500D02*
X317265D01*
X314358Y712707D01*
X311752Y711202D01*
X309624Y709074D01*
X308119Y706468D01*
X307340Y703561D01*
Y703326D01*
X317500D01*
Y713486D01*
D02*
G37*
G36*
X814138Y711200D02*
X814070D01*
Y702310D01*
X822960D01*
Y702378D01*
X822268Y704962D01*
X820930Y707278D01*
X819038Y709170D01*
X816722Y710508D01*
X814138Y711200D01*
D02*
G37*
G36*
X811530D02*
X811462D01*
X808878Y710508D01*
X806562Y709170D01*
X804670Y707278D01*
X803332Y704962D01*
X802640Y702378D01*
Y702310D01*
X811530D01*
Y711200D01*
D02*
G37*
G36*
X685800Y702310D02*
X675640D01*
Y692150D01*
X675875D01*
X678782Y692929D01*
X681388Y694434D01*
X683516Y696562D01*
X685021Y699168D01*
X685800Y702075D01*
Y702310D01*
D02*
G37*
G36*
X673100D02*
X662940D01*
Y702075D01*
X663719Y699168D01*
X665224Y696562D01*
X667352Y694434D01*
X669958Y692929D01*
X672865Y692150D01*
X673100D01*
Y702310D01*
D02*
G37*
G36*
X660400D02*
X650240D01*
Y692150D01*
X650475D01*
X653382Y692929D01*
X655988Y694434D01*
X658116Y696562D01*
X659621Y699168D01*
X660400Y702075D01*
Y702310D01*
D02*
G37*
G36*
X647700D02*
X637540D01*
Y702075D01*
X638319Y699168D01*
X639824Y696562D01*
X641952Y694434D01*
X644558Y692929D01*
X647465Y692150D01*
X647700D01*
Y702310D01*
D02*
G37*
G36*
X635000D02*
X624840D01*
Y692150D01*
X625075D01*
X627982Y692929D01*
X630588Y694434D01*
X632716Y696562D01*
X634221Y699168D01*
X635000Y702075D01*
Y702310D01*
D02*
G37*
G36*
X622300D02*
X612140D01*
Y702075D01*
X612919Y699168D01*
X614424Y696562D01*
X616552Y694434D01*
X619158Y692929D01*
X622065Y692150D01*
X622300D01*
Y702310D01*
D02*
G37*
G36*
X599675Y715010D02*
X596665D01*
X593758Y714231D01*
X591152Y712726D01*
X589024Y710598D01*
X587519Y707992D01*
X586740Y705085D01*
Y702075D01*
X587519Y699168D01*
X589024Y696562D01*
X591152Y694434D01*
X593758Y692929D01*
X596665Y692150D01*
X599675D01*
X602582Y692929D01*
X605188Y694434D01*
X607316Y696562D01*
X608821Y699168D01*
X609600Y702075D01*
Y705085D01*
X608821Y707992D01*
X607316Y710598D01*
X605188Y712726D01*
X602582Y714231D01*
X599675Y715010D01*
D02*
G37*
G36*
X562610Y702310D02*
X552450D01*
Y692150D01*
X552685D01*
X555592Y692929D01*
X558198Y694434D01*
X560326Y696562D01*
X561831Y699168D01*
X562610Y702075D01*
Y702310D01*
D02*
G37*
G36*
X549910D02*
X539750D01*
Y702075D01*
X540529Y699168D01*
X542034Y696562D01*
X544162Y694434D01*
X546768Y692929D01*
X549675Y692150D01*
X549910D01*
Y702310D01*
D02*
G37*
G36*
X537210D02*
X527050D01*
Y692150D01*
X527285D01*
X530192Y692929D01*
X532798Y694434D01*
X534926Y696562D01*
X536431Y699168D01*
X537210Y702075D01*
Y702310D01*
D02*
G37*
G36*
X524510D02*
X514350D01*
Y702075D01*
X515129Y699168D01*
X516634Y696562D01*
X518762Y694434D01*
X521368Y692929D01*
X524275Y692150D01*
X524510D01*
Y702310D01*
D02*
G37*
G36*
X511810D02*
X501650D01*
Y692150D01*
X501885D01*
X504792Y692929D01*
X507398Y694434D01*
X509526Y696562D01*
X511031Y699168D01*
X511810Y702075D01*
Y702310D01*
D02*
G37*
G36*
X499110D02*
X488950D01*
Y702075D01*
X489729Y699168D01*
X491234Y696562D01*
X493362Y694434D01*
X495968Y692929D01*
X498875Y692150D01*
X499110D01*
Y702310D01*
D02*
G37*
G36*
X822960Y699770D02*
X814070D01*
Y690880D01*
X814138D01*
X816722Y691572D01*
X819038Y692910D01*
X820930Y694802D01*
X822268Y697118D01*
X822960Y699702D01*
Y699770D01*
D02*
G37*
G36*
X811530D02*
X802640D01*
Y699702D01*
X803332Y697118D01*
X804670Y694802D01*
X806562Y692910D01*
X808878Y691572D01*
X811462Y690880D01*
X811530D01*
Y699770D01*
D02*
G37*
G36*
X737938Y711200D02*
X735262D01*
X732678Y710508D01*
X730362Y709170D01*
X728470Y707278D01*
X727132Y704962D01*
X726440Y702378D01*
Y699702D01*
X727132Y697118D01*
X728470Y694802D01*
X730362Y692910D01*
X732678Y691572D01*
X735262Y690880D01*
X737938D01*
X740522Y691572D01*
X742838Y692910D01*
X744730Y694802D01*
X746068Y697118D01*
X746760Y699702D01*
Y702378D01*
X746068Y704962D01*
X744730Y707278D01*
X742838Y709170D01*
X740522Y710508D01*
X737938Y711200D01*
D02*
G37*
G36*
X381000Y700786D02*
X370840D01*
Y690626D01*
X371075D01*
X373982Y691405D01*
X376588Y692910D01*
X378716Y695038D01*
X380221Y697644D01*
X381000Y700551D01*
Y700786D01*
D02*
G37*
G36*
X368300D02*
X358140D01*
Y700551D01*
X358919Y697644D01*
X360424Y695038D01*
X362552Y692910D01*
X365158Y691405D01*
X368065Y690626D01*
X368300D01*
Y700786D01*
D02*
G37*
G36*
X355600D02*
X345440D01*
Y690626D01*
X345675D01*
X348582Y691405D01*
X351188Y692910D01*
X353316Y695038D01*
X354821Y697644D01*
X355600Y700551D01*
Y700786D01*
D02*
G37*
G36*
X342900D02*
X332740D01*
Y700551D01*
X333519Y697644D01*
X335024Y695038D01*
X337152Y692910D01*
X339758Y691405D01*
X342665Y690626D01*
X342900D01*
Y700786D01*
D02*
G37*
G36*
X330200D02*
X320040D01*
Y690626D01*
X320275D01*
X323182Y691405D01*
X325788Y692910D01*
X327916Y695038D01*
X329421Y697644D01*
X330200Y700551D01*
Y700786D01*
D02*
G37*
G36*
X317500D02*
X307340D01*
Y700551D01*
X308119Y697644D01*
X309624Y695038D01*
X311752Y692910D01*
X314358Y691405D01*
X317265Y690626D01*
X317500D01*
Y700786D01*
D02*
G37*
G36*
X294875Y713486D02*
X291865D01*
X288958Y712707D01*
X286352Y711202D01*
X284224Y709074D01*
X282719Y706468D01*
X281940Y703561D01*
Y700551D01*
X282719Y697644D01*
X284224Y695038D01*
X286352Y692910D01*
X288958Y691405D01*
X291865Y690626D01*
X294875D01*
X297782Y691405D01*
X300388Y692910D01*
X302516Y695038D01*
X304021Y697644D01*
X304800Y700551D01*
Y703561D01*
X304021Y706468D01*
X302516Y709074D01*
X300388Y711202D01*
X297782Y712707D01*
X294875Y713486D01*
D02*
G37*
G36*
X737938Y685800D02*
X735262D01*
X732678Y685108D01*
X730362Y683770D01*
X728470Y681878D01*
X727745Y680623D01*
X693514D01*
X693185Y681417D01*
X691577Y683025D01*
X689477Y683895D01*
X687203D01*
X685103Y683025D01*
X683495Y681417D01*
X682625Y679317D01*
Y677043D01*
X683495Y674943D01*
X685103Y673335D01*
X687203Y672465D01*
X689477D01*
X691577Y673335D01*
X692132Y673890D01*
X726551D01*
X727132Y671718D01*
X728470Y669402D01*
X730362Y667510D01*
X732678Y666172D01*
X735262Y665480D01*
X737938D01*
X740522Y666172D01*
X742838Y667510D01*
X744730Y669402D01*
X746068Y671718D01*
X746760Y674302D01*
Y676978D01*
X746068Y679562D01*
X744730Y681878D01*
X742838Y683770D01*
X740522Y685108D01*
X737938Y685800D01*
D02*
G37*
G36*
X814138D02*
X814070D01*
Y676910D01*
X822960D01*
Y676978D01*
X822268Y679562D01*
X820930Y681878D01*
X819038Y683770D01*
X816722Y685108D01*
X814138Y685800D01*
D02*
G37*
G36*
X811530D02*
X811462D01*
X808878Y685108D01*
X806562Y683770D01*
X804670Y681878D01*
X803332Y679562D01*
X802640Y676978D01*
Y676910D01*
X811530D01*
Y685800D01*
D02*
G37*
G36*
X822960Y674370D02*
X814070D01*
Y665480D01*
X814138D01*
X816722Y666172D01*
X819038Y667510D01*
X820930Y669402D01*
X822268Y671718D01*
X822960Y674302D01*
Y674370D01*
D02*
G37*
G36*
X811530D02*
X802640D01*
Y674302D01*
X803332Y671718D01*
X804670Y669402D01*
X806562Y667510D01*
X808878Y666172D01*
X811462Y665480D01*
X811530D01*
Y674370D01*
D02*
G37*
G36*
X675915Y667020D02*
X675680D01*
Y656860D01*
X685840D01*
Y657095D01*
X685061Y660002D01*
X683556Y662608D01*
X681428Y664736D01*
X678822Y666241D01*
X675915Y667020D01*
D02*
G37*
G36*
X673140D02*
X672905D01*
X669998Y666241D01*
X667392Y664736D01*
X665264Y662608D01*
X663759Y660002D01*
X662980Y657095D01*
Y656860D01*
X673140D01*
Y667020D01*
D02*
G37*
G36*
X650515D02*
X650280D01*
Y656860D01*
X660440D01*
Y657095D01*
X659661Y660002D01*
X658156Y662608D01*
X656028Y664736D01*
X653422Y666241D01*
X650515Y667020D01*
D02*
G37*
G36*
X647740D02*
X647505D01*
X644598Y666241D01*
X641992Y664736D01*
X639864Y662608D01*
X638359Y660002D01*
X637580Y657095D01*
Y656860D01*
X647740D01*
Y667020D01*
D02*
G37*
G36*
X625115D02*
X624880D01*
Y656860D01*
X635040D01*
Y657095D01*
X634261Y660002D01*
X632756Y662608D01*
X630628Y664736D01*
X628022Y666241D01*
X625115Y667020D01*
D02*
G37*
G36*
X622340D02*
X622105D01*
X619198Y666241D01*
X616592Y664736D01*
X614464Y662608D01*
X612959Y660002D01*
X612180Y657095D01*
Y656860D01*
X622340D01*
Y667020D01*
D02*
G37*
G36*
X552685Y666750D02*
X552450D01*
Y656590D01*
X562610D01*
Y656825D01*
X561831Y659732D01*
X560326Y662338D01*
X558198Y664466D01*
X555592Y665971D01*
X552685Y666750D01*
D02*
G37*
G36*
X549910D02*
X549675D01*
X546768Y665971D01*
X544162Y664466D01*
X542034Y662338D01*
X540529Y659732D01*
X539750Y656825D01*
Y656590D01*
X549910D01*
Y666750D01*
D02*
G37*
G36*
X527285D02*
X527050D01*
Y656590D01*
X537210D01*
Y656825D01*
X536431Y659732D01*
X534926Y662338D01*
X532798Y664466D01*
X530192Y665971D01*
X527285Y666750D01*
D02*
G37*
G36*
X524510D02*
X524275D01*
X521368Y665971D01*
X518762Y664466D01*
X516634Y662338D01*
X515129Y659732D01*
X514350Y656825D01*
Y656590D01*
X524510D01*
Y666750D01*
D02*
G37*
G36*
X501885D02*
X501650D01*
Y656590D01*
X511810D01*
Y656825D01*
X511031Y659732D01*
X509526Y662338D01*
X507398Y664466D01*
X504792Y665971D01*
X501885Y666750D01*
D02*
G37*
G36*
X499110D02*
X498875D01*
X495968Y665971D01*
X493362Y664466D01*
X491234Y662338D01*
X489729Y659732D01*
X488950Y656825D01*
Y656590D01*
X499110D01*
Y666750D01*
D02*
G37*
G36*
X372091D02*
X371856D01*
Y656590D01*
X382016D01*
Y656825D01*
X381237Y659732D01*
X379732Y662338D01*
X377604Y664466D01*
X374998Y665971D01*
X372091Y666750D01*
D02*
G37*
G36*
X369316D02*
X369081D01*
X366174Y665971D01*
X363568Y664466D01*
X361440Y662338D01*
X359935Y659732D01*
X359156Y656825D01*
Y656590D01*
X369316D01*
Y666750D01*
D02*
G37*
G36*
X346691D02*
X346456D01*
Y656590D01*
X356616D01*
Y656825D01*
X355837Y659732D01*
X354332Y662338D01*
X352204Y664466D01*
X349598Y665971D01*
X346691Y666750D01*
D02*
G37*
G36*
X343916D02*
X343681D01*
X340774Y665971D01*
X338168Y664466D01*
X336040Y662338D01*
X334535Y659732D01*
X333756Y656825D01*
Y656590D01*
X343916D01*
Y666750D01*
D02*
G37*
G36*
X321291D02*
X321056D01*
Y656590D01*
X331216D01*
Y656825D01*
X330437Y659732D01*
X328932Y662338D01*
X326804Y664466D01*
X324198Y665971D01*
X321291Y666750D01*
D02*
G37*
G36*
X318516D02*
X318281D01*
X315374Y665971D01*
X312768Y664466D01*
X310640Y662338D01*
X309135Y659732D01*
X308356Y656825D01*
Y656590D01*
X318516D01*
Y666750D01*
D02*
G37*
G36*
X814138Y660400D02*
X814070D01*
Y651510D01*
X822960D01*
Y651578D01*
X822268Y654162D01*
X820930Y656478D01*
X819038Y658370D01*
X816722Y659708D01*
X814138Y660400D01*
D02*
G37*
G36*
X811530D02*
X811462D01*
X808878Y659708D01*
X806562Y658370D01*
X804670Y656478D01*
X803332Y654162D01*
X802640Y651578D01*
Y651510D01*
X811530D01*
Y660400D01*
D02*
G37*
G36*
X685840Y654320D02*
X675680D01*
Y644160D01*
X675915D01*
X678822Y644939D01*
X681428Y646444D01*
X683556Y648572D01*
X685061Y651178D01*
X685840Y654085D01*
Y654320D01*
D02*
G37*
G36*
X673140D02*
X662980D01*
Y654085D01*
X663759Y651178D01*
X665264Y648572D01*
X667392Y646444D01*
X669998Y644939D01*
X672905Y644160D01*
X673140D01*
Y654320D01*
D02*
G37*
G36*
X660440D02*
X650280D01*
Y644160D01*
X650515D01*
X653422Y644939D01*
X656028Y646444D01*
X658156Y648572D01*
X659661Y651178D01*
X660440Y654085D01*
Y654320D01*
D02*
G37*
G36*
X647740D02*
X637580D01*
Y654085D01*
X638359Y651178D01*
X639864Y648572D01*
X641992Y646444D01*
X644598Y644939D01*
X647505Y644160D01*
X647740D01*
Y654320D01*
D02*
G37*
G36*
X635040D02*
X624880D01*
Y644160D01*
X625115D01*
X628022Y644939D01*
X630628Y646444D01*
X632756Y648572D01*
X634261Y651178D01*
X635040Y654085D01*
Y654320D01*
D02*
G37*
G36*
X622340D02*
X612180D01*
Y654085D01*
X612959Y651178D01*
X614464Y648572D01*
X616592Y646444D01*
X619198Y644939D01*
X622105Y644160D01*
X622340D01*
Y654320D01*
D02*
G37*
G36*
X599715Y667020D02*
X596705D01*
X593798Y666241D01*
X591192Y664736D01*
X589064Y662608D01*
X587559Y660002D01*
X586780Y657095D01*
Y654085D01*
X587559Y651178D01*
X589064Y648572D01*
X591192Y646444D01*
X593798Y644939D01*
X596705Y644160D01*
X599715D01*
X602622Y644939D01*
X605228Y646444D01*
X607356Y648572D01*
X608861Y651178D01*
X609640Y654085D01*
Y657095D01*
X608861Y660002D01*
X607356Y662608D01*
X605228Y664736D01*
X602622Y666241D01*
X599715Y667020D01*
D02*
G37*
G36*
X562610Y654050D02*
X552450D01*
Y643890D01*
X552685D01*
X555592Y644669D01*
X558198Y646174D01*
X560326Y648302D01*
X561831Y650908D01*
X562610Y653815D01*
Y654050D01*
D02*
G37*
G36*
X549910D02*
X539750D01*
Y653815D01*
X540529Y650908D01*
X542034Y648302D01*
X544162Y646174D01*
X546768Y644669D01*
X549675Y643890D01*
X549910D01*
Y654050D01*
D02*
G37*
G36*
X537210D02*
X527050D01*
Y643890D01*
X527285D01*
X530192Y644669D01*
X532798Y646174D01*
X534926Y648302D01*
X536431Y650908D01*
X537210Y653815D01*
Y654050D01*
D02*
G37*
G36*
X524510D02*
X514350D01*
Y653815D01*
X515129Y650908D01*
X516634Y648302D01*
X518762Y646174D01*
X521368Y644669D01*
X524275Y643890D01*
X524510D01*
Y654050D01*
D02*
G37*
G36*
X511810D02*
X501650D01*
Y643890D01*
X501885D01*
X504792Y644669D01*
X507398Y646174D01*
X509526Y648302D01*
X511031Y650908D01*
X511810Y653815D01*
Y654050D01*
D02*
G37*
G36*
X499110D02*
X488950D01*
Y653815D01*
X489729Y650908D01*
X491234Y648302D01*
X493362Y646174D01*
X495968Y644669D01*
X498875Y643890D01*
X499110D01*
Y654050D01*
D02*
G37*
G36*
X476485Y666750D02*
X473475D01*
X470568Y665971D01*
X467962Y664466D01*
X465834Y662338D01*
X464329Y659732D01*
X463550Y656825D01*
Y653815D01*
X464329Y650908D01*
X465834Y648302D01*
X467962Y646174D01*
X470568Y644669D01*
X473475Y643890D01*
X476485D01*
X479392Y644669D01*
X481998Y646174D01*
X484126Y648302D01*
X485631Y650908D01*
X486410Y653815D01*
Y656825D01*
X485631Y659732D01*
X484126Y662338D01*
X481998Y664466D01*
X479392Y665971D01*
X476485Y666750D01*
D02*
G37*
G36*
X382016Y654050D02*
X371856D01*
Y643890D01*
X372091D01*
X374998Y644669D01*
X377604Y646174D01*
X379732Y648302D01*
X381237Y650908D01*
X382016Y653815D01*
Y654050D01*
D02*
G37*
G36*
X369316D02*
X359156D01*
Y653815D01*
X359935Y650908D01*
X361440Y648302D01*
X363568Y646174D01*
X366174Y644669D01*
X369081Y643890D01*
X369316D01*
Y654050D01*
D02*
G37*
G36*
X356616D02*
X346456D01*
Y643890D01*
X346691D01*
X349598Y644669D01*
X352204Y646174D01*
X354332Y648302D01*
X355837Y650908D01*
X356616Y653815D01*
Y654050D01*
D02*
G37*
G36*
X343916D02*
X333756D01*
Y653815D01*
X334535Y650908D01*
X336040Y648302D01*
X338168Y646174D01*
X340774Y644669D01*
X343681Y643890D01*
X343916D01*
Y654050D01*
D02*
G37*
G36*
X331216D02*
X321056D01*
Y643890D01*
X321291D01*
X324198Y644669D01*
X326804Y646174D01*
X328932Y648302D01*
X330437Y650908D01*
X331216Y653815D01*
Y654050D01*
D02*
G37*
G36*
X318516D02*
X308356D01*
Y653815D01*
X309135Y650908D01*
X310640Y648302D01*
X312768Y646174D01*
X315374Y644669D01*
X318281Y643890D01*
X318516D01*
Y654050D01*
D02*
G37*
G36*
X295891Y666750D02*
X292881D01*
X289974Y665971D01*
X287368Y664466D01*
X285240Y662338D01*
X283735Y659732D01*
X282956Y656825D01*
Y653815D01*
X283735Y650908D01*
X285240Y648302D01*
X287368Y646174D01*
X289974Y644669D01*
X292881Y643890D01*
X295891D01*
X298798Y644669D01*
X301404Y646174D01*
X303532Y648302D01*
X305037Y650908D01*
X305816Y653815D01*
Y656825D01*
X305037Y659732D01*
X303532Y662338D01*
X301404Y664466D01*
X298798Y665971D01*
X295891Y666750D01*
D02*
G37*
G36*
X822960Y648970D02*
X814070D01*
Y640080D01*
X814138D01*
X816722Y640772D01*
X819038Y642110D01*
X820930Y644002D01*
X822268Y646318D01*
X822960Y648902D01*
Y648970D01*
D02*
G37*
G36*
X811530D02*
X802640D01*
Y648902D01*
X803332Y646318D01*
X804670Y644002D01*
X806562Y642110D01*
X808878Y640772D01*
X811462Y640080D01*
X811530D01*
Y648970D01*
D02*
G37*
G36*
X737938Y660400D02*
X735262D01*
X732678Y659708D01*
X730362Y658370D01*
X728470Y656478D01*
X727132Y654162D01*
X726440Y651578D01*
Y648902D01*
X727132Y646318D01*
X728470Y644002D01*
X730362Y642110D01*
X732678Y640772D01*
X735262Y640080D01*
X737938D01*
X740522Y640772D01*
X742838Y642110D01*
X744730Y644002D01*
X746068Y646318D01*
X746760Y648902D01*
Y651578D01*
X746068Y654162D01*
X744730Y656478D01*
X742838Y658370D01*
X740522Y659708D01*
X737938Y660400D01*
D02*
G37*
G36*
X814138Y635000D02*
X814070D01*
Y626110D01*
X822960D01*
Y626178D01*
X822268Y628762D01*
X820930Y631078D01*
X819038Y632970D01*
X816722Y634308D01*
X814138Y635000D01*
D02*
G37*
G36*
X737938D02*
X737870D01*
Y626110D01*
X746760D01*
Y626178D01*
X746068Y628762D01*
X744730Y631078D01*
X742838Y632970D01*
X740522Y634308D01*
X737938Y635000D01*
D02*
G37*
G36*
X811530D02*
X811462D01*
X808878Y634308D01*
X806562Y632970D01*
X804670Y631078D01*
X803332Y628762D01*
X802640Y626178D01*
Y626110D01*
X811530D01*
Y635000D01*
D02*
G37*
G36*
X735330D02*
X735262D01*
X732678Y634308D01*
X730362Y632970D01*
X728470Y631078D01*
X727132Y628762D01*
X726440Y626178D01*
Y626110D01*
X735330D01*
Y635000D01*
D02*
G37*
G36*
X822960Y623570D02*
X814070D01*
Y614680D01*
X814138D01*
X816722Y615372D01*
X819038Y616710D01*
X820930Y618602D01*
X822268Y620918D01*
X822960Y623502D01*
Y623570D01*
D02*
G37*
G36*
X811530D02*
X802640D01*
Y623502D01*
X803332Y620918D01*
X804670Y618602D01*
X806562Y616710D01*
X808878Y615372D01*
X811462Y614680D01*
X811530D01*
Y623570D01*
D02*
G37*
G36*
X746760D02*
X737870D01*
Y614680D01*
X737938D01*
X740522Y615372D01*
X742838Y616710D01*
X744730Y618602D01*
X746068Y620918D01*
X746760Y623502D01*
Y623570D01*
D02*
G37*
G36*
X735330D02*
X726440D01*
Y623502D01*
X727132Y620918D01*
X728470Y618602D01*
X730362Y616710D01*
X732678Y615372D01*
X735262Y614680D01*
X735330D01*
Y623570D01*
D02*
G37*
G36*
X179138Y619760D02*
X179070D01*
Y610870D01*
X187960D01*
Y610938D01*
X187268Y613522D01*
X185930Y615838D01*
X184038Y617730D01*
X181722Y619068D01*
X179138Y619760D01*
D02*
G37*
G36*
X176530D02*
X176462D01*
X173878Y619068D01*
X171562Y617730D01*
X169670Y615838D01*
X168332Y613522D01*
X167640Y610938D01*
Y610870D01*
X176530D01*
Y619760D01*
D02*
G37*
G36*
X814138Y609600D02*
X814070D01*
Y600710D01*
X822960D01*
Y600778D01*
X822268Y603362D01*
X820930Y605678D01*
X819038Y607570D01*
X816722Y608908D01*
X814138Y609600D01*
D02*
G37*
G36*
X811530D02*
X811462D01*
X808878Y608908D01*
X806562Y607570D01*
X804670Y605678D01*
X803332Y603362D01*
X802640Y600778D01*
Y600710D01*
X811530D01*
Y609600D01*
D02*
G37*
G36*
X255338Y619760D02*
X252662D01*
X250078Y619068D01*
X247762Y617730D01*
X245870Y615838D01*
X244532Y613522D01*
X243840Y610938D01*
Y608262D01*
X244532Y605678D01*
X245870Y603362D01*
X247762Y601470D01*
X250078Y600132D01*
X252662Y599440D01*
X255338D01*
X257922Y600132D01*
X260238Y601470D01*
X262130Y603362D01*
X263468Y605678D01*
X264160Y608262D01*
Y610938D01*
X263468Y613522D01*
X262130Y615838D01*
X260238Y617730D01*
X257922Y619068D01*
X255338Y619760D01*
D02*
G37*
G36*
X187960Y608330D02*
X179070D01*
Y599440D01*
X179138D01*
X181722Y600132D01*
X184038Y601470D01*
X185930Y603362D01*
X187268Y605678D01*
X187960Y608262D01*
Y608330D01*
D02*
G37*
G36*
X176530D02*
X167640D01*
Y608262D01*
X168332Y605678D01*
X169670Y603362D01*
X171562Y601470D01*
X173878Y600132D01*
X176462Y599440D01*
X176530D01*
Y608330D01*
D02*
G37*
G36*
X822960Y598170D02*
X814070D01*
Y589280D01*
X814138D01*
X816722Y589972D01*
X819038Y591310D01*
X820930Y593202D01*
X822268Y595518D01*
X822960Y598102D01*
Y598170D01*
D02*
G37*
G36*
X811530D02*
X802640D01*
Y598102D01*
X803332Y595518D01*
X804670Y593202D01*
X806562Y591310D01*
X808878Y589972D01*
X811462Y589280D01*
X811530D01*
Y598170D01*
D02*
G37*
G36*
X737938Y609600D02*
X735262D01*
X732678Y608908D01*
X730362Y607570D01*
X728470Y605678D01*
X727132Y603362D01*
X726440Y600778D01*
Y598102D01*
X727132Y595518D01*
X728470Y593202D01*
X730362Y591310D01*
X732678Y589972D01*
X735262Y589280D01*
X737938D01*
X740522Y589972D01*
X742838Y591310D01*
X744730Y593202D01*
X746068Y595518D01*
X746760Y598102D01*
Y600778D01*
X746068Y603362D01*
X744730Y605678D01*
X742838Y607570D01*
X740522Y608908D01*
X737938Y609600D01*
D02*
G37*
G36*
X179138Y594360D02*
X179070D01*
Y585470D01*
X187960D01*
Y585538D01*
X187268Y588122D01*
X185930Y590438D01*
X184038Y592330D01*
X181722Y593668D01*
X179138Y594360D01*
D02*
G37*
G36*
X176530D02*
X176462D01*
X173878Y593668D01*
X171562Y592330D01*
X169670Y590438D01*
X168332Y588122D01*
X167640Y585538D01*
Y585470D01*
X176530D01*
Y594360D01*
D02*
G37*
G36*
X570097Y610235D02*
X567823D01*
X565723Y609365D01*
X564115Y607757D01*
X563245Y605657D01*
Y603566D01*
X552134Y592455D01*
X550043D01*
X547943Y591585D01*
X546335Y589977D01*
X545465Y587877D01*
Y585603D01*
X546335Y583503D01*
X547943Y581895D01*
X550043Y581025D01*
X552317D01*
X554417Y581895D01*
X556025Y583503D01*
X556895Y585603D01*
Y587694D01*
X568006Y598805D01*
X570097D01*
X572197Y599675D01*
X573805Y601283D01*
X574675Y603383D01*
Y605657D01*
X573805Y607757D01*
X572197Y609365D01*
X570097Y610235D01*
D02*
G37*
G36*
X408448Y614905D02*
X406442D01*
X404504Y614386D01*
X402766Y613383D01*
X401347Y611964D01*
X400344Y610226D01*
X399825Y608288D01*
Y606990D01*
X386785Y593950D01*
X385487D01*
X383549Y593431D01*
X381811Y592428D01*
X380392Y591009D01*
X379389Y589271D01*
X378870Y587333D01*
Y585327D01*
X379389Y583389D01*
X380392Y581651D01*
X381811Y580233D01*
X383549Y579229D01*
X385487Y578710D01*
X387493D01*
X389431Y579229D01*
X391169Y580233D01*
X392587Y581651D01*
X393591Y583389D01*
X394110Y585327D01*
Y586625D01*
X407150Y599665D01*
X408448D01*
X410386Y600184D01*
X412124Y601188D01*
X413542Y602606D01*
X414546Y604344D01*
X415065Y606282D01*
Y608288D01*
X414546Y610226D01*
X413542Y611964D01*
X412124Y613383D01*
X410386Y614386D01*
X408448Y614905D01*
D02*
G37*
G36*
X814138Y584200D02*
X814070D01*
Y575310D01*
X822960D01*
Y575378D01*
X822268Y577962D01*
X820930Y580278D01*
X819038Y582170D01*
X816722Y583508D01*
X814138Y584200D01*
D02*
G37*
G36*
X811530D02*
X811462D01*
X808878Y583508D01*
X806562Y582170D01*
X804670Y580278D01*
X803332Y577962D01*
X802640Y575378D01*
Y575310D01*
X811530D01*
Y584200D01*
D02*
G37*
G36*
X255338Y594360D02*
X252662D01*
X250078Y593668D01*
X247762Y592330D01*
X245870Y590438D01*
X244532Y588122D01*
X243840Y585538D01*
Y582862D01*
X244532Y580278D01*
X245870Y577962D01*
X247762Y576070D01*
X250078Y574732D01*
X252662Y574040D01*
X255338D01*
X257922Y574732D01*
X260238Y576070D01*
X262130Y577962D01*
X263468Y580278D01*
X264160Y582862D01*
Y585538D01*
X263468Y588122D01*
X262130Y590438D01*
X260238Y592330D01*
X257922Y593668D01*
X255338Y594360D01*
D02*
G37*
G36*
X187960Y582930D02*
X179070D01*
Y574040D01*
X179138D01*
X181722Y574732D01*
X184038Y576070D01*
X185930Y577962D01*
X187268Y580278D01*
X187960Y582862D01*
Y582930D01*
D02*
G37*
G36*
X176530D02*
X167640D01*
Y582862D01*
X168332Y580278D01*
X169670Y577962D01*
X171562Y576070D01*
X173878Y574732D01*
X176462Y574040D01*
X176530D01*
Y582930D01*
D02*
G37*
G36*
X822960Y572770D02*
X814070D01*
Y563880D01*
X814138D01*
X816722Y564572D01*
X819038Y565910D01*
X820930Y567802D01*
X822268Y570118D01*
X822960Y572702D01*
Y572770D01*
D02*
G37*
G36*
X811530D02*
X802640D01*
Y572702D01*
X803332Y570118D01*
X804670Y567802D01*
X806562Y565910D01*
X808878Y564572D01*
X811462Y563880D01*
X811530D01*
Y572770D01*
D02*
G37*
G36*
X737938Y584200D02*
X735262D01*
X732678Y583508D01*
X730362Y582170D01*
X728470Y580278D01*
X727132Y577962D01*
X726440Y575378D01*
Y572702D01*
X727132Y570118D01*
X728470Y567802D01*
X730362Y565910D01*
X732678Y564572D01*
X735262Y563880D01*
X737938D01*
X740522Y564572D01*
X742838Y565910D01*
X744730Y567802D01*
X746068Y570118D01*
X746760Y572702D01*
Y575378D01*
X746068Y577962D01*
X744730Y580278D01*
X742838Y582170D01*
X740522Y583508D01*
X737938Y584200D01*
D02*
G37*
G36*
X179138Y568960D02*
X179070D01*
Y560070D01*
X187960D01*
Y560138D01*
X187268Y562722D01*
X185930Y565038D01*
X184038Y566930D01*
X181722Y568268D01*
X179138Y568960D01*
D02*
G37*
G36*
X176530D02*
X176462D01*
X173878Y568268D01*
X171562Y566930D01*
X169670Y565038D01*
X168332Y562722D01*
X167640Y560138D01*
Y560070D01*
X176530D01*
Y568960D01*
D02*
G37*
G36*
X255338D02*
X252662D01*
X250078Y568268D01*
X247762Y566930D01*
X245870Y565038D01*
X244532Y562722D01*
X243840Y560138D01*
Y557462D01*
X244532Y554878D01*
X245870Y552562D01*
X247762Y550670D01*
X250078Y549332D01*
X252662Y548640D01*
X255338D01*
X257922Y549332D01*
X260238Y550670D01*
X262130Y552562D01*
X263468Y554878D01*
X263616Y555433D01*
X289163D01*
X290641Y553955D01*
X292741Y553085D01*
X295015D01*
X297115Y553955D01*
X298723Y555563D01*
X299593Y557663D01*
Y559937D01*
X298723Y562037D01*
X297115Y563645D01*
X295015Y564515D01*
X292741D01*
X290641Y563645D01*
X289163Y562167D01*
X263616D01*
X263468Y562722D01*
X262130Y565038D01*
X260238Y566930D01*
X257922Y568268D01*
X255338Y568960D01*
D02*
G37*
G36*
X814138Y558800D02*
X814070D01*
Y549910D01*
X822960D01*
Y549978D01*
X822268Y552562D01*
X820930Y554878D01*
X819038Y556770D01*
X816722Y558108D01*
X814138Y558800D01*
D02*
G37*
G36*
X811530D02*
X811462D01*
X808878Y558108D01*
X806562Y556770D01*
X804670Y554878D01*
X803332Y552562D01*
X802640Y549978D01*
Y549910D01*
X811530D01*
Y558800D01*
D02*
G37*
G36*
X187960Y557530D02*
X179070D01*
Y548640D01*
X179138D01*
X181722Y549332D01*
X184038Y550670D01*
X185930Y552562D01*
X187268Y554878D01*
X187960Y557462D01*
Y557530D01*
D02*
G37*
G36*
X176530D02*
X167640D01*
Y557462D01*
X168332Y554878D01*
X169670Y552562D01*
X171562Y550670D01*
X173878Y549332D01*
X176462Y548640D01*
X176530D01*
Y557530D01*
D02*
G37*
G36*
X822960Y547370D02*
X814070D01*
Y538480D01*
X814138D01*
X816722Y539172D01*
X819038Y540510D01*
X820930Y542402D01*
X822268Y544718D01*
X822960Y547302D01*
Y547370D01*
D02*
G37*
G36*
X811530D02*
X802640D01*
Y547302D01*
X803332Y544718D01*
X804670Y542402D01*
X806562Y540510D01*
X808878Y539172D01*
X811462Y538480D01*
X811530D01*
Y547370D01*
D02*
G37*
G36*
X737938Y558800D02*
X735262D01*
X732678Y558108D01*
X730362Y556770D01*
X728470Y554878D01*
X727132Y552562D01*
X726440Y549978D01*
Y547302D01*
X727132Y544718D01*
X728470Y542402D01*
X730362Y540510D01*
X732678Y539172D01*
X735262Y538480D01*
X737938D01*
X740522Y539172D01*
X742838Y540510D01*
X744730Y542402D01*
X746068Y544718D01*
X746760Y547302D01*
Y549978D01*
X746068Y552562D01*
X744730Y554878D01*
X742838Y556770D01*
X740522Y558108D01*
X737938Y558800D01*
D02*
G37*
G36*
X179138Y543560D02*
X179070D01*
Y534670D01*
X187960D01*
Y534738D01*
X187268Y537322D01*
X185930Y539638D01*
X184038Y541530D01*
X181722Y542868D01*
X179138Y543560D01*
D02*
G37*
G36*
X176530D02*
X176462D01*
X173878Y542868D01*
X171562Y541530D01*
X169670Y539638D01*
X168332Y537322D01*
X167640Y534738D01*
Y534670D01*
X176530D01*
Y543560D01*
D02*
G37*
G36*
X440557Y602615D02*
X438283D01*
X436183Y601745D01*
X434575Y600137D01*
X433705Y598037D01*
Y595946D01*
X389574Y551815D01*
X387483D01*
X385383Y550945D01*
X383775Y549337D01*
X382905Y547237D01*
Y544963D01*
X383775Y542863D01*
X385383Y541255D01*
X387483Y540385D01*
X389757D01*
X390525Y540703D01*
X391497Y539731D01*
X391472Y539670D01*
Y537397D01*
X392342Y535296D01*
X393950Y533688D01*
X396050Y532818D01*
X398324D01*
X400424Y533688D01*
X402032Y535296D01*
X402902Y537397D01*
Y539472D01*
X446533Y583103D01*
X448639D01*
X450740Y583973D01*
X452347Y585580D01*
X453217Y587681D01*
Y589954D01*
X452347Y592055D01*
X450740Y593663D01*
X448639Y594533D01*
X446366D01*
X445924Y594350D01*
X444952Y595322D01*
X445135Y595763D01*
Y598037D01*
X444265Y600137D01*
X442657Y601745D01*
X440557Y602615D01*
D02*
G37*
G36*
X814138Y533400D02*
X814070D01*
Y524510D01*
X822960D01*
Y524578D01*
X822268Y527162D01*
X820930Y529478D01*
X819038Y531370D01*
X816722Y532708D01*
X814138Y533400D01*
D02*
G37*
G36*
X811530D02*
X811462D01*
X808878Y532708D01*
X806562Y531370D01*
X804670Y529478D01*
X803332Y527162D01*
X802640Y524578D01*
Y524510D01*
X811530D01*
Y533400D01*
D02*
G37*
G36*
X255338Y543560D02*
X252662D01*
X250078Y542868D01*
X247762Y541530D01*
X245870Y539638D01*
X244532Y537322D01*
X243840Y534738D01*
Y532062D01*
X244532Y529478D01*
X245870Y527162D01*
X247762Y525270D01*
X250078Y523932D01*
X252662Y523240D01*
X255338D01*
X257922Y523932D01*
X260238Y525270D01*
X262130Y527162D01*
X263468Y529478D01*
X264160Y532062D01*
Y534738D01*
X263468Y537322D01*
X262130Y539638D01*
X260238Y541530D01*
X257922Y542868D01*
X255338Y543560D01*
D02*
G37*
G36*
X187960Y532130D02*
X179070D01*
Y523240D01*
X179138D01*
X181722Y523932D01*
X184038Y525270D01*
X185930Y527162D01*
X187268Y529478D01*
X187960Y532062D01*
Y532130D01*
D02*
G37*
G36*
X176530D02*
X167640D01*
Y532062D01*
X168332Y529478D01*
X169670Y527162D01*
X171562Y525270D01*
X173878Y523932D01*
X176462Y523240D01*
X176530D01*
Y532130D01*
D02*
G37*
G36*
X822960Y521970D02*
X814070D01*
Y513080D01*
X814138D01*
X816722Y513772D01*
X819038Y515110D01*
X820930Y517002D01*
X822268Y519318D01*
X822960Y521902D01*
Y521970D01*
D02*
G37*
G36*
X811530D02*
X802640D01*
Y521902D01*
X803332Y519318D01*
X804670Y517002D01*
X806562Y515110D01*
X808878Y513772D01*
X811462Y513080D01*
X811530D01*
Y521970D01*
D02*
G37*
G36*
X737938Y533400D02*
X735262D01*
X732678Y532708D01*
X730362Y531370D01*
X728470Y529478D01*
X727132Y527162D01*
X726440Y524578D01*
Y521902D01*
X727132Y519318D01*
X728470Y517002D01*
X730362Y515110D01*
X732678Y513772D01*
X735262Y513080D01*
X737938D01*
X740522Y513772D01*
X742838Y515110D01*
X744730Y517002D01*
X746068Y519318D01*
X746760Y521902D01*
Y524578D01*
X746068Y527162D01*
X744730Y529478D01*
X742838Y531370D01*
X740522Y532708D01*
X737938Y533400D01*
D02*
G37*
G36*
X179138Y518160D02*
X179070D01*
Y509270D01*
X187960D01*
Y509338D01*
X187268Y511922D01*
X185930Y514238D01*
X184038Y516130D01*
X181722Y517468D01*
X179138Y518160D01*
D02*
G37*
G36*
X176530D02*
X176462D01*
X173878Y517468D01*
X171562Y516130D01*
X169670Y514238D01*
X168332Y511922D01*
X167640Y509338D01*
Y509270D01*
X176530D01*
Y518160D01*
D02*
G37*
G36*
X814138Y508000D02*
X814070D01*
Y499110D01*
X822960D01*
Y499178D01*
X822268Y501762D01*
X820930Y504078D01*
X819038Y505970D01*
X816722Y507308D01*
X814138Y508000D01*
D02*
G37*
G36*
X811530D02*
X811462D01*
X808878Y507308D01*
X806562Y505970D01*
X804670Y504078D01*
X803332Y501762D01*
X802640Y499178D01*
Y499110D01*
X811530D01*
Y508000D01*
D02*
G37*
G36*
X255338Y518160D02*
X252662D01*
X250078Y517468D01*
X247762Y516130D01*
X245870Y514238D01*
X244532Y511922D01*
X243840Y509338D01*
Y506662D01*
X244532Y504078D01*
X245870Y501762D01*
X247762Y499870D01*
X250078Y498532D01*
X252662Y497840D01*
X255338D01*
X257922Y498532D01*
X260238Y499870D01*
X262130Y501762D01*
X263468Y504078D01*
X264160Y506662D01*
Y509338D01*
X263468Y511922D01*
X262130Y514238D01*
X260238Y516130D01*
X257922Y517468D01*
X255338Y518160D01*
D02*
G37*
G36*
X187960Y506730D02*
X179070D01*
Y497840D01*
X179138D01*
X181722Y498532D01*
X184038Y499870D01*
X185930Y501762D01*
X187268Y504078D01*
X187960Y506662D01*
Y506730D01*
D02*
G37*
G36*
X176530D02*
X167640D01*
Y506662D01*
X168332Y504078D01*
X169670Y501762D01*
X171562Y499870D01*
X173878Y498532D01*
X176462Y497840D01*
X176530D01*
Y506730D01*
D02*
G37*
G36*
X646498Y513080D02*
X643822D01*
X641238Y512388D01*
X638922Y511050D01*
X637030Y509158D01*
X635692Y506842D01*
X635000Y504258D01*
Y501582D01*
X635692Y498998D01*
X637030Y496682D01*
X638922Y494790D01*
X641238Y493452D01*
X643822Y492760D01*
X646498D01*
X649082Y493452D01*
X651398Y494790D01*
X653290Y496682D01*
X654628Y498998D01*
X655320Y501582D01*
Y504258D01*
X654628Y506842D01*
X653290Y509158D01*
X651398Y511050D01*
X649082Y512388D01*
X646498Y513080D01*
D02*
G37*
G36*
X445503Y557530D02*
X443497D01*
X441559Y557011D01*
X439821Y556007D01*
X438402Y554589D01*
X437399Y552851D01*
X436880Y550913D01*
Y548907D01*
X437399Y546969D01*
X438402Y545231D01*
X439821Y543812D01*
X441559Y542809D01*
X443497Y542290D01*
X444795D01*
X477719Y509366D01*
Y504965D01*
X476769Y503321D01*
X476250Y501383D01*
Y499377D01*
X476769Y497439D01*
X477772Y495701D01*
X479191Y494282D01*
X480929Y493279D01*
X482867Y492760D01*
X484873D01*
X486811Y493279D01*
X488549Y494282D01*
X489967Y495701D01*
X490971Y497439D01*
X491490Y499377D01*
Y501383D01*
X490971Y503321D01*
X489967Y505059D01*
X488549Y506478D01*
X488078Y506750D01*
Y511512D01*
X487683Y513494D01*
X486561Y515174D01*
X452120Y549615D01*
Y550913D01*
X451601Y552851D01*
X450597Y554589D01*
X449179Y556007D01*
X447441Y557011D01*
X445503Y557530D01*
D02*
G37*
G36*
X822960Y496570D02*
X814070D01*
Y487680D01*
X814138D01*
X816722Y488372D01*
X819038Y489710D01*
X820930Y491602D01*
X822268Y493918D01*
X822960Y496502D01*
Y496570D01*
D02*
G37*
G36*
X811530D02*
X802640D01*
Y496502D01*
X803332Y493918D01*
X804670Y491602D01*
X806562Y489710D01*
X808878Y488372D01*
X811462Y487680D01*
X811530D01*
Y496570D01*
D02*
G37*
G36*
X737938Y508000D02*
X735262D01*
X732678Y507308D01*
X730362Y505970D01*
X728470Y504078D01*
X727132Y501762D01*
X726440Y499178D01*
Y496502D01*
X727132Y493918D01*
X728470Y491602D01*
X730362Y489710D01*
X732678Y488372D01*
X735262Y487680D01*
X737938D01*
X740522Y488372D01*
X742838Y489710D01*
X744730Y491602D01*
X746068Y493918D01*
X746760Y496502D01*
Y499178D01*
X746068Y501762D01*
X744730Y504078D01*
X742838Y505970D01*
X740522Y507308D01*
X737938Y508000D01*
D02*
G37*
G36*
X255338Y492760D02*
X255270D01*
Y483870D01*
X264160D01*
Y483938D01*
X263468Y486522D01*
X262130Y488838D01*
X260238Y490730D01*
X257922Y492068D01*
X255338Y492760D01*
D02*
G37*
G36*
X179138D02*
X179070D01*
Y483870D01*
X187960D01*
Y483938D01*
X187268Y486522D01*
X185930Y488838D01*
X184038Y490730D01*
X181722Y492068D01*
X179138Y492760D01*
D02*
G37*
G36*
X252730D02*
X252662D01*
X250078Y492068D01*
X247762Y490730D01*
X245870Y488838D01*
X244532Y486522D01*
X243840Y483938D01*
Y483870D01*
X252730D01*
Y492760D01*
D02*
G37*
G36*
X176530D02*
X176462D01*
X173878Y492068D01*
X171562Y490730D01*
X169670Y488838D01*
X168332Y486522D01*
X167640Y483938D01*
Y483870D01*
X176530D01*
Y492760D01*
D02*
G37*
G36*
X437247Y514485D02*
X434973D01*
X432873Y513615D01*
X431265Y512007D01*
X430395Y509907D01*
Y507633D01*
X431265Y505533D01*
X432873Y503925D01*
X434973Y503055D01*
X437064D01*
X456565Y483554D01*
Y481463D01*
X457435Y479363D01*
X459043Y477755D01*
X461143Y476885D01*
X463417D01*
X465517Y477755D01*
X467125Y479363D01*
X467995Y481463D01*
Y483737D01*
X467125Y485837D01*
X465517Y487445D01*
X463417Y488315D01*
X461326D01*
X441825Y507816D01*
Y509907D01*
X440955Y512007D01*
X439347Y513615D01*
X437247Y514485D01*
D02*
G37*
G36*
X814138Y482600D02*
X814070D01*
Y473710D01*
X822960D01*
Y473778D01*
X822268Y476362D01*
X820930Y478678D01*
X819038Y480570D01*
X816722Y481908D01*
X814138Y482600D01*
D02*
G37*
G36*
X811530D02*
X811462D01*
X808878Y481908D01*
X806562Y480570D01*
X804670Y478678D01*
X803332Y476362D01*
X802640Y473778D01*
Y473710D01*
X811530D01*
Y482600D01*
D02*
G37*
G36*
X264160Y481330D02*
X255270D01*
Y472440D01*
X255338D01*
X257922Y473132D01*
X260238Y474470D01*
X262130Y476362D01*
X263468Y478678D01*
X264160Y481262D01*
Y481330D01*
D02*
G37*
G36*
X252730D02*
X243840D01*
Y481262D01*
X244532Y478678D01*
X245870Y476362D01*
X247762Y474470D01*
X250078Y473132D01*
X252662Y472440D01*
X252730D01*
Y481330D01*
D02*
G37*
G36*
X187960D02*
X179070D01*
Y472440D01*
X179138D01*
X181722Y473132D01*
X184038Y474470D01*
X185930Y476362D01*
X187268Y478678D01*
X187960Y481262D01*
Y481330D01*
D02*
G37*
G36*
X176530D02*
X167640D01*
Y481262D01*
X168332Y478678D01*
X169670Y476362D01*
X171562Y474470D01*
X173878Y473132D01*
X176462Y472440D01*
X176530D01*
Y481330D01*
D02*
G37*
G36*
X822960Y471170D02*
X814070D01*
Y462280D01*
X814138D01*
X816722Y462972D01*
X819038Y464310D01*
X820930Y466202D01*
X822268Y468518D01*
X822960Y471102D01*
Y471170D01*
D02*
G37*
G36*
X811530D02*
X802640D01*
Y471102D01*
X803332Y468518D01*
X804670Y466202D01*
X806562Y464310D01*
X808878Y462972D01*
X811462Y462280D01*
X811530D01*
Y471170D01*
D02*
G37*
G36*
X737938Y482600D02*
X735262D01*
X732678Y481908D01*
X730362Y480570D01*
X728470Y478678D01*
X727132Y476362D01*
X726440Y473778D01*
Y471102D01*
X727132Y468518D01*
X728470Y466202D01*
X730362Y464310D01*
X732678Y462972D01*
X735262Y462280D01*
X737938D01*
X740522Y462972D01*
X742838Y464310D01*
X744730Y466202D01*
X746068Y468518D01*
X746760Y471102D01*
Y473778D01*
X746068Y476362D01*
X744730Y478678D01*
X742838Y480570D01*
X740522Y481908D01*
X737938Y482600D01*
D02*
G37*
G36*
X255338Y467360D02*
X255270D01*
Y458470D01*
X264160D01*
Y458538D01*
X263468Y461122D01*
X262130Y463438D01*
X260238Y465330D01*
X257922Y466668D01*
X255338Y467360D01*
D02*
G37*
G36*
X179138D02*
X179070D01*
Y458470D01*
X187960D01*
Y458538D01*
X187268Y461122D01*
X185930Y463438D01*
X184038Y465330D01*
X181722Y466668D01*
X179138Y467360D01*
D02*
G37*
G36*
X252730D02*
X252662D01*
X250078Y466668D01*
X247762Y465330D01*
X245870Y463438D01*
X244532Y461122D01*
X243840Y458538D01*
Y458470D01*
X252730D01*
Y467360D01*
D02*
G37*
G36*
X176530D02*
X176462D01*
X173878Y466668D01*
X171562Y465330D01*
X169670Y463438D01*
X168332Y461122D01*
X167640Y458538D01*
Y458470D01*
X176530D01*
Y467360D01*
D02*
G37*
G36*
X264160Y455930D02*
X255270D01*
Y447040D01*
X255338D01*
X257922Y447732D01*
X260238Y449070D01*
X262130Y450962D01*
X263468Y453278D01*
X264160Y455862D01*
Y455930D01*
D02*
G37*
G36*
X252730D02*
X243840D01*
Y455862D01*
X244532Y453278D01*
X245870Y450962D01*
X247762Y449070D01*
X250078Y447732D01*
X252662Y447040D01*
X252730D01*
Y455930D01*
D02*
G37*
G36*
X187960D02*
X179070D01*
Y447040D01*
X179138D01*
X181722Y447732D01*
X184038Y449070D01*
X185930Y450962D01*
X187268Y453278D01*
X187960Y455862D01*
Y455930D01*
D02*
G37*
G36*
X176530D02*
X167640D01*
Y455862D01*
X168332Y453278D01*
X169670Y450962D01*
X171562Y449070D01*
X173878Y447732D01*
X176462Y447040D01*
X176530D01*
Y455930D01*
D02*
G37*
G36*
X549643Y454660D02*
X547637D01*
X545699Y454141D01*
X543961Y453138D01*
X542542Y451719D01*
X541539Y449981D01*
X541020Y448043D01*
Y446037D01*
X541539Y444099D01*
X542165Y443014D01*
X541236Y442085D01*
X540151Y442711D01*
X538213Y443230D01*
X536207D01*
X534269Y442711D01*
X532531Y441707D01*
X531113Y440289D01*
X530109Y438551D01*
X529590Y436613D01*
Y434607D01*
X530109Y432669D01*
X531113Y430931D01*
X532531Y429512D01*
X532678Y429428D01*
Y363833D01*
X531861Y363015D01*
X530857Y361278D01*
X530338Y359340D01*
Y357333D01*
X530857Y355395D01*
X531861Y353658D01*
X533279Y352239D01*
X535017Y351236D01*
X536955Y350717D01*
X538961D01*
X540899Y351236D01*
X542637Y352239D01*
X544056Y353658D01*
X545059Y355395D01*
X545578Y357333D01*
Y359340D01*
X545059Y361278D01*
X544056Y363015D01*
X542637Y364434D01*
X541742Y364951D01*
Y407994D01*
X542915Y408480D01*
X544509Y406887D01*
X560853Y423231D01*
X549358Y434726D01*
X543668Y429036D01*
X542338Y429502D01*
X542293Y429916D01*
X543307Y430931D01*
X544311Y432669D01*
X544830Y434607D01*
Y436613D01*
X544311Y438551D01*
X543685Y439636D01*
X544614Y440565D01*
X545699Y439939D01*
X547637Y439420D01*
X549643D01*
X549807Y439464D01*
X551951Y437319D01*
X550794Y436162D01*
X562289Y424667D01*
X578633Y441011D01*
X567138Y452506D01*
X558361Y443729D01*
X556216Y445873D01*
X556260Y446037D01*
Y448043D01*
X555741Y449981D01*
X554738Y451719D01*
X553319Y453138D01*
X551581Y454141D01*
X549643Y454660D01*
D02*
G37*
G36*
X814138Y441960D02*
X814070D01*
Y433070D01*
X822960D01*
Y433138D01*
X822268Y435722D01*
X820930Y438038D01*
X819038Y439930D01*
X816722Y441268D01*
X814138Y441960D01*
D02*
G37*
G36*
X179138D02*
X179070D01*
Y433070D01*
X187960D01*
Y433138D01*
X187268Y435722D01*
X185930Y438038D01*
X184038Y439930D01*
X181722Y441268D01*
X179138Y441960D01*
D02*
G37*
G36*
X811530D02*
X811462D01*
X808878Y441268D01*
X806562Y439930D01*
X804670Y438038D01*
X803332Y435722D01*
X802640Y433138D01*
Y433070D01*
X811530D01*
Y441960D01*
D02*
G37*
G36*
X176530D02*
X176462D01*
X173878Y441268D01*
X171562Y439930D01*
X169670Y438038D01*
X168332Y435722D01*
X167640Y433138D01*
Y433070D01*
X176530D01*
Y441960D01*
D02*
G37*
G36*
X822960Y430530D02*
X814070D01*
Y421640D01*
X814138D01*
X816722Y422332D01*
X819038Y423670D01*
X820930Y425562D01*
X822268Y427878D01*
X822960Y430462D01*
Y430530D01*
D02*
G37*
G36*
X811530D02*
X802640D01*
Y430462D01*
X803332Y427878D01*
X804670Y425562D01*
X806562Y423670D01*
X808878Y422332D01*
X811462Y421640D01*
X811530D01*
Y430530D01*
D02*
G37*
G36*
X737938Y441960D02*
X735262D01*
X732678Y441268D01*
X730362Y439930D01*
X728470Y438038D01*
X727132Y435722D01*
X726440Y433138D01*
Y430462D01*
X727132Y427878D01*
X728470Y425562D01*
X730362Y423670D01*
X732678Y422332D01*
X735262Y421640D01*
X737938D01*
X740522Y422332D01*
X742838Y423670D01*
X744730Y425562D01*
X746068Y427878D01*
X746760Y430462D01*
Y433138D01*
X746068Y435722D01*
X744730Y438038D01*
X742838Y439930D01*
X740522Y441268D01*
X737938Y441960D01*
D02*
G37*
G36*
X255338D02*
X252662D01*
X250078Y441268D01*
X247762Y439930D01*
X245870Y438038D01*
X244532Y435722D01*
X243840Y433138D01*
Y430462D01*
X244532Y427878D01*
X245870Y425562D01*
X247762Y423670D01*
X250078Y422332D01*
X252662Y421640D01*
X255338D01*
X257922Y422332D01*
X260238Y423670D01*
X262130Y425562D01*
X263468Y427878D01*
X264160Y430462D01*
Y433138D01*
X263468Y435722D01*
X262130Y438038D01*
X260238Y439930D01*
X257922Y441268D01*
X255338Y441960D01*
D02*
G37*
G36*
X187960Y430530D02*
X179070D01*
Y421640D01*
X179138D01*
X181722Y422332D01*
X184038Y423670D01*
X185930Y425562D01*
X187268Y427878D01*
X187960Y430462D01*
Y430530D01*
D02*
G37*
G36*
X176530D02*
X167640D01*
Y430462D01*
X168332Y427878D01*
X169670Y425562D01*
X171562Y423670D01*
X173878Y422332D01*
X176462Y421640D01*
X176530D01*
Y430530D01*
D02*
G37*
G36*
X646514Y439547D02*
X643806D01*
X641189Y438846D01*
X638844Y437492D01*
X636928Y435576D01*
X635574Y433231D01*
X634873Y430614D01*
Y427906D01*
X635574Y425289D01*
X636928Y422944D01*
X638844Y421028D01*
X641189Y419674D01*
X643806Y418973D01*
X646514D01*
X649131Y419674D01*
X651476Y421028D01*
X653392Y422944D01*
X654746Y425289D01*
X655447Y427906D01*
Y430614D01*
X654746Y433231D01*
X653392Y435576D01*
X651476Y437492D01*
X649131Y438846D01*
X646514Y439547D01*
D02*
G37*
G36*
X814138Y416560D02*
X814070D01*
Y407670D01*
X822960D01*
Y407738D01*
X822268Y410322D01*
X820930Y412638D01*
X819038Y414530D01*
X816722Y415868D01*
X814138Y416560D01*
D02*
G37*
G36*
X811530D02*
X811462D01*
X808878Y415868D01*
X806562Y414530D01*
X804670Y412638D01*
X803332Y410322D01*
X802640Y407738D01*
Y407670D01*
X811530D01*
Y416560D01*
D02*
G37*
G36*
X822960Y405130D02*
X814070D01*
Y396240D01*
X814138D01*
X816722Y396932D01*
X819038Y398270D01*
X820930Y400162D01*
X822268Y402478D01*
X822960Y405062D01*
Y405130D01*
D02*
G37*
G36*
X811530D02*
X802640D01*
Y405062D01*
X803332Y402478D01*
X804670Y400162D01*
X806562Y398270D01*
X808878Y396932D01*
X811462Y396240D01*
X811530D01*
Y405130D01*
D02*
G37*
G36*
X737938Y416560D02*
X735262D01*
X732678Y415868D01*
X730362Y414530D01*
X728470Y412638D01*
X727132Y410322D01*
X726440Y407738D01*
Y405062D01*
X727132Y402478D01*
X728470Y400162D01*
X730362Y398270D01*
X732678Y396932D01*
X735262Y396240D01*
X737938D01*
X740522Y396932D01*
X742838Y398270D01*
X744730Y400162D01*
X746068Y402478D01*
X746760Y405062D01*
Y407738D01*
X746068Y410322D01*
X744730Y412638D01*
X742838Y414530D01*
X740522Y415868D01*
X737938Y416560D01*
D02*
G37*
G36*
X814138Y391160D02*
X814070D01*
Y382270D01*
X822960D01*
Y382338D01*
X822268Y384922D01*
X820930Y387238D01*
X819038Y389130D01*
X816722Y390468D01*
X814138Y391160D01*
D02*
G37*
G36*
X458705Y392430D02*
X458470D01*
Y382270D01*
X468630D01*
Y382505D01*
X467851Y385412D01*
X466346Y388018D01*
X464218Y390146D01*
X461612Y391651D01*
X458705Y392430D01*
D02*
G37*
G36*
X407905D02*
X407670D01*
Y382270D01*
X417830D01*
Y382505D01*
X417051Y385412D01*
X415546Y388018D01*
X413418Y390146D01*
X410812Y391651D01*
X407905Y392430D01*
D02*
G37*
G36*
X179138Y391160D02*
X179070D01*
Y382270D01*
X187960D01*
Y382338D01*
X187268Y384922D01*
X185930Y387238D01*
X184038Y389130D01*
X181722Y390468D01*
X179138Y391160D01*
D02*
G37*
G36*
X176530D02*
X176462D01*
X173878Y390468D01*
X171562Y389130D01*
X169670Y387238D01*
X168332Y384922D01*
X167640Y382338D01*
Y382270D01*
X176530D01*
Y391160D01*
D02*
G37*
G36*
X811530D02*
X811462D01*
X808878Y390468D01*
X806562Y389130D01*
X804670Y387238D01*
X803332Y384922D01*
X802640Y382338D01*
Y382270D01*
X811530D01*
Y391160D01*
D02*
G37*
G36*
X455930Y392430D02*
X455695D01*
X452788Y391651D01*
X450182Y390146D01*
X448054Y388018D01*
X446549Y385412D01*
X445770Y382505D01*
Y382270D01*
X455930D01*
Y392430D01*
D02*
G37*
G36*
X405130D02*
X404895D01*
X401988Y391651D01*
X399382Y390146D01*
X397254Y388018D01*
X395749Y385412D01*
X394970Y382505D01*
Y382270D01*
X405130D01*
Y392430D01*
D02*
G37*
G36*
X822960Y379730D02*
X814070D01*
Y370840D01*
X814138D01*
X816722Y371532D01*
X819038Y372870D01*
X820930Y374762D01*
X822268Y377078D01*
X822960Y379662D01*
Y379730D01*
D02*
G37*
G36*
X811530D02*
X802640D01*
Y379662D01*
X803332Y377078D01*
X804670Y374762D01*
X806562Y372870D01*
X808878Y371532D01*
X811462Y370840D01*
X811530D01*
Y379730D01*
D02*
G37*
G36*
X737938Y391160D02*
X735262D01*
X732678Y390468D01*
X730362Y389130D01*
X728470Y387238D01*
X727132Y384922D01*
X726440Y382338D01*
Y379662D01*
X727132Y377078D01*
X728470Y374762D01*
X730362Y372870D01*
X732678Y371532D01*
X735262Y370840D01*
X737938D01*
X740522Y371532D01*
X742838Y372870D01*
X744730Y374762D01*
X746068Y377078D01*
X746760Y379662D01*
Y382338D01*
X746068Y384922D01*
X744730Y387238D01*
X742838Y389130D01*
X740522Y390468D01*
X737938Y391160D01*
D02*
G37*
G36*
X255338D02*
X252662D01*
X250078Y390468D01*
X247762Y389130D01*
X245870Y387238D01*
X244532Y384922D01*
X243840Y382338D01*
Y379662D01*
X244532Y377078D01*
X245870Y374762D01*
X247762Y372870D01*
X250078Y371532D01*
X252662Y370840D01*
X255338D01*
X257922Y371532D01*
X260238Y372870D01*
X262130Y374762D01*
X263468Y377078D01*
X264160Y379662D01*
Y382338D01*
X263468Y384922D01*
X262130Y387238D01*
X260238Y389130D01*
X257922Y390468D01*
X255338Y391160D01*
D02*
G37*
G36*
X187960Y379730D02*
X179070D01*
Y370840D01*
X179138D01*
X181722Y371532D01*
X184038Y372870D01*
X185930Y374762D01*
X187268Y377078D01*
X187960Y379662D01*
Y379730D01*
D02*
G37*
G36*
X176530D02*
X167640D01*
Y379662D01*
X168332Y377078D01*
X169670Y374762D01*
X171562Y372870D01*
X173878Y371532D01*
X176462Y370840D01*
X176530D01*
Y379730D01*
D02*
G37*
G36*
X468630D02*
X458470D01*
Y369570D01*
X458705D01*
X461612Y370349D01*
X464218Y371854D01*
X466346Y373982D01*
X467851Y376588D01*
X468630Y379495D01*
Y379730D01*
D02*
G37*
G36*
X455930D02*
X445770D01*
Y379495D01*
X446549Y376588D01*
X448054Y373982D01*
X450182Y371854D01*
X452788Y370349D01*
X455695Y369570D01*
X455930D01*
Y379730D01*
D02*
G37*
G36*
X417830D02*
X407670D01*
Y369570D01*
X407905D01*
X410812Y370349D01*
X413418Y371854D01*
X415546Y373982D01*
X417051Y376588D01*
X417830Y379495D01*
Y379730D01*
D02*
G37*
G36*
X405130D02*
X394970D01*
Y379495D01*
X395749Y376588D01*
X397254Y373982D01*
X399382Y371854D01*
X401988Y370349D01*
X404895Y369570D01*
X405130D01*
Y379730D01*
D02*
G37*
G36*
X814138Y365760D02*
X814070D01*
Y356870D01*
X822960D01*
Y356938D01*
X822268Y359522D01*
X820930Y361838D01*
X819038Y363730D01*
X816722Y365068D01*
X814138Y365760D01*
D02*
G37*
G36*
X458705Y367030D02*
X458470D01*
Y356870D01*
X468630D01*
Y357105D01*
X467851Y360012D01*
X466346Y362618D01*
X464218Y364746D01*
X461612Y366251D01*
X458705Y367030D01*
D02*
G37*
G36*
X407905D02*
X407670D01*
Y356870D01*
X417830D01*
Y357105D01*
X417051Y360012D01*
X415546Y362618D01*
X413418Y364746D01*
X410812Y366251D01*
X407905Y367030D01*
D02*
G37*
G36*
X179138Y365760D02*
X179070D01*
Y356870D01*
X187960D01*
Y356938D01*
X187268Y359522D01*
X185930Y361838D01*
X184038Y363730D01*
X181722Y365068D01*
X179138Y365760D01*
D02*
G37*
G36*
X176530D02*
X176462D01*
X173878Y365068D01*
X171562Y363730D01*
X169670Y361838D01*
X168332Y359522D01*
X167640Y356938D01*
Y356870D01*
X176530D01*
Y365760D01*
D02*
G37*
G36*
X811530D02*
X811462D01*
X808878Y365068D01*
X806562Y363730D01*
X804670Y361838D01*
X803332Y359522D01*
X802640Y356938D01*
Y356870D01*
X811530D01*
Y365760D01*
D02*
G37*
G36*
X455930Y367030D02*
X455695D01*
X452788Y366251D01*
X450182Y364746D01*
X448054Y362618D01*
X446549Y360012D01*
X445770Y357105D01*
Y356870D01*
X455930D01*
Y367030D01*
D02*
G37*
G36*
X405130D02*
X404895D01*
X401988Y366251D01*
X399382Y364746D01*
X397254Y362618D01*
X395749Y360012D01*
X394970Y357105D01*
Y356870D01*
X405130D01*
Y367030D01*
D02*
G37*
G36*
X822960Y354330D02*
X814070D01*
Y345440D01*
X814138D01*
X816722Y346132D01*
X819038Y347470D01*
X820930Y349362D01*
X822268Y351678D01*
X822960Y354262D01*
Y354330D01*
D02*
G37*
G36*
X811530D02*
X802640D01*
Y354262D01*
X803332Y351678D01*
X804670Y349362D01*
X806562Y347470D01*
X808878Y346132D01*
X811462Y345440D01*
X811530D01*
Y354330D01*
D02*
G37*
G36*
X737938Y365760D02*
X735262D01*
X732678Y365068D01*
X730362Y363730D01*
X728470Y361838D01*
X727132Y359522D01*
X726440Y356938D01*
Y354262D01*
X727132Y351678D01*
X728470Y349362D01*
X730362Y347470D01*
X732678Y346132D01*
X735262Y345440D01*
X737938D01*
X740522Y346132D01*
X742838Y347470D01*
X744730Y349362D01*
X746068Y351678D01*
X746760Y354262D01*
Y356938D01*
X746068Y359522D01*
X744730Y361838D01*
X742838Y363730D01*
X740522Y365068D01*
X737938Y365760D01*
D02*
G37*
G36*
X255338D02*
X252662D01*
X250078Y365068D01*
X247762Y363730D01*
X245870Y361838D01*
X244532Y359522D01*
X243840Y356938D01*
Y354262D01*
X244532Y351678D01*
X245870Y349362D01*
X247762Y347470D01*
X250078Y346132D01*
X252662Y345440D01*
X255338D01*
X257922Y346132D01*
X260238Y347470D01*
X262130Y349362D01*
X263468Y351678D01*
X264160Y354262D01*
Y356938D01*
X263468Y359522D01*
X262130Y361838D01*
X260238Y363730D01*
X257922Y365068D01*
X255338Y365760D01*
D02*
G37*
G36*
X187960Y354330D02*
X179070D01*
Y345440D01*
X179138D01*
X181722Y346132D01*
X184038Y347470D01*
X185930Y349362D01*
X187268Y351678D01*
X187960Y354262D01*
Y354330D01*
D02*
G37*
G36*
X176530D02*
X167640D01*
Y354262D01*
X168332Y351678D01*
X169670Y349362D01*
X171562Y347470D01*
X173878Y346132D01*
X176462Y345440D01*
X176530D01*
Y354330D01*
D02*
G37*
G36*
X468630D02*
X458470D01*
Y344170D01*
X458705D01*
X461612Y344949D01*
X464218Y346454D01*
X466346Y348582D01*
X467851Y351188D01*
X468630Y354095D01*
Y354330D01*
D02*
G37*
G36*
X455930D02*
X445770D01*
Y354095D01*
X446549Y351188D01*
X448054Y348582D01*
X450182Y346454D01*
X452788Y344949D01*
X455695Y344170D01*
X455930D01*
Y354330D01*
D02*
G37*
G36*
X417830D02*
X407670D01*
Y344170D01*
X407905D01*
X410812Y344949D01*
X413418Y346454D01*
X415546Y348582D01*
X417051Y351188D01*
X417830Y354095D01*
Y354330D01*
D02*
G37*
G36*
X405130D02*
X394970D01*
Y354095D01*
X395749Y351188D01*
X397254Y348582D01*
X399382Y346454D01*
X401988Y344949D01*
X404895Y344170D01*
X405130D01*
Y354330D01*
D02*
G37*
G36*
X649205Y341630D02*
X648970D01*
Y331470D01*
X659130D01*
Y331705D01*
X658351Y334612D01*
X656846Y337218D01*
X654718Y339346D01*
X652112Y340851D01*
X649205Y341630D01*
D02*
G37*
G36*
X598405D02*
X598170D01*
Y331470D01*
X608330D01*
Y331705D01*
X607551Y334612D01*
X606046Y337218D01*
X603918Y339346D01*
X601312Y340851D01*
X598405Y341630D01*
D02*
G37*
G36*
X623805D02*
X623570D01*
Y331470D01*
X633730D01*
Y331705D01*
X632951Y334612D01*
X631446Y337218D01*
X629318Y339346D01*
X626712Y340851D01*
X623805Y341630D01*
D02*
G37*
G36*
X814138Y340360D02*
X814070D01*
Y331470D01*
X822960D01*
Y331538D01*
X822268Y334122D01*
X820930Y336438D01*
X819038Y338330D01*
X816722Y339668D01*
X814138Y340360D01*
D02*
G37*
G36*
X458705Y341630D02*
X458470D01*
Y331470D01*
X468630D01*
Y331705D01*
X467851Y334612D01*
X466346Y337218D01*
X464218Y339346D01*
X461612Y340851D01*
X458705Y341630D01*
D02*
G37*
G36*
X407905D02*
X407670D01*
Y331470D01*
X417830D01*
Y331705D01*
X417051Y334612D01*
X415546Y337218D01*
X413418Y339346D01*
X410812Y340851D01*
X407905Y341630D01*
D02*
G37*
G36*
X179138Y340360D02*
X179070D01*
Y331470D01*
X187960D01*
Y331538D01*
X187268Y334122D01*
X185930Y336438D01*
X184038Y338330D01*
X181722Y339668D01*
X179138Y340360D01*
D02*
G37*
G36*
X176530D02*
X176462D01*
X173878Y339668D01*
X171562Y338330D01*
X169670Y336438D01*
X168332Y334122D01*
X167640Y331538D01*
Y331470D01*
X176530D01*
Y340360D01*
D02*
G37*
G36*
X811530D02*
X811462D01*
X808878Y339668D01*
X806562Y338330D01*
X804670Y336438D01*
X803332Y334122D01*
X802640Y331538D01*
Y331470D01*
X811530D01*
Y340360D01*
D02*
G37*
G36*
X455930Y341630D02*
X455695D01*
X452788Y340851D01*
X450182Y339346D01*
X448054Y337218D01*
X446549Y334612D01*
X445770Y331705D01*
Y331470D01*
X455930D01*
Y341630D01*
D02*
G37*
G36*
X405130D02*
X404895D01*
X401988Y340851D01*
X399382Y339346D01*
X397254Y337218D01*
X395749Y334612D01*
X394970Y331705D01*
Y331470D01*
X405130D01*
Y341630D01*
D02*
G37*
G36*
X646430D02*
X646195D01*
X643288Y340851D01*
X640682Y339346D01*
X638554Y337218D01*
X637049Y334612D01*
X636270Y331705D01*
Y331470D01*
X646430D01*
Y341630D01*
D02*
G37*
G36*
X595630D02*
X595395D01*
X592488Y340851D01*
X589882Y339346D01*
X587754Y337218D01*
X586249Y334612D01*
X585470Y331705D01*
Y331470D01*
X595630D01*
Y341630D01*
D02*
G37*
G36*
X621030D02*
X620795D01*
X617888Y340851D01*
X615282Y339346D01*
X613154Y337218D01*
X611649Y334612D01*
X610870Y331705D01*
Y331470D01*
X621030D01*
Y341630D01*
D02*
G37*
G36*
X822960Y328930D02*
X814070D01*
Y320040D01*
X814138D01*
X816722Y320732D01*
X819038Y322070D01*
X820930Y323962D01*
X822268Y326278D01*
X822960Y328862D01*
Y328930D01*
D02*
G37*
G36*
X811530D02*
X802640D01*
Y328862D01*
X803332Y326278D01*
X804670Y323962D01*
X806562Y322070D01*
X808878Y320732D01*
X811462Y320040D01*
X811530D01*
Y328930D01*
D02*
G37*
G36*
X737938Y340360D02*
X735262D01*
X732678Y339668D01*
X730362Y338330D01*
X728470Y336438D01*
X727132Y334122D01*
X726440Y331538D01*
Y328862D01*
X727132Y326278D01*
X728470Y323962D01*
X730362Y322070D01*
X732678Y320732D01*
X735262Y320040D01*
X737938D01*
X740522Y320732D01*
X742838Y322070D01*
X744730Y323962D01*
X746068Y326278D01*
X746760Y328862D01*
Y331538D01*
X746068Y334122D01*
X744730Y336438D01*
X742838Y338330D01*
X740522Y339668D01*
X737938Y340360D01*
D02*
G37*
G36*
X255338D02*
X252662D01*
X250078Y339668D01*
X247762Y338330D01*
X245870Y336438D01*
X244532Y334122D01*
X243840Y331538D01*
Y328862D01*
X244532Y326278D01*
X245870Y323962D01*
X247762Y322070D01*
X250078Y320732D01*
X252662Y320040D01*
X255338D01*
X257922Y320732D01*
X260238Y322070D01*
X262130Y323962D01*
X263468Y326278D01*
X264160Y328862D01*
Y331538D01*
X263468Y334122D01*
X262130Y336438D01*
X260238Y338330D01*
X257922Y339668D01*
X255338Y340360D01*
D02*
G37*
G36*
X187960Y328930D02*
X179070D01*
Y320040D01*
X179138D01*
X181722Y320732D01*
X184038Y322070D01*
X185930Y323962D01*
X187268Y326278D01*
X187960Y328862D01*
Y328930D01*
D02*
G37*
G36*
X176530D02*
X167640D01*
Y328862D01*
X168332Y326278D01*
X169670Y323962D01*
X171562Y322070D01*
X173878Y320732D01*
X176462Y320040D01*
X176530D01*
Y328930D01*
D02*
G37*
G36*
X674605Y341630D02*
X671595D01*
X668688Y340851D01*
X666082Y339346D01*
X663954Y337218D01*
X662449Y334612D01*
X661670Y331705D01*
Y328695D01*
X662449Y325788D01*
X663954Y323182D01*
X666082Y321054D01*
X668688Y319549D01*
X671595Y318770D01*
X674605D01*
X677512Y319549D01*
X680118Y321054D01*
X682246Y323182D01*
X683751Y325788D01*
X684530Y328695D01*
Y331705D01*
X683751Y334612D01*
X682246Y337218D01*
X680118Y339346D01*
X677512Y340851D01*
X674605Y341630D01*
D02*
G37*
G36*
X659130Y328930D02*
X648970D01*
Y318770D01*
X649205D01*
X652112Y319549D01*
X654718Y321054D01*
X656846Y323182D01*
X658351Y325788D01*
X659130Y328695D01*
Y328930D01*
D02*
G37*
G36*
X646430D02*
X636270D01*
Y328695D01*
X637049Y325788D01*
X638554Y323182D01*
X640682Y321054D01*
X643288Y319549D01*
X646195Y318770D01*
X646430D01*
Y328930D01*
D02*
G37*
G36*
X633730D02*
X623570D01*
Y318770D01*
X623805D01*
X626712Y319549D01*
X629318Y321054D01*
X631446Y323182D01*
X632951Y325788D01*
X633730Y328695D01*
Y328930D01*
D02*
G37*
G36*
X621030D02*
X610870D01*
Y328695D01*
X611649Y325788D01*
X613154Y323182D01*
X615282Y321054D01*
X617888Y319549D01*
X620795Y318770D01*
X621030D01*
Y328930D01*
D02*
G37*
G36*
X608330D02*
X598170D01*
Y318770D01*
X598405D01*
X601312Y319549D01*
X603918Y321054D01*
X606046Y323182D01*
X607551Y325788D01*
X608330Y328695D01*
Y328930D01*
D02*
G37*
G36*
X595630D02*
X585470D01*
Y328695D01*
X586249Y325788D01*
X587754Y323182D01*
X589882Y321054D01*
X592488Y319549D01*
X595395Y318770D01*
X595630D01*
Y328930D01*
D02*
G37*
G36*
X468630D02*
X458470D01*
Y318770D01*
X458705D01*
X461612Y319549D01*
X464218Y321054D01*
X466346Y323182D01*
X467851Y325788D01*
X468630Y328695D01*
Y328930D01*
D02*
G37*
G36*
X455930D02*
X445770D01*
Y328695D01*
X446549Y325788D01*
X448054Y323182D01*
X450182Y321054D01*
X452788Y319549D01*
X455695Y318770D01*
X455930D01*
Y328930D01*
D02*
G37*
G36*
X417830D02*
X407670D01*
Y318770D01*
X407905D01*
X410812Y319549D01*
X413418Y321054D01*
X415546Y323182D01*
X417051Y325788D01*
X417830Y328695D01*
Y328930D01*
D02*
G37*
G36*
X405130D02*
X394970D01*
Y328695D01*
X395749Y325788D01*
X397254Y323182D01*
X399382Y321054D01*
X401988Y319549D01*
X404895Y318770D01*
X405130D01*
Y328930D01*
D02*
G37*
G36*
X814138Y314960D02*
X814070D01*
Y306070D01*
X822960D01*
Y306138D01*
X822268Y308722D01*
X820930Y311038D01*
X819038Y312930D01*
X816722Y314268D01*
X814138Y314960D01*
D02*
G37*
G36*
X179138D02*
X179070D01*
Y306070D01*
X187960D01*
Y306138D01*
X187268Y308722D01*
X185930Y311038D01*
X184038Y312930D01*
X181722Y314268D01*
X179138Y314960D01*
D02*
G37*
G36*
X176530D02*
X176462D01*
X173878Y314268D01*
X171562Y312930D01*
X169670Y311038D01*
X168332Y308722D01*
X167640Y306138D01*
Y306070D01*
X176530D01*
Y314960D01*
D02*
G37*
G36*
X811530D02*
X811462D01*
X808878Y314268D01*
X806562Y312930D01*
X804670Y311038D01*
X803332Y308722D01*
X802640Y306138D01*
Y306070D01*
X811530D01*
Y314960D01*
D02*
G37*
G36*
X822960Y303530D02*
X814070D01*
Y294640D01*
X814138D01*
X816722Y295332D01*
X819038Y296670D01*
X820930Y298562D01*
X822268Y300878D01*
X822960Y303462D01*
Y303530D01*
D02*
G37*
G36*
X811530D02*
X802640D01*
Y303462D01*
X803332Y300878D01*
X804670Y298562D01*
X806562Y296670D01*
X808878Y295332D01*
X811462Y294640D01*
X811530D01*
Y303530D01*
D02*
G37*
G36*
X737938Y314960D02*
X735262D01*
X732678Y314268D01*
X730362Y312930D01*
X728470Y311038D01*
X727132Y308722D01*
X726440Y306138D01*
Y303462D01*
X727132Y300878D01*
X728470Y298562D01*
X730362Y296670D01*
X732678Y295332D01*
X735262Y294640D01*
X737938D01*
X740522Y295332D01*
X742838Y296670D01*
X744730Y298562D01*
X746068Y300878D01*
X746760Y303462D01*
Y306138D01*
X746068Y308722D01*
X744730Y311038D01*
X742838Y312930D01*
X740522Y314268D01*
X737938Y314960D01*
D02*
G37*
G36*
X255338D02*
X252662D01*
X250078Y314268D01*
X247762Y312930D01*
X245870Y311038D01*
X244532Y308722D01*
X243840Y306138D01*
Y303462D01*
X244532Y300878D01*
X245870Y298562D01*
X247762Y296670D01*
X250078Y295332D01*
X252662Y294640D01*
X255338D01*
X257922Y295332D01*
X260238Y296670D01*
X262130Y298562D01*
X263468Y300878D01*
X264160Y303462D01*
Y306138D01*
X263468Y308722D01*
X262130Y311038D01*
X260238Y312930D01*
X257922Y314268D01*
X255338Y314960D01*
D02*
G37*
G36*
X187960Y303530D02*
X179070D01*
Y294640D01*
X179138D01*
X181722Y295332D01*
X184038Y296670D01*
X185930Y298562D01*
X187268Y300878D01*
X187960Y303462D01*
Y303530D01*
D02*
G37*
G36*
X176530D02*
X167640D01*
Y303462D01*
X168332Y300878D01*
X169670Y298562D01*
X171562Y296670D01*
X173878Y295332D01*
X176462Y294640D01*
X176530D01*
Y303530D01*
D02*
G37*
G36*
X458705Y316230D02*
X455695D01*
X452788Y315451D01*
X450182Y313946D01*
X448054Y311818D01*
X446549Y309212D01*
X445770Y306305D01*
Y303295D01*
X446549Y300388D01*
X448054Y297782D01*
X450182Y295654D01*
X452788Y294149D01*
X455695Y293370D01*
X458705D01*
X461612Y294149D01*
X464218Y295654D01*
X466346Y297782D01*
X467851Y300388D01*
X468630Y303295D01*
Y306305D01*
X467851Y309212D01*
X466346Y311818D01*
X464218Y313946D01*
X461612Y315451D01*
X458705Y316230D01*
D02*
G37*
G36*
X407905D02*
X404895D01*
X401988Y315451D01*
X399382Y313946D01*
X397254Y311818D01*
X395749Y309212D01*
X394970Y306305D01*
Y303295D01*
X395749Y300388D01*
X397254Y297782D01*
X399382Y295654D01*
X401988Y294149D01*
X404895Y293370D01*
X407905D01*
X410812Y294149D01*
X413418Y295654D01*
X415546Y297782D01*
X417051Y300388D01*
X417830Y303295D01*
Y306305D01*
X417051Y309212D01*
X415546Y311818D01*
X413418Y313946D01*
X410812Y315451D01*
X407905Y316230D01*
D02*
G37*
G36*
X814138Y289560D02*
X814070D01*
Y280670D01*
X822960D01*
Y280738D01*
X822268Y283322D01*
X820930Y285638D01*
X819038Y287530D01*
X816722Y288868D01*
X814138Y289560D01*
D02*
G37*
G36*
X179138D02*
X179070D01*
Y280670D01*
X187960D01*
Y280738D01*
X187268Y283322D01*
X185930Y285638D01*
X184038Y287530D01*
X181722Y288868D01*
X179138Y289560D01*
D02*
G37*
G36*
X176530D02*
X176462D01*
X173878Y288868D01*
X171562Y287530D01*
X169670Y285638D01*
X168332Y283322D01*
X167640Y280738D01*
Y280670D01*
X176530D01*
Y289560D01*
D02*
G37*
G36*
X811530D02*
X811462D01*
X808878Y288868D01*
X806562Y287530D01*
X804670Y285638D01*
X803332Y283322D01*
X802640Y280738D01*
Y280670D01*
X811530D01*
Y289560D01*
D02*
G37*
G36*
X649205Y290830D02*
X648970D01*
Y280670D01*
X659130D01*
Y280905D01*
X658351Y283812D01*
X656846Y286418D01*
X654718Y288546D01*
X652112Y290051D01*
X649205Y290830D01*
D02*
G37*
G36*
X598405D02*
X598170D01*
Y280670D01*
X608330D01*
Y280905D01*
X607551Y283812D01*
X606046Y286418D01*
X603918Y288546D01*
X601312Y290051D01*
X598405Y290830D01*
D02*
G37*
G36*
X623805D02*
X623570D01*
Y280670D01*
X633730D01*
Y280905D01*
X632951Y283812D01*
X631446Y286418D01*
X629318Y288546D01*
X626712Y290051D01*
X623805Y290830D01*
D02*
G37*
G36*
X646430D02*
X646195D01*
X643288Y290051D01*
X640682Y288546D01*
X638554Y286418D01*
X637049Y283812D01*
X636270Y280905D01*
Y280670D01*
X646430D01*
Y290830D01*
D02*
G37*
G36*
X595630D02*
X595395D01*
X592488Y290051D01*
X589882Y288546D01*
X587754Y286418D01*
X586249Y283812D01*
X585470Y280905D01*
Y280670D01*
X595630D01*
Y290830D01*
D02*
G37*
G36*
X621030D02*
X620795D01*
X617888Y290051D01*
X615282Y288546D01*
X613154Y286418D01*
X611649Y283812D01*
X610870Y280905D01*
Y280670D01*
X621030D01*
Y290830D01*
D02*
G37*
G36*
X674605D02*
X671595D01*
X668688Y290051D01*
X666082Y288546D01*
X663954Y286418D01*
X662449Y283812D01*
X661670Y280905D01*
Y277895D01*
X662449Y274988D01*
X663954Y272382D01*
X666082Y270254D01*
X668688Y268749D01*
X671595Y267970D01*
X674605D01*
X677512Y268749D01*
X680069Y270225D01*
X703708Y246586D01*
X703739Y246539D01*
X703786Y246508D01*
X730722Y219572D01*
Y217482D01*
X731592Y215381D01*
X733200Y213774D01*
X735300Y212903D01*
X737574D01*
X739674Y213774D01*
X741282Y215381D01*
X742152Y217482D01*
Y219755D01*
X741282Y221856D01*
X739674Y223463D01*
X737574Y224333D01*
X735483D01*
X710889Y248928D01*
X732181Y270220D01*
X732678Y269932D01*
X735262Y269240D01*
X737938D01*
X740522Y269932D01*
X742838Y271270D01*
X744730Y273162D01*
X746068Y275478D01*
X746216Y276033D01*
X777605D01*
X779083Y274555D01*
X781183Y273685D01*
X783457D01*
X785557Y274555D01*
X787165Y276163D01*
X788035Y278263D01*
Y280537D01*
X787165Y282637D01*
X785557Y284245D01*
X783457Y285115D01*
X781183D01*
X779083Y284245D01*
X777605Y282767D01*
X746216D01*
X746068Y283322D01*
X744730Y285638D01*
X742838Y287530D01*
X740522Y288868D01*
X737938Y289560D01*
X735262D01*
X732678Y288868D01*
X730362Y287530D01*
X728470Y285638D01*
X727132Y283322D01*
X726440Y280738D01*
Y278062D01*
X727132Y275478D01*
X727420Y274981D01*
X706128Y253689D01*
X683979Y275838D01*
X684530Y277895D01*
Y280905D01*
X683751Y283812D01*
X682246Y286418D01*
X680118Y288546D01*
X677512Y290051D01*
X674605Y290830D01*
D02*
G37*
G36*
X822960Y278130D02*
X814070D01*
Y269240D01*
X814138D01*
X816722Y269932D01*
X819038Y271270D01*
X820930Y273162D01*
X822268Y275478D01*
X822960Y278062D01*
Y278130D01*
D02*
G37*
G36*
X811530D02*
X802640D01*
Y278062D01*
X803332Y275478D01*
X804670Y273162D01*
X806562Y271270D01*
X808878Y269932D01*
X811462Y269240D01*
X811530D01*
Y278130D01*
D02*
G37*
G36*
X255338Y289560D02*
X252662D01*
X250078Y288868D01*
X247762Y287530D01*
X245870Y285638D01*
X244532Y283322D01*
X243840Y280738D01*
Y278062D01*
X244532Y275478D01*
X245870Y273162D01*
X247762Y271270D01*
X250078Y269932D01*
X252662Y269240D01*
X255338D01*
X257922Y269932D01*
X260238Y271270D01*
X262130Y273162D01*
X263468Y275478D01*
X264160Y278062D01*
Y280738D01*
X263468Y283322D01*
X262130Y285638D01*
X260238Y287530D01*
X257922Y288868D01*
X255338Y289560D01*
D02*
G37*
G36*
X187960Y278130D02*
X179070D01*
Y269240D01*
X179138D01*
X181722Y269932D01*
X184038Y271270D01*
X185930Y273162D01*
X187268Y275478D01*
X187960Y278062D01*
Y278130D01*
D02*
G37*
G36*
X176530D02*
X167640D01*
Y278062D01*
X168332Y275478D01*
X169670Y273162D01*
X171562Y271270D01*
X173878Y269932D01*
X176462Y269240D01*
X176530D01*
Y278130D01*
D02*
G37*
G36*
X659130Y278130D02*
X648970D01*
Y267970D01*
X649205D01*
X652112Y268749D01*
X654718Y270254D01*
X656846Y272382D01*
X658351Y274988D01*
X659130Y277895D01*
Y278130D01*
D02*
G37*
G36*
X646430D02*
X636270D01*
Y277895D01*
X637049Y274988D01*
X638554Y272382D01*
X640682Y270254D01*
X643288Y268749D01*
X646195Y267970D01*
X646430D01*
Y278130D01*
D02*
G37*
G36*
X633730D02*
X623570D01*
Y267970D01*
X623805D01*
X626712Y268749D01*
X629318Y270254D01*
X631446Y272382D01*
X632951Y274988D01*
X633730Y277895D01*
Y278130D01*
D02*
G37*
G36*
X621030D02*
X610870D01*
Y277895D01*
X611649Y274988D01*
X613154Y272382D01*
X615282Y270254D01*
X617888Y268749D01*
X620795Y267970D01*
X621030D01*
Y278130D01*
D02*
G37*
G36*
X608330D02*
X598170D01*
Y267970D01*
X598405D01*
X601312Y268749D01*
X603918Y270254D01*
X606046Y272382D01*
X607551Y274988D01*
X608330Y277895D01*
Y278130D01*
D02*
G37*
G36*
X595630D02*
X585470D01*
Y277895D01*
X586249Y274988D01*
X587754Y272382D01*
X589882Y270254D01*
X592488Y268749D01*
X595395Y267970D01*
X595630D01*
Y278130D01*
D02*
G37*
G36*
X814138Y264160D02*
X814070D01*
Y255270D01*
X822960D01*
Y255338D01*
X822268Y257922D01*
X820930Y260238D01*
X819038Y262130D01*
X816722Y263468D01*
X814138Y264160D01*
D02*
G37*
G36*
X179138D02*
X179070D01*
Y255270D01*
X187960D01*
Y255338D01*
X187268Y257922D01*
X185930Y260238D01*
X184038Y262130D01*
X181722Y263468D01*
X179138Y264160D01*
D02*
G37*
G36*
X176530D02*
X176462D01*
X173878Y263468D01*
X171562Y262130D01*
X169670Y260238D01*
X168332Y257922D01*
X167640Y255338D01*
Y255270D01*
X176530D01*
Y264160D01*
D02*
G37*
G36*
X811530D02*
X811462D01*
X808878Y263468D01*
X806562Y262130D01*
X804670Y260238D01*
X803332Y257922D01*
X802640Y255338D01*
Y255270D01*
X811530D01*
Y264160D01*
D02*
G37*
G36*
X737938D02*
X735262D01*
X732678Y263468D01*
X730362Y262130D01*
X728470Y260238D01*
X727132Y257922D01*
X726440Y255338D01*
Y252662D01*
X727132Y250078D01*
X728470Y247762D01*
X730362Y245870D01*
X732678Y244532D01*
X735262Y243840D01*
X737938D01*
X740522Y244532D01*
X742838Y245870D01*
X744730Y247762D01*
X746068Y250078D01*
X746216Y250633D01*
X777605D01*
X779083Y249155D01*
X781183Y248285D01*
X783457D01*
X785557Y249155D01*
X787165Y250763D01*
X788035Y252863D01*
Y255137D01*
X787165Y257237D01*
X785557Y258845D01*
X783457Y259715D01*
X781183D01*
X779083Y258845D01*
X777605Y257367D01*
X746216D01*
X746068Y257922D01*
X744730Y260238D01*
X742838Y262130D01*
X740522Y263468D01*
X737938Y264160D01*
D02*
G37*
G36*
X822960Y252730D02*
X814070D01*
Y243840D01*
X814138D01*
X816722Y244532D01*
X819038Y245870D01*
X820930Y247762D01*
X822268Y250078D01*
X822960Y252662D01*
Y252730D01*
D02*
G37*
G36*
X811530D02*
X802640D01*
Y252662D01*
X803332Y250078D01*
X804670Y247762D01*
X806562Y245870D01*
X808878Y244532D01*
X811462Y243840D01*
X811530D01*
Y252730D01*
D02*
G37*
G36*
X255338Y264160D02*
X252662D01*
X250078Y263468D01*
X247762Y262130D01*
X245870Y260238D01*
X244532Y257922D01*
X243840Y255338D01*
Y252662D01*
X244532Y250078D01*
X245870Y247762D01*
X247762Y245870D01*
X250078Y244532D01*
X252662Y243840D01*
X255338D01*
X257922Y244532D01*
X260238Y245870D01*
X262130Y247762D01*
X263468Y250078D01*
X264160Y252662D01*
Y255338D01*
X263468Y257922D01*
X262130Y260238D01*
X260238Y262130D01*
X257922Y263468D01*
X255338Y264160D01*
D02*
G37*
G36*
X187960Y252730D02*
X179070D01*
Y243840D01*
X179138D01*
X181722Y244532D01*
X184038Y245870D01*
X185930Y247762D01*
X187268Y250078D01*
X187960Y252662D01*
Y252730D01*
D02*
G37*
G36*
X176530D02*
X167640D01*
Y252662D01*
X168332Y250078D01*
X169670Y247762D01*
X171562Y245870D01*
X173878Y244532D01*
X176462Y243840D01*
X176530D01*
Y252730D01*
D02*
G37*
G36*
X484105Y265430D02*
X481095D01*
X478188Y264651D01*
X475582Y263146D01*
X473454Y261018D01*
X471949Y258412D01*
X471170Y255505D01*
Y252495D01*
X471949Y249588D01*
X473454Y246982D01*
X475582Y244854D01*
X478188Y243349D01*
X481095Y242570D01*
X484105D01*
X487012Y243349D01*
X489618Y244854D01*
X491746Y246982D01*
X493251Y249588D01*
X494030Y252495D01*
Y255505D01*
X493251Y258412D01*
X491746Y261018D01*
X489618Y263146D01*
X487012Y264651D01*
X484105Y265430D01*
D02*
G37*
G36*
X541020Y272607D02*
X523240D01*
X521952Y272350D01*
X520859Y271621D01*
X513349Y264110D01*
X512412Y264651D01*
X509505Y265430D01*
X506495D01*
X503588Y264651D01*
X500982Y263146D01*
X498854Y261018D01*
X497349Y258412D01*
X496570Y255505D01*
Y252495D01*
X497349Y249588D01*
X498854Y246982D01*
X500982Y244854D01*
X503588Y243349D01*
X506495Y242570D01*
X509505D01*
X512412Y243349D01*
X515018Y244854D01*
X517146Y246982D01*
X518651Y249588D01*
X519430Y252495D01*
Y255505D01*
X518651Y258412D01*
X518110Y259349D01*
X524635Y265873D01*
X528339D01*
X528941Y264722D01*
X528905Y264603D01*
X526382Y263146D01*
X524254Y261018D01*
X522749Y258412D01*
X521970Y255505D01*
Y252495D01*
X522749Y249588D01*
X523290Y248651D01*
X518827Y244189D01*
X518098Y243096D01*
X517841Y241808D01*
Y236719D01*
X516571Y236193D01*
X515018Y237746D01*
X512412Y239251D01*
X509505Y240030D01*
X506495D01*
X503588Y239251D01*
X500982Y237746D01*
X498854Y235618D01*
X497349Y233012D01*
X496570Y230105D01*
Y227095D01*
X497349Y224188D01*
X498854Y221582D01*
X500982Y219454D01*
X503588Y217949D01*
X506495Y217170D01*
X509505D01*
X511574Y217724D01*
X543719Y185579D01*
X544812Y184850D01*
X546100Y184593D01*
X550399D01*
X551037Y184466D01*
X556403D01*
X557041Y184593D01*
X558800D01*
X560088Y184850D01*
X561181Y185579D01*
X564196Y188595D01*
X566287D01*
X568387Y189465D01*
X569995Y191073D01*
X570865Y193173D01*
Y195447D01*
X569995Y197547D01*
X568387Y199155D01*
X566287Y200025D01*
X564013D01*
X561913Y199155D01*
X560305Y197547D01*
X560070Y196980D01*
X558800D01*
X558565Y197547D01*
X556957Y199155D01*
X556390Y199390D01*
Y200660D01*
X556957Y200895D01*
X558565Y202503D01*
X559435Y204603D01*
Y206877D01*
X558565Y208977D01*
X557087Y210455D01*
Y256540D01*
X556830Y257828D01*
X556101Y258921D01*
X543401Y271621D01*
X542308Y272350D01*
X541020Y272607D01*
D02*
G37*
G36*
X484105Y240030D02*
X483870D01*
Y229870D01*
X494030D01*
Y230105D01*
X493251Y233012D01*
X491746Y235618D01*
X489618Y237746D01*
X487012Y239251D01*
X484105Y240030D01*
D02*
G37*
G36*
X481330D02*
X481095D01*
X478188Y239251D01*
X475582Y237746D01*
X473454Y235618D01*
X471949Y233012D01*
X471170Y230105D01*
Y229870D01*
X481330D01*
Y240030D01*
D02*
G37*
G36*
X494030Y227330D02*
X483870D01*
Y217170D01*
X484105D01*
X487012Y217949D01*
X489618Y219454D01*
X491746Y221582D01*
X493251Y224188D01*
X494030Y227095D01*
Y227330D01*
D02*
G37*
G36*
X481330D02*
X471170D01*
Y227095D01*
X471949Y224188D01*
X473454Y221582D01*
X475582Y219454D01*
X478188Y217949D01*
X481095Y217170D01*
X481330D01*
Y227330D01*
D02*
G37*
G36*
X584200Y249782D02*
X580068Y249375D01*
X576094Y248170D01*
X572432Y246212D01*
X569222Y243578D01*
X566588Y240368D01*
X564630Y236706D01*
X563425Y232732D01*
X563018Y228600D01*
X563425Y224468D01*
X564630Y220494D01*
X566588Y216832D01*
X569222Y213622D01*
X572432Y210988D01*
X576094Y209030D01*
X580068Y207825D01*
X584200Y207418D01*
X588332Y207825D01*
X592306Y209030D01*
X595968Y210988D01*
X599178Y213622D01*
X601812Y216832D01*
X603770Y220494D01*
X604975Y224468D01*
X605382Y228600D01*
X604975Y232732D01*
X603770Y236706D01*
X601812Y240368D01*
X599178Y243578D01*
X595968Y246212D01*
X592306Y248170D01*
X588332Y249375D01*
X584200Y249782D01*
D02*
G37*
G36*
X304800D02*
X300668Y249375D01*
X296694Y248170D01*
X293032Y246212D01*
X289822Y243578D01*
X287188Y240368D01*
X285230Y236706D01*
X284025Y232732D01*
X283618Y228600D01*
X284025Y224468D01*
X285230Y220494D01*
X287188Y216832D01*
X289822Y213622D01*
X293032Y210988D01*
X296694Y209030D01*
X300668Y207825D01*
X304800Y207418D01*
X308932Y207825D01*
X312906Y209030D01*
X316568Y210988D01*
X319778Y213622D01*
X322412Y216832D01*
X324370Y220494D01*
X325575Y224468D01*
X325982Y228600D01*
X325575Y232732D01*
X324370Y236706D01*
X322412Y240368D01*
X319778Y243578D01*
X316568Y246212D01*
X312906Y248170D01*
X308932Y249375D01*
X304800Y249782D01*
D02*
G37*
%LPD*%
G36*
X441970Y590396D02*
X441787Y589954D01*
Y587879D01*
X398156Y544248D01*
X396050D01*
X395282Y543930D01*
X394310Y544902D01*
X394335Y544963D01*
Y547054D01*
X438466Y591185D01*
X440557D01*
X440998Y591368D01*
X441970Y590396D01*
D02*
G37*
G36*
X550353Y255145D02*
Y210455D01*
X548875Y208977D01*
X548005Y206877D01*
Y204603D01*
X548875Y202503D01*
X550483Y200895D01*
X551050Y200660D01*
Y199390D01*
X550483Y199155D01*
X549005Y197677D01*
X548764D01*
X530107Y216334D01*
X530764Y217473D01*
X531895Y217170D01*
X534905D01*
X537812Y217949D01*
X540418Y219454D01*
X542546Y221582D01*
X544051Y224188D01*
X544830Y227095D01*
Y230105D01*
X544051Y233012D01*
X542546Y235618D01*
X540418Y237746D01*
X537812Y239251D01*
X534905Y240030D01*
X531895D01*
X528988Y239251D01*
X526382Y237746D01*
X525748Y237113D01*
X524575Y237598D01*
Y240413D01*
X528051Y243890D01*
X528988Y243349D01*
X531895Y242570D01*
X534905D01*
X537812Y243349D01*
X540418Y244854D01*
X542546Y246982D01*
X544051Y249588D01*
X544830Y252495D01*
Y255505D01*
X544051Y258412D01*
X542546Y261018D01*
X540418Y263146D01*
X537895Y264603D01*
X537859Y264722D01*
X538402Y265760D01*
X539638Y265861D01*
X550353Y255145D01*
D02*
G37*
D10*
X444500Y549910D02*
X482898Y511512D01*
Y501352D02*
Y511512D01*
Y501352D02*
X483870Y500380D01*
X408940Y703580D02*
X474980D01*
X407445Y607285D02*
Y607285D01*
X386490Y586330D02*
X407445Y607285D01*
X386490Y586330D02*
X386490D01*
D12*
X596809Y946606D02*
G03*
X501932Y957534I-101509J-464006D01*
G01*
X604382Y950983D02*
G03*
X495300Y963518I-109082J-468383D01*
G01*
X689263Y677257D02*
X734983D01*
X688340Y678180D02*
X689263Y677257D01*
X734983D02*
X736600Y675640D01*
X397187Y538533D02*
X397202D01*
X447487Y588818D02*
X447502D01*
X397202Y538533D02*
X447487Y588818D01*
X589153Y911860D02*
X596773Y904240D01*
X581660Y911860D02*
X589153D01*
X577748Y907948D02*
X581660Y911860D01*
X577748Y889316D02*
Y907948D01*
X596519Y897636D02*
X600964D01*
X592075D02*
X596519D01*
X596748Y897407D01*
Y889316D02*
Y897407D01*
X501932Y941532D02*
Y957534D01*
X501800Y941400D02*
X501932Y941532D01*
X596809Y939963D02*
Y946606D01*
X604266Y950867D02*
X604382Y950983D01*
X604266Y900938D02*
Y950867D01*
X600964Y897636D02*
X604266Y900938D01*
X585344Y904367D02*
X592075Y897636D01*
X495300Y941400D02*
Y963518D01*
X596773Y939927D02*
X596809Y939963D01*
X596773Y904240D02*
Y939927D01*
X736600Y254000D02*
X782320D01*
X736600Y279400D02*
X782320D01*
X508000Y226060D02*
X546100Y187960D01*
X556530D02*
X558800D01*
X565150Y194310D01*
X546100Y187960D02*
X550910D01*
X551037Y187833D02*
X556403D01*
X550910Y187960D02*
X551037Y187833D01*
X556403D02*
X556530Y187960D01*
X553720Y205740D02*
Y256540D01*
X523240Y269240D02*
X541020D01*
X553720Y256540D01*
X521208Y220472D02*
Y241808D01*
X533400Y254000D01*
X521208Y220472D02*
X547370Y194310D01*
X553720D01*
X508000Y226060D02*
Y228600D01*
X551180Y586740D02*
X568960Y604520D01*
X388620Y546100D02*
X439420Y596900D01*
X674378Y280678D02*
X706128Y248928D01*
X673108Y281948D02*
X674378Y280678D01*
X706128Y248928D02*
X736600Y279400D01*
X706120Y248920D02*
X706128Y248928D01*
X736437Y218619D01*
X254000Y558800D02*
X293878D01*
X508000Y254000D02*
X523240Y269240D01*
X436110Y508770D02*
X462280Y482600D01*
D15*
X510532Y931177D02*
X533387D01*
X542544Y922020D01*
Y900720D02*
Y922020D01*
X532765Y890941D02*
X542544Y900720D01*
X508300Y933409D02*
Y941400D01*
Y933409D02*
X510532Y931177D01*
X532765Y889635D02*
X542529Y879871D01*
X585978Y883085D02*
Y888046D01*
X587248Y889316D01*
X582764Y879871D02*
X585978Y883085D01*
X542529Y879871D02*
X582764D01*
X532765Y889635D02*
Y890941D01*
X537210Y358140D02*
Y435610D01*
X548640Y447040D02*
X558299Y437381D01*
X563508D02*
X564713Y438587D01*
X558299Y437381D02*
X563508D01*
D34*
X564713Y438587D02*
D03*
X585907Y417393D02*
D03*
X546933Y420807D02*
D03*
X568127Y399613D02*
D03*
D77*
X648970Y703580D02*
D03*
X674370D02*
D03*
X598170D02*
D03*
X623570D02*
D03*
X649010Y655590D02*
D03*
X674410D02*
D03*
X598210D02*
D03*
X623610D02*
D03*
X457200Y330200D02*
D03*
Y304800D02*
D03*
Y381000D02*
D03*
Y355600D02*
D03*
X406400D02*
D03*
Y381000D02*
D03*
Y304800D02*
D03*
Y330200D02*
D03*
X525780Y655320D02*
D03*
X551180D02*
D03*
X474980D02*
D03*
X500380D02*
D03*
X525780Y703580D02*
D03*
X551180D02*
D03*
X474980D02*
D03*
X500380D02*
D03*
X622300Y279400D02*
D03*
X596900D02*
D03*
X673100D02*
D03*
X647700D02*
D03*
X622300Y330200D02*
D03*
X596900D02*
D03*
X673100D02*
D03*
X647700D02*
D03*
X344170Y702056D02*
D03*
X369570D02*
D03*
X293370D02*
D03*
X318770D02*
D03*
X319786Y655320D02*
D03*
X294386D02*
D03*
X370586D02*
D03*
X345186D02*
D03*
X739140Y828040D02*
D03*
X713740D02*
D03*
X789940D02*
D03*
X764540D02*
D03*
X739140Y782320D02*
D03*
X713740D02*
D03*
X789940D02*
D03*
X764540D02*
D03*
X482600Y228600D02*
D03*
Y254000D02*
D03*
X508000Y228600D02*
D03*
Y254000D02*
D03*
X533400Y228600D02*
D03*
Y254000D02*
D03*
D78*
X572770Y752856D02*
D03*
X598170D02*
D03*
X420370D02*
D03*
X394970D02*
D03*
D79*
X736600Y701040D02*
D03*
Y675640D02*
D03*
Y650240D02*
D03*
Y624840D02*
D03*
Y599440D02*
D03*
Y574040D02*
D03*
Y548640D02*
D03*
Y523240D02*
D03*
Y497840D02*
D03*
Y472440D02*
D03*
X254000Y254000D02*
D03*
Y279400D02*
D03*
Y304800D02*
D03*
Y330200D02*
D03*
Y355600D02*
D03*
Y381000D02*
D03*
X177800D02*
D03*
Y355600D02*
D03*
Y330200D02*
D03*
Y304800D02*
D03*
Y279400D02*
D03*
Y254000D02*
D03*
X812800D02*
D03*
Y279400D02*
D03*
Y304800D02*
D03*
Y330200D02*
D03*
Y355600D02*
D03*
Y381000D02*
D03*
Y406400D02*
D03*
Y431800D02*
D03*
X736600Y254000D02*
D03*
Y279400D02*
D03*
Y304800D02*
D03*
Y330200D02*
D03*
Y355600D02*
D03*
Y381000D02*
D03*
Y406400D02*
D03*
Y431800D02*
D03*
X177800Y609600D02*
D03*
Y584200D02*
D03*
Y558800D02*
D03*
Y533400D02*
D03*
Y508000D02*
D03*
Y482600D02*
D03*
Y457200D02*
D03*
Y431800D02*
D03*
X254000Y609600D02*
D03*
Y584200D02*
D03*
Y558800D02*
D03*
Y533400D02*
D03*
Y508000D02*
D03*
Y482600D02*
D03*
Y457200D02*
D03*
Y431800D02*
D03*
X812800Y472440D02*
D03*
Y497840D02*
D03*
Y523240D02*
D03*
Y548640D02*
D03*
Y574040D02*
D03*
Y599440D02*
D03*
Y624840D02*
D03*
Y650240D02*
D03*
Y675640D02*
D03*
Y701040D02*
D03*
X645160Y502920D02*
D03*
D80*
X460300Y914400D02*
D03*
X530300D02*
D03*
D81*
X470300Y941400D02*
D03*
X520300D02*
D03*
D82*
X450070Y847650D02*
D03*
D83*
X496570Y822650D02*
D03*
Y882650D02*
D03*
D84*
X521970Y752856D02*
D03*
X496570D02*
D03*
X471170D02*
D03*
D85*
X688340Y678180D02*
D03*
X447502Y588818D02*
D03*
X471275Y494180D02*
D03*
X782320Y254000D02*
D03*
Y279400D02*
D03*
X546100Y99568D02*
D03*
X433070Y539750D02*
D03*
X728980Y867410D02*
D03*
X369316Y792226D02*
D03*
X504190Y784860D02*
D03*
X523240Y198120D02*
D03*
X403860D02*
D03*
X452120Y241300D02*
D03*
X386080D02*
D03*
X286512Y792226D02*
D03*
X458470Y791464D02*
D03*
X375920Y840740D02*
D03*
X294640D02*
D03*
X568960Y604520D02*
D03*
X439420Y596900D02*
D03*
X388620Y546100D02*
D03*
X397187Y538533D02*
D03*
X585344Y904367D02*
D03*
X596773Y904240D02*
D03*
X626110Y811530D02*
D03*
X684530Y792480D02*
D03*
X671830Y867410D02*
D03*
X695875Y170327D02*
D03*
X695960Y890270D02*
D03*
X634746Y905510D02*
D03*
X625094Y467360D02*
D03*
X609092Y493522D02*
D03*
X608584Y441452D02*
D03*
X556768Y476250D02*
D03*
X495300Y96520D02*
D03*
X445770Y100330D02*
D03*
X394970Y110490D02*
D03*
X347980Y127000D02*
D03*
X302260Y148590D02*
D03*
X518250Y466611D02*
D03*
X506222Y454914D02*
D03*
X293878Y558800D02*
D03*
X565150Y194310D02*
D03*
X553720Y205740D02*
D03*
Y194310D02*
D03*
X736437Y218619D02*
D03*
X462280Y482600D02*
D03*
X436110Y508770D02*
D03*
X551180Y586740D02*
D03*
D86*
X645160Y429260D02*
D03*
D87*
X483870Y500380D02*
D03*
X532765Y889635D02*
D03*
X407445Y607285D02*
D03*
X386490Y586330D02*
D03*
X408940Y703580D02*
D03*
X444500Y549910D02*
D03*
X537958Y358337D02*
D03*
X548640Y447040D02*
D03*
X537210Y435610D02*
D03*
D88*
X485300Y914400D02*
D03*
X505300D02*
D03*
D89*
X482300Y941400D02*
D03*
X488800D02*
D03*
X495300D02*
D03*
X501800D02*
D03*
X508300D02*
D03*
D90*
X596748Y889316D02*
D03*
X587248D02*
D03*
X577748D02*
D03*
Y865691D02*
D03*
X587248Y865691D02*
D03*
X596748Y865691D02*
D03*
M02*
