G04*
G04 #@! TF.GenerationSoftware,Altium Limited,Altium Designer,24.2.2 (26)*
G04*
G04 Layer_Color=2752767*
%FSLAX44Y44*%
%MOMM*%
G71*
G04*
G04 #@! TF.SameCoordinates,14A9DA51-42A2-44A4-A91A-1E31E54FDAF6*
G04*
G04*
G04 #@! TF.FilePolarity,Positive*
G04*
G01*
G75*
%ADD17C,0.1270*%
%ADD96C,0.1693*%
%ADD97C,0.1016*%
D17*
X643890Y698500D02*
X646430Y703580D01*
X643890Y708660D01*
X648970Y706120D01*
X654050Y708660D01*
X651510Y703580D01*
X654050Y698500D01*
X648970Y701040D01*
X643890Y698500D01*
X669290D02*
X671830Y703580D01*
X669290Y708660D01*
X674370Y706120D01*
X679450Y708660D01*
X676910Y703580D01*
X679450Y698500D01*
X674370Y701040D01*
X669290Y698500D01*
X593090D02*
X595630Y703580D01*
X593090Y708660D01*
X598170Y706120D01*
X603250Y708660D01*
X600710Y703580D01*
X603250Y698500D01*
X598170Y701040D01*
X593090Y698500D01*
X618490D02*
X621030Y703580D01*
X618490Y708660D01*
X623570Y706120D01*
X628650Y708660D01*
X626110Y703580D01*
X628650Y698500D01*
X623570Y701040D01*
X618490Y698500D01*
X643930Y650510D02*
X646470Y655590D01*
X643930Y660670D01*
X649010Y658130D01*
X654090Y660670D01*
X651550Y655590D01*
X654090Y650510D01*
X649010Y653050D01*
X643930Y650510D01*
X669330D02*
X671870Y655590D01*
X669330Y660670D01*
X674410Y658130D01*
X679490Y660670D01*
X676950Y655590D01*
X679490Y650510D01*
X674410Y653050D01*
X669330Y650510D01*
X593130D02*
X595670Y655590D01*
X593130Y660670D01*
X598210Y658130D01*
X603290Y660670D01*
X600750Y655590D01*
X603290Y650510D01*
X598210Y653050D01*
X593130Y650510D01*
X618530D02*
X621070Y655590D01*
X618530Y660670D01*
X623610Y658130D01*
X628690Y660670D01*
X626150Y655590D01*
X628690Y650510D01*
X623610Y653050D01*
X618530Y650510D01*
X567690Y747776D02*
Y757936D01*
X577850D01*
Y747776D01*
X567690D01*
X593090D02*
Y757936D01*
X603250D01*
Y747776D01*
X593090D01*
X457760Y911860D02*
Y909320D01*
X462840D01*
Y911860D01*
X465380D01*
Y916940D01*
X462840D01*
Y919480D01*
X457760D01*
Y916940D01*
X455220D01*
Y911860D01*
X457760D01*
X527760D02*
Y909320D01*
X532840D01*
Y911860D01*
X535380D01*
Y916940D01*
X532840D01*
Y919480D01*
X527760D01*
Y916940D01*
X525220D01*
Y911860D01*
X527760D01*
X465220Y936320D02*
X467760D01*
X470300Y938860D01*
X472840Y936320D01*
X475380D01*
Y938860D01*
X472840Y941400D01*
X475380Y943940D01*
Y946480D01*
X472840D01*
X470300Y943940D01*
X467760Y946480D01*
X465220D01*
Y943940D01*
X467760Y941400D01*
X465220Y938860D01*
Y936320D01*
X515220D02*
X517760D01*
X520300Y938860D01*
X522840Y936320D01*
X525380D01*
Y938860D01*
X522840Y941400D01*
X525380Y943940D01*
Y946480D01*
X522840D01*
X520300Y943940D01*
X517760Y946480D01*
X515220D01*
Y943940D01*
X517760Y941400D01*
X515220Y938860D01*
Y936320D01*
X452120Y325120D02*
X454660Y330200D01*
X452120Y335280D01*
X457200Y332740D01*
X462280Y335280D01*
X459740Y330200D01*
X462280Y325120D01*
X457200Y327660D01*
X452120Y325120D01*
Y299720D02*
X454660Y304800D01*
X452120Y309880D01*
X457200Y307340D01*
X462280Y309880D01*
X459740Y304800D01*
X462280Y299720D01*
X457200Y302260D01*
X452120Y299720D01*
Y375920D02*
X454660Y381000D01*
X452120Y386080D01*
X457200Y383540D01*
X462280Y386080D01*
X459740Y381000D01*
X462280Y375920D01*
X457200Y378460D01*
X452120Y375920D01*
Y350520D02*
X454660Y355600D01*
X452120Y360680D01*
X457200Y358140D01*
X462280Y360680D01*
X459740Y355600D01*
X462280Y350520D01*
X457200Y353060D01*
X452120Y350520D01*
X401320D02*
X403860Y355600D01*
X401320Y360680D01*
X406400Y358140D01*
X411480Y360680D01*
X408940Y355600D01*
X411480Y350520D01*
X406400Y353060D01*
X401320Y350520D01*
Y375920D02*
X403860Y381000D01*
X401320Y386080D01*
X406400Y383540D01*
X411480Y386080D01*
X408940Y381000D01*
X411480Y375920D01*
X406400Y378460D01*
X401320Y375920D01*
Y299720D02*
X403860Y304800D01*
X401320Y309880D01*
X406400Y307340D01*
X411480Y309880D01*
X408940Y304800D01*
X411480Y299720D01*
X406400Y302260D01*
X401320Y299720D01*
Y325120D02*
X403860Y330200D01*
X401320Y335280D01*
X406400Y332740D01*
X411480Y335280D01*
X408940Y330200D01*
X411480Y325120D01*
X406400Y327660D01*
X401320Y325120D01*
X450070Y842570D02*
X452610Y845110D01*
X455150D01*
X452610Y847650D01*
X455150Y850190D01*
X452610D01*
X450070Y852730D01*
X447530Y850190D01*
X444990D01*
X447530Y847650D01*
X444990Y845110D01*
X447530D01*
X450070Y842570D01*
X496570Y817570D02*
X499110Y820110D01*
X501650D01*
X499110Y822650D01*
X501650Y825190D01*
X499110D01*
X496570Y827730D01*
X494030Y825190D01*
X491490D01*
X494030Y822650D01*
X491490Y820110D01*
X494030D01*
X496570Y817570D01*
Y819602D02*
X498094Y821126D01*
X499618D01*
X498094Y822650D01*
X499618Y824174D01*
X498094D01*
X496570Y825698D01*
X495046Y824174D01*
X493522D01*
X495046Y822650D01*
X493522Y821126D01*
X495046D01*
X496570Y819602D01*
Y877570D02*
X499110Y880110D01*
X501650D01*
X499110Y882650D01*
X501650Y885190D01*
X499110D01*
X496570Y887730D01*
X494030Y885190D01*
X491490D01*
X494030Y882650D01*
X491490Y880110D01*
X494030D01*
X496570Y877570D01*
Y879602D02*
X498094Y881126D01*
X499618D01*
X498094Y882650D01*
X499618Y884174D01*
X498094D01*
X496570Y885698D01*
X495046Y884174D01*
X493522D01*
X495046Y882650D01*
X493522Y881126D01*
X495046D01*
X496570Y879602D01*
X520700Y650240D02*
X523240Y655320D01*
X520700Y660400D01*
X525780Y657860D01*
X530860Y660400D01*
X528320Y655320D01*
X530860Y650240D01*
X525780Y652780D01*
X520700Y650240D01*
X546100D02*
X548640Y655320D01*
X546100Y660400D01*
X551180Y657860D01*
X556260Y660400D01*
X553720Y655320D01*
X556260Y650240D01*
X551180Y652780D01*
X546100Y650240D01*
X469900D02*
X472440Y655320D01*
X469900Y660400D01*
X474980Y657860D01*
X480060Y660400D01*
X477520Y655320D01*
X480060Y650240D01*
X474980Y652780D01*
X469900Y650240D01*
X495300D02*
X497840Y655320D01*
X495300Y660400D01*
X500380Y657860D01*
X505460Y660400D01*
X502920Y655320D01*
X505460Y650240D01*
X500380Y652780D01*
X495300Y650240D01*
X520700Y698500D02*
X523240Y703580D01*
X520700Y708660D01*
X525780Y706120D01*
X530860Y708660D01*
X528320Y703580D01*
X530860Y698500D01*
X525780Y701040D01*
X520700Y698500D01*
X546100D02*
X548640Y703580D01*
X546100Y708660D01*
X551180Y706120D01*
X556260Y708660D01*
X553720Y703580D01*
X556260Y698500D01*
X551180Y701040D01*
X546100Y698500D01*
X469900D02*
X472440Y703580D01*
X469900Y708660D01*
X474980Y706120D01*
X480060Y708660D01*
X477520Y703580D01*
X480060Y698500D01*
X474980Y701040D01*
X469900Y698500D01*
X495300D02*
X497840Y703580D01*
X495300Y708660D01*
X500380Y706120D01*
X505460Y708660D01*
X502920Y703580D01*
X505460Y698500D01*
X500380Y701040D01*
X495300Y698500D01*
X617220Y274320D02*
X619760Y279400D01*
X617220Y284480D01*
X622300Y281940D01*
X627380Y284480D01*
X624840Y279400D01*
X627380Y274320D01*
X622300Y276860D01*
X617220Y274320D01*
X591820D02*
X594360Y279400D01*
X591820Y284480D01*
X596900Y281940D01*
X601980Y284480D01*
X599440Y279400D01*
X601980Y274320D01*
X596900Y276860D01*
X591820Y274320D01*
X668020D02*
X670560Y279400D01*
X668020Y284480D01*
X673100Y281940D01*
X678180Y284480D01*
X675640Y279400D01*
X678180Y274320D01*
X673100Y276860D01*
X668020Y274320D01*
X642620D02*
X645160Y279400D01*
X642620Y284480D01*
X647700Y281940D01*
X652780Y284480D01*
X650240Y279400D01*
X652780Y274320D01*
X647700Y276860D01*
X642620Y274320D01*
X617220Y325120D02*
X619760Y330200D01*
X617220Y335280D01*
X622300Y332740D01*
X627380Y335280D01*
X624840Y330200D01*
X627380Y325120D01*
X622300Y327660D01*
X617220Y325120D01*
X591820D02*
X594360Y330200D01*
X591820Y335280D01*
X596900Y332740D01*
X601980Y335280D01*
X599440Y330200D01*
X601980Y325120D01*
X596900Y327660D01*
X591820Y325120D01*
X668020D02*
X670560Y330200D01*
X668020Y335280D01*
X673100Y332740D01*
X678180Y335280D01*
X675640Y330200D01*
X678180Y325120D01*
X673100Y327660D01*
X668020Y325120D01*
X642620D02*
X645160Y330200D01*
X642620Y335280D01*
X647700Y332740D01*
X652780Y335280D01*
X650240Y330200D01*
X652780Y325120D01*
X647700Y327660D01*
X642620Y325120D01*
X339090Y696976D02*
X341630Y702056D01*
X339090Y707136D01*
X344170Y704596D01*
X349250Y707136D01*
X346710Y702056D01*
X349250Y696976D01*
X344170Y699516D01*
X339090Y696976D01*
X364490D02*
X367030Y702056D01*
X364490Y707136D01*
X369570Y704596D01*
X374650Y707136D01*
X372110Y702056D01*
X374650Y696976D01*
X369570Y699516D01*
X364490Y696976D01*
X288290D02*
X290830Y702056D01*
X288290Y707136D01*
X293370Y704596D01*
X298450Y707136D01*
X295910Y702056D01*
X298450Y696976D01*
X293370Y699516D01*
X288290Y696976D01*
X313690D02*
X316230Y702056D01*
X313690Y707136D01*
X318770Y704596D01*
X323850Y707136D01*
X321310Y702056D01*
X323850Y696976D01*
X318770Y699516D01*
X313690Y696976D01*
X314706Y650240D02*
X317246Y655320D01*
X314706Y660400D01*
X319786Y657860D01*
X324866Y660400D01*
X322326Y655320D01*
X324866Y650240D01*
X319786Y652780D01*
X314706Y650240D01*
X289306D02*
X291846Y655320D01*
X289306Y660400D01*
X294386Y657860D01*
X299466Y660400D01*
X296926Y655320D01*
X299466Y650240D01*
X294386Y652780D01*
X289306Y650240D01*
X365506D02*
X368046Y655320D01*
X365506Y660400D01*
X370586Y657860D01*
X375666Y660400D01*
X373126Y655320D01*
X375666Y650240D01*
X370586Y652780D01*
X365506Y650240D01*
X340106D02*
X342646Y655320D01*
X340106Y660400D01*
X345186Y657860D01*
X350266Y660400D01*
X347726Y655320D01*
X350266Y650240D01*
X345186Y652780D01*
X340106Y650240D01*
X734060Y822960D02*
X736600Y828040D01*
X734060Y833120D01*
X739140Y830580D01*
X744220Y833120D01*
X741680Y828040D01*
X744220Y822960D01*
X739140Y825500D01*
X734060Y822960D01*
X708660D02*
X711200Y828040D01*
X708660Y833120D01*
X713740Y830580D01*
X718820Y833120D01*
X716280Y828040D01*
X718820Y822960D01*
X713740Y825500D01*
X708660Y822960D01*
X784860D02*
X787400Y828040D01*
X784860Y833120D01*
X789940Y830580D01*
X795020Y833120D01*
X792480Y828040D01*
X795020Y822960D01*
X789940Y825500D01*
X784860Y822960D01*
X759460D02*
X762000Y828040D01*
X759460Y833120D01*
X764540Y830580D01*
X769620Y833120D01*
X767080Y828040D01*
X769620Y822960D01*
X764540Y825500D01*
X759460Y822960D01*
X734060Y777240D02*
X736600Y782320D01*
X734060Y787400D01*
X739140Y784860D01*
X744220Y787400D01*
X741680Y782320D01*
X744220Y777240D01*
X739140Y779780D01*
X734060Y777240D01*
X708660D02*
X711200Y782320D01*
X708660Y787400D01*
X713740Y784860D01*
X718820Y787400D01*
X716280Y782320D01*
X718820Y777240D01*
X713740Y779780D01*
X708660Y777240D01*
X784860D02*
X787400Y782320D01*
X784860Y787400D01*
X789940Y784860D01*
X795020Y787400D01*
X792480Y782320D01*
X795020Y777240D01*
X789940Y779780D01*
X784860Y777240D01*
X759460D02*
X762000Y782320D01*
X759460Y787400D01*
X764540Y784860D01*
X769620Y787400D01*
X767080Y782320D01*
X769620Y777240D01*
X764540Y779780D01*
X759460Y777240D01*
X415290Y747776D02*
Y757936D01*
X425450D01*
Y747776D01*
X415290D01*
X389890D02*
Y757936D01*
X400050D01*
Y747776D01*
X389890D01*
X688340Y673100D02*
X683260Y683260D01*
X693420D01*
X688340Y673100D01*
X447502Y583738D02*
X442422Y593898D01*
X452582D01*
X447502Y583738D01*
X645160Y424180D02*
X640080Y434340D01*
X650240D01*
X645160Y424180D01*
Y426212D02*
X642112Y432308D01*
X648208D01*
X645160Y426212D01*
X478790Y500380D02*
X483870Y505460D01*
X488950Y500380D01*
X483870Y495300D01*
X478790Y500380D01*
X471275Y489100D02*
X466195Y499260D01*
X476355D01*
X471275Y489100D01*
X527685Y889635D02*
X532765Y894715D01*
X537845Y889635D01*
X532765Y884555D01*
X527685Y889635D01*
X782320Y248920D02*
X777240Y259080D01*
X787400D01*
X782320Y248920D01*
Y274320D02*
X777240Y284480D01*
X787400D01*
X782320Y274320D01*
X546100Y94488D02*
X541020Y104648D01*
X551180D01*
X546100Y94488D01*
X433070Y534670D02*
X427990Y544830D01*
X438150D01*
X433070Y534670D01*
X728980Y862330D02*
X723900Y872490D01*
X734060D01*
X728980Y862330D01*
X369316Y787146D02*
X364236Y797306D01*
X374396D01*
X369316Y787146D01*
X504190Y779780D02*
X499110Y789940D01*
X509270D01*
X504190Y779780D01*
X523240Y193040D02*
X518160Y203200D01*
X528320D01*
X523240Y193040D01*
X403860D02*
X398780Y203200D01*
X408940D01*
X403860Y193040D01*
X452120Y236220D02*
X447040Y246380D01*
X457200D01*
X452120Y236220D01*
X386080D02*
X381000Y246380D01*
X391160D01*
X386080Y236220D01*
X402365Y607285D02*
X407445Y612365D01*
X412525Y607285D01*
X407445Y602205D01*
X402365Y607285D01*
X381410Y586330D02*
X386490Y591410D01*
X391570Y586330D01*
X386490Y581250D01*
X381410Y586330D01*
X403860Y703580D02*
X408940Y708660D01*
X414020Y703580D01*
X408940Y698500D01*
X403860Y703580D01*
X286512Y787146D02*
X281432Y797306D01*
X291592D01*
X286512Y787146D01*
X458470Y786384D02*
X453390Y796544D01*
X463550D01*
X458470Y786384D01*
X375920Y835660D02*
X370840Y845820D01*
X381000D01*
X375920Y835660D01*
X294640D02*
X289560Y845820D01*
X299720D01*
X294640Y835660D01*
X568960Y599440D02*
X563880Y609600D01*
X574040D01*
X568960Y599440D01*
X439420Y591820D02*
X434340Y601980D01*
X444500D01*
X439420Y591820D01*
X388620Y541020D02*
X383540Y551180D01*
X393700D01*
X388620Y541020D01*
X397187Y533453D02*
X392107Y543613D01*
X402267D01*
X397187Y533453D01*
X585344Y899287D02*
X580264Y909447D01*
X590424D01*
X585344Y899287D01*
X596773Y899160D02*
X591693Y909320D01*
X601853D01*
X596773Y899160D01*
X626110Y806450D02*
X621030Y816610D01*
X631190D01*
X626110Y806450D01*
X684530Y787400D02*
X679450Y797560D01*
X689610D01*
X684530Y787400D01*
X439420Y549910D02*
X444500Y554990D01*
X449580Y549910D01*
X444500Y544830D01*
X439420Y549910D01*
X671830Y862330D02*
X666750Y872490D01*
X676910D01*
X671830Y862330D01*
X695875Y165247D02*
X690795Y175407D01*
X700955D01*
X695875Y165247D01*
X695960Y885190D02*
X690880Y895350D01*
X701040D01*
X695960Y885190D01*
X634746Y900430D02*
X629666Y910590D01*
X639826D01*
X634746Y900430D01*
X625094Y462280D02*
X620014Y472440D01*
X630174D01*
X625094Y462280D01*
X609092Y488442D02*
X604012Y498602D01*
X614172D01*
X609092Y488442D01*
X608584Y436372D02*
X603504Y446532D01*
X613664D01*
X608584Y436372D01*
X556768Y471170D02*
X551688Y481330D01*
X561848D01*
X556768Y471170D01*
X495300Y91440D02*
X490220Y101600D01*
X500380D01*
X495300Y91440D01*
X445770Y95250D02*
X440690Y105410D01*
X450850D01*
X445770Y95250D01*
X394970Y105410D02*
X389890Y115570D01*
X400050D01*
X394970Y105410D01*
X347980Y121920D02*
X342900Y132080D01*
X353060D01*
X347980Y121920D01*
X302260Y143510D02*
X297180Y153670D01*
X307340D01*
X302260Y143510D01*
X518250Y461531D02*
X513170Y471691D01*
X523330D01*
X518250Y461531D01*
X506222Y449834D02*
X501142Y459994D01*
X511302D01*
X506222Y449834D01*
X293878Y553720D02*
X288798Y563880D01*
X298958D01*
X293878Y553720D01*
X565150Y189230D02*
X560070Y199390D01*
X570230D01*
X565150Y189230D01*
X553720Y200660D02*
X548640Y210820D01*
X558800D01*
X553720Y200660D01*
Y189230D02*
X548640Y199390D01*
X558800D01*
X553720Y189230D01*
X532878Y358337D02*
X537958Y363417D01*
X543038Y358337D01*
X537958Y353257D01*
X532878Y358337D01*
X736437Y213538D02*
X731357Y223699D01*
X741517D01*
X736437Y213538D01*
X462280Y477520D02*
X457200Y487680D01*
X467360D01*
X462280Y477520D01*
X436110Y503690D02*
X431030Y513850D01*
X441190D01*
X436110Y503690D01*
X543560Y447040D02*
X548640Y452120D01*
X553720Y447040D01*
X548640Y441960D01*
X543560Y447040D01*
X532130Y435610D02*
X537210Y440690D01*
X542290Y435610D01*
X537210Y430530D01*
X532130Y435610D01*
X551180Y581660D02*
X546100Y591820D01*
X556260D01*
X551180Y581660D01*
D96*
X741680Y701040D02*
G03*
X741680Y701040I-5080J0D01*
G01*
Y675640D02*
G03*
X741680Y675640I-5080J0D01*
G01*
X527050Y752856D02*
G03*
X527050Y752856I-5080J0D01*
G01*
X501650D02*
G03*
X501650Y752856I-5080J0D01*
G01*
X476250D02*
G03*
X476250Y752856I-5080J0D01*
G01*
X741680Y650240D02*
G03*
X741680Y650240I-5080J0D01*
G01*
Y624840D02*
G03*
X741680Y624840I-5080J0D01*
G01*
Y599440D02*
G03*
X741680Y599440I-5080J0D01*
G01*
Y574040D02*
G03*
X741680Y574040I-5080J0D01*
G01*
Y548640D02*
G03*
X741680Y548640I-5080J0D01*
G01*
Y523240D02*
G03*
X741680Y523240I-5080J0D01*
G01*
Y497840D02*
G03*
X741680Y497840I-5080J0D01*
G01*
Y472440D02*
G03*
X741680Y472440I-5080J0D01*
G01*
X487680Y228600D02*
G03*
X487680Y228600I-5080J0D01*
G01*
Y254000D02*
G03*
X487680Y254000I-5080J0D01*
G01*
X513080Y228600D02*
G03*
X513080Y228600I-5080J0D01*
G01*
Y254000D02*
G03*
X513080Y254000I-5080J0D01*
G01*
X538480Y228600D02*
G03*
X538480Y228600I-5080J0D01*
G01*
Y254000D02*
G03*
X538480Y254000I-5080J0D01*
G01*
X259080D02*
G03*
X259080Y254000I-5080J0D01*
G01*
Y279400D02*
G03*
X259080Y279400I-5080J0D01*
G01*
Y304800D02*
G03*
X259080Y304800I-5080J0D01*
G01*
Y330200D02*
G03*
X259080Y330200I-5080J0D01*
G01*
Y355600D02*
G03*
X259080Y355600I-5080J0D01*
G01*
Y381000D02*
G03*
X259080Y381000I-5080J0D01*
G01*
X182880D02*
G03*
X182880Y381000I-5080J0D01*
G01*
Y355600D02*
G03*
X182880Y355600I-5080J0D01*
G01*
Y330200D02*
G03*
X182880Y330200I-5080J0D01*
G01*
Y304800D02*
G03*
X182880Y304800I-5080J0D01*
G01*
Y279400D02*
G03*
X182880Y279400I-5080J0D01*
G01*
Y254000D02*
G03*
X182880Y254000I-5080J0D01*
G01*
X817880D02*
G03*
X817880Y254000I-5080J0D01*
G01*
Y279400D02*
G03*
X817880Y279400I-5080J0D01*
G01*
Y304800D02*
G03*
X817880Y304800I-5080J0D01*
G01*
Y330200D02*
G03*
X817880Y330200I-5080J0D01*
G01*
Y355600D02*
G03*
X817880Y355600I-5080J0D01*
G01*
Y381000D02*
G03*
X817880Y381000I-5080J0D01*
G01*
Y406400D02*
G03*
X817880Y406400I-5080J0D01*
G01*
Y431800D02*
G03*
X817880Y431800I-5080J0D01*
G01*
X741680Y254000D02*
G03*
X741680Y254000I-5080J0D01*
G01*
Y279400D02*
G03*
X741680Y279400I-5080J0D01*
G01*
Y304800D02*
G03*
X741680Y304800I-5080J0D01*
G01*
Y330200D02*
G03*
X741680Y330200I-5080J0D01*
G01*
Y355600D02*
G03*
X741680Y355600I-5080J0D01*
G01*
Y381000D02*
G03*
X741680Y381000I-5080J0D01*
G01*
Y406400D02*
G03*
X741680Y406400I-5080J0D01*
G01*
Y431800D02*
G03*
X741680Y431800I-5080J0D01*
G01*
X182880Y609600D02*
G03*
X182880Y609600I-5080J0D01*
G01*
Y584200D02*
G03*
X182880Y584200I-5080J0D01*
G01*
Y558800D02*
G03*
X182880Y558800I-5080J0D01*
G01*
Y533400D02*
G03*
X182880Y533400I-5080J0D01*
G01*
Y508000D02*
G03*
X182880Y508000I-5080J0D01*
G01*
Y482600D02*
G03*
X182880Y482600I-5080J0D01*
G01*
Y457200D02*
G03*
X182880Y457200I-5080J0D01*
G01*
Y431800D02*
G03*
X182880Y431800I-5080J0D01*
G01*
X259080Y609600D02*
G03*
X259080Y609600I-5080J0D01*
G01*
Y584200D02*
G03*
X259080Y584200I-5080J0D01*
G01*
Y558800D02*
G03*
X259080Y558800I-5080J0D01*
G01*
Y533400D02*
G03*
X259080Y533400I-5080J0D01*
G01*
Y508000D02*
G03*
X259080Y508000I-5080J0D01*
G01*
Y482600D02*
G03*
X259080Y482600I-5080J0D01*
G01*
Y457200D02*
G03*
X259080Y457200I-5080J0D01*
G01*
Y431800D02*
G03*
X259080Y431800I-5080J0D01*
G01*
X817880Y472440D02*
G03*
X817880Y472440I-5080J0D01*
G01*
Y497840D02*
G03*
X817880Y497840I-5080J0D01*
G01*
Y523240D02*
G03*
X817880Y523240I-5080J0D01*
G01*
Y548640D02*
G03*
X817880Y548640I-5080J0D01*
G01*
Y574040D02*
G03*
X817880Y574040I-5080J0D01*
G01*
Y599440D02*
G03*
X817880Y599440I-5080J0D01*
G01*
Y624840D02*
G03*
X817880Y624840I-5080J0D01*
G01*
Y650240D02*
G03*
X817880Y650240I-5080J0D01*
G01*
Y675640D02*
G03*
X817880Y675640I-5080J0D01*
G01*
Y701040D02*
G03*
X817880Y701040I-5080J0D01*
G01*
X650240Y502920D02*
G03*
X650240Y502920I-5080J0D01*
G01*
D97*
X648208D02*
G03*
X648208Y502920I-3048J0D01*
G01*
M02*
