M48
;Layer_Color=9474304
;FILE_FORMAT=4:4
METRIC,LZ
;TYPE=PLATED
T01F00S00C0.3302
T04F00S00C0.6350
T06F00S00C1.0160
T07F00S00C1.0201
T08F00S00C1.1000
%
T01
X0034798Y00127
X0039497Y0011049
X0044577Y0010033
X004953Y0009652
X005461Y00099568
X0055372Y0019431
X0056515
X0055372Y0020574
X00695875Y00170327
X00736437Y00218619
X0078232Y00254
Y002794
X00608584Y00441452
X00625094Y0046736
X00609092Y00493522
X00556768Y0047625
X0051825Y00466611
X00506222Y00454914
X0050038Y0051562
X00474472Y00498856
X0046228Y004826
X0043611Y0050877
X0045212Y002413
X0038608
X0040386Y0019812
X0052324
X0030226Y0014859
X00293878Y005588
X0038862Y005461
X00397187Y00538533
X0043307Y0053975
X0043942Y005969
X004572Y0059944
X0049022Y0054864
X0050419Y0078486
X0045847Y00791464
X00369316Y00792226
X0037592Y0084074
X0029464
X00286512Y00792226
X0062611Y0081153
X0068453Y0079248
X0067183Y0086741
X0069596Y0089027
X0072898Y0086741
X00634746Y0090551
X00596773Y0090424
X00585344Y00904367
X0057658Y00635
X0056896Y0060452
X0055118
Y0058674
T04
X0054864Y0044704
X0053721Y0043561
X00537958Y00358337
X00490728Y0050419
X004445Y0054991
X00407445Y00607285
X0038649Y0058633
X0040894Y0070358
X00532765Y00889635
T06
X005969Y002794
X006223
X006477
X006731
Y003302
X006477
X006223
X005969
X004572
Y003048
Y003556
Y00381
X004064
Y003556
Y003302
Y003048
X00370586Y0065532
X00345186
X00319786
X00294386
X0029337Y00702056
X0031877
X0034417
X0036957
X0047498Y0070358
X0050038
X0052578
Y0065532
X0050038
X0047498
X0055118
Y0070358
X0060452
X0062992
X0065532
X0068072
Y0065532
X0065532
X0062992
X0060452
X0071374Y0078232
X0073914
X0076454
X0078994
Y0082804
X0076454
X0073914
X0071374
T07
X0039497Y00752856
X0042037
X0057277
X0059817
T08
X007366Y00254
Y002794
Y003048
Y003302
Y003556
Y00381
Y004064
Y004318
Y0047244
Y0049784
Y0052324
X008128
Y0049784
Y0047244
Y004318
Y004064
Y00381
Y003556
Y003302
Y003048
Y002794
Y00254
X005334
X00508
X004826
Y002286
X00508
X005334
X00254Y00254
Y002794
Y003048
Y003302
Y003556
Y00381
Y004318
Y004572
Y004826
Y00508
X001778
Y004826
Y004572
Y004318
Y00381
Y003556
Y003302
Y003048
Y002794
Y00254
Y005334
Y005588
Y005842
Y006096
X00254
Y005842
Y005588
Y005334
X0047117Y00752856
X0049657
X0052197
X007366Y0070104
Y0067564
Y0065024
Y0062484
Y0059944
Y0057404
Y0054864
X008128
Y0057404
Y0059944
Y0062484
Y0065024
Y0067564
Y0070104
M30
