G04*
G04 #@! TF.GenerationSoftware,Altium Limited,Altium Designer,24.2.2 (26)*
G04*
G04 Layer_Color=128*
%FSLAX44Y44*%
%MOMM*%
G71*
G04*
G04 #@! TF.SameCoordinates,F7C56DC2-231D-4419-A4E4-230404E4AC21*
G04*
G04*
G04 #@! TF.FilePolarity,Positive*
G04*
G01*
G75*
G04:AMPARAMS|DCode=34|XSize=1.1176mm|YSize=1.8034mm|CornerRadius=0mm|HoleSize=0mm|Usage=FLASHONLY|Rotation=135.000|XOffset=0mm|YOffset=0mm|HoleType=Round|Shape=Rectangle|*
%AMROTATEDRECTD34*
4,1,4,1.0327,0.2425,-0.2425,-1.0327,-1.0327,-0.2425,0.2425,1.0327,1.0327,0.2425,0.0*
%
%ADD34ROTATEDRECTD34*%

%ADD86R,0.6350X1.0000*%
%ADD87R,0.3810X1.3500*%
%ADD88R,1.5000X1.5500*%
%ADD92C,0.0001*%
G36*
X472300Y938400D02*
X460300D01*
X460040Y938410D01*
X459780Y938430D01*
X459520Y938460D01*
X459260Y938510D01*
X459010Y938570D01*
X458750Y938640D01*
X458510Y938730D01*
X458270Y938830D01*
X458030Y938940D01*
X457800Y939070D01*
X457580Y939210D01*
X457360Y939350D01*
X457150Y939510D01*
X456950Y939680D01*
X456760Y939860D01*
X456580Y940050D01*
X456410Y940250D01*
X456250Y940460D01*
X456110Y940680D01*
X455970Y940900D01*
X455840Y941130D01*
X455730Y941370D01*
X455630Y941610D01*
X455540Y941850D01*
X455470Y942110D01*
X455410Y942360D01*
X455360Y942620D01*
X455330Y942880D01*
X455310Y943140D01*
X455300Y943400D01*
Y948900D01*
X455310Y949160D01*
X455330Y949420D01*
X455360Y949680D01*
X455410Y949940D01*
X455470Y950190D01*
X455540Y950450D01*
X455630Y950690D01*
X455730Y950930D01*
X455840Y951170D01*
X455970Y951400D01*
X456110Y951620D01*
X456250Y951840D01*
X456410Y952050D01*
X456580Y952250D01*
X456760Y952440D01*
X456950Y952620D01*
X457150Y952790D01*
X457360Y952950D01*
X457580Y953090D01*
X457800Y953230D01*
X458030Y953360D01*
X458270Y953470D01*
X458510Y953570D01*
X458750Y953660D01*
X459010Y953730D01*
X459260Y953790D01*
X459520Y953840D01*
X459780Y953870D01*
X460040Y953890D01*
X460300Y953900D01*
X472300D01*
Y938400D01*
D02*
G37*
G36*
X530560Y953890D02*
X530820Y953870D01*
X531080Y953840D01*
X531340Y953790D01*
X531590Y953730D01*
X531850Y953660D01*
X532090Y953570D01*
X532330Y953470D01*
X532570Y953360D01*
X532800Y953230D01*
X533020Y953090D01*
X533240Y952950D01*
X533450Y952790D01*
X533650Y952620D01*
X533840Y952440D01*
X534020Y952250D01*
X534190Y952050D01*
X534350Y951840D01*
X534490Y951620D01*
X534630Y951400D01*
X534760Y951170D01*
X534870Y950930D01*
X534970Y950690D01*
X535060Y950450D01*
X535130Y950190D01*
X535190Y949940D01*
X535240Y949680D01*
X535270Y949420D01*
X535290Y949160D01*
X535300Y948900D01*
Y943400D01*
X535290Y943140D01*
X535270Y942880D01*
X535240Y942620D01*
X535190Y942360D01*
X535130Y942110D01*
X535060Y941850D01*
X534970Y941610D01*
X534870Y941370D01*
X534760Y941130D01*
X534630Y940900D01*
X534490Y940680D01*
X534350Y940460D01*
X534190Y940250D01*
X534020Y940050D01*
X533840Y939860D01*
X533650Y939680D01*
X533450Y939510D01*
X533240Y939350D01*
X533020Y939210D01*
X532800Y939070D01*
X532570Y938940D01*
X532330Y938830D01*
X532090Y938730D01*
X531850Y938640D01*
X531590Y938570D01*
X531340Y938510D01*
X531080Y938460D01*
X530820Y938430D01*
X530560Y938410D01*
X530300Y938400D01*
X518300D01*
Y953900D01*
X530300D01*
X530560Y953890D01*
D02*
G37*
%LPC*%
G36*
X460430Y951900D02*
X460170D01*
X460040Y951890D01*
X459910Y951870D01*
X459780Y951850D01*
X459650Y951810D01*
X459530Y951780D01*
X459400Y951730D01*
X459280Y951680D01*
X459170Y951630D01*
X459050Y951570D01*
X458940Y951500D01*
X458830Y951420D01*
X458730Y951340D01*
X458630Y951260D01*
X458530Y951170D01*
X458440Y951070D01*
X458360Y950970D01*
X458280Y950870D01*
X458200Y950760D01*
X458130Y950650D01*
X458070Y950530D01*
X458020Y950420D01*
X457970Y950300D01*
X457920Y950170D01*
X457890Y950050D01*
X457850Y949920D01*
X457830Y949790D01*
X457810Y949660D01*
X457800Y949530D01*
Y949400D01*
Y942900D01*
Y942770D01*
X457810Y942640D01*
X457830Y942510D01*
X457850Y942380D01*
X457890Y942250D01*
X457920Y942130D01*
X457970Y942000D01*
X458020Y941880D01*
X458070Y941770D01*
X458130Y941650D01*
X458200Y941540D01*
X458280Y941430D01*
X458360Y941330D01*
X458440Y941230D01*
X458530Y941130D01*
X458630Y941040D01*
X458730Y940960D01*
X458830Y940880D01*
X458940Y940800D01*
X459050Y940730D01*
X459170Y940670D01*
X459280Y940620D01*
X459400Y940570D01*
X459530Y940520D01*
X459650Y940490D01*
X459780Y940450D01*
X459910Y940430D01*
X460040Y940410D01*
X460170Y940400D01*
X460430D01*
X460560Y940410D01*
X460690Y940430D01*
X460820Y940450D01*
X460950Y940490D01*
X461070Y940520D01*
X461200Y940570D01*
X461320Y940620D01*
X461430Y940670D01*
X461550Y940730D01*
X461660Y940800D01*
X461770Y940880D01*
X461870Y940960D01*
X461970Y941040D01*
X462070Y941130D01*
X462160Y941230D01*
X462240Y941330D01*
X462320Y941430D01*
X462400Y941540D01*
X462470Y941650D01*
X462530Y941770D01*
X462580Y941880D01*
X462630Y942000D01*
X462680Y942130D01*
X462710Y942250D01*
X462750Y942380D01*
X462770Y942510D01*
X462790Y942640D01*
X462800Y942770D01*
Y942900D01*
Y949400D01*
Y949530D01*
X462790Y949660D01*
X462770Y949790D01*
X462750Y949920D01*
X462710Y950050D01*
X462680Y950170D01*
X462630Y950300D01*
X462580Y950420D01*
X462530Y950530D01*
X462470Y950650D01*
X462400Y950760D01*
X462320Y950870D01*
X462240Y950970D01*
X462160Y951070D01*
X462070Y951170D01*
X461970Y951260D01*
X461870Y951340D01*
X461770Y951420D01*
X461660Y951500D01*
X461550Y951570D01*
X461430Y951630D01*
X461320Y951680D01*
X461200Y951730D01*
X461070Y951780D01*
X460950Y951810D01*
X460820Y951850D01*
X460690Y951870D01*
X460560Y951890D01*
X460430Y951900D01*
D02*
G37*
G36*
X530430D02*
X530170D01*
X530040Y951890D01*
X529910Y951870D01*
X529780Y951850D01*
X529650Y951810D01*
X529530Y951780D01*
X529400Y951730D01*
X529280Y951680D01*
X529170Y951630D01*
X529050Y951570D01*
X528940Y951500D01*
X528830Y951420D01*
X528730Y951340D01*
X528630Y951260D01*
X528530Y951170D01*
X528440Y951070D01*
X528360Y950970D01*
X528280Y950870D01*
X528200Y950760D01*
X528130Y950650D01*
X528070Y950530D01*
X528020Y950420D01*
X527970Y950300D01*
X527920Y950170D01*
X527890Y950050D01*
X527850Y949920D01*
X527830Y949790D01*
X527810Y949660D01*
X527800Y949530D01*
Y949400D01*
Y942900D01*
Y942770D01*
X527810Y942640D01*
X527830Y942510D01*
X527850Y942380D01*
X527890Y942250D01*
X527920Y942130D01*
X527970Y942000D01*
X528020Y941880D01*
X528070Y941770D01*
X528130Y941650D01*
X528200Y941540D01*
X528280Y941430D01*
X528360Y941330D01*
X528440Y941230D01*
X528530Y941130D01*
X528630Y941040D01*
X528730Y940960D01*
X528830Y940880D01*
X528940Y940800D01*
X529050Y940730D01*
X529170Y940670D01*
X529280Y940620D01*
X529400Y940570D01*
X529530Y940520D01*
X529650Y940490D01*
X529780Y940450D01*
X529910Y940430D01*
X530040Y940410D01*
X530170Y940400D01*
X530430D01*
X530560Y940410D01*
X530690Y940430D01*
X530820Y940450D01*
X530950Y940490D01*
X531070Y940520D01*
X531200Y940570D01*
X531320Y940620D01*
X531430Y940670D01*
X531550Y940730D01*
X531660Y940800D01*
X531770Y940880D01*
X531870Y940960D01*
X531970Y941040D01*
X532070Y941130D01*
X532160Y941230D01*
X532240Y941330D01*
X532320Y941430D01*
X532400Y941540D01*
X532470Y941650D01*
X532530Y941770D01*
X532580Y941880D01*
X532630Y942000D01*
X532680Y942130D01*
X532710Y942250D01*
X532750Y942380D01*
X532770Y942510D01*
X532790Y942640D01*
X532800Y942770D01*
Y942900D01*
Y949400D01*
Y949530D01*
X532790Y949660D01*
X532770Y949790D01*
X532750Y949920D01*
X532710Y950050D01*
X532680Y950170D01*
X532630Y950300D01*
X532580Y950420D01*
X532530Y950530D01*
X532470Y950650D01*
X532400Y950760D01*
X532320Y950870D01*
X532240Y950970D01*
X532160Y951070D01*
X532070Y951170D01*
X531970Y951260D01*
X531870Y951340D01*
X531770Y951420D01*
X531660Y951500D01*
X531550Y951570D01*
X531430Y951630D01*
X531320Y951680D01*
X531200Y951730D01*
X531070Y951780D01*
X530950Y951810D01*
X530820Y951850D01*
X530690Y951870D01*
X530560Y951890D01*
X530430Y951900D01*
D02*
G37*
%LPD*%
D34*
X564713Y438587D02*
D03*
X585907Y417393D02*
D03*
X546933Y420807D02*
D03*
X568127Y399613D02*
D03*
D86*
X596748Y889316D02*
D03*
X587248D02*
D03*
X577748D02*
D03*
Y865691D02*
D03*
X587248Y865691D02*
D03*
X596748Y865691D02*
D03*
D87*
X482300Y919150D02*
D03*
X488800D02*
D03*
X495300D02*
D03*
X501800D02*
D03*
X508300D02*
D03*
D88*
X485300Y946150D02*
D03*
X505300D02*
D03*
D92*
X460300Y938450D02*
Y940150D01*
X530300Y952150D02*
Y953850D01*
M02*
