G04*
G04 #@! TF.GenerationSoftware,Altium Limited,Altium Designer,24.2.2 (26)*
G04*
G04 Layer_Color=8388736*
%FSLAX44Y44*%
%MOMM*%
G71*
G04*
G04 #@! TF.SameCoordinates,F7C56DC2-231D-4419-A4E4-230404E4AC21*
G04*
G04*
G04 #@! TF.FilePolarity,Negative*
G04*
G01*
G75*
G04:AMPARAMS|DCode=25|XSize=1.3716mm|YSize=1.8542mm|CornerRadius=0mm|HoleSize=0mm|Usage=FLASHONLY|Rotation=225.000|XOffset=0mm|YOffset=0mm|HoleType=Round|Shape=Rectangle|*
%AMROTATEDRECTD25*
4,1,4,-0.1706,1.1405,1.1405,-0.1706,0.1706,-1.1405,-1.1405,0.1706,-0.1706,1.1405,0.0*
%
%ADD25ROTATEDRECTD25*%

%ADD43C,0.0000*%
G04:AMPARAMS|DCode=44|XSize=1.3208mm|YSize=2.0066mm|CornerRadius=0mm|HoleSize=0mm|Usage=FLASHONLY|Rotation=60.000|XOffset=0mm|YOffset=0mm|HoleType=Round|Shape=Rectangle|*
%AMROTATEDRECTD44*
4,1,4,0.5387,-1.0736,-1.1991,-0.0703,-0.5387,1.0736,1.1991,0.0703,0.5387,-1.0736,0.0*
%
%ADD44ROTATEDRECTD44*%

%ADD45R,1.3208X2.0066*%
%ADD46R,2.0066X1.3208*%
%ADD47R,3.3020X1.9032*%
%ADD48R,1.0414X1.9032*%
G04:AMPARAMS|DCode=49|XSize=1.3208mm|YSize=2.0066mm|CornerRadius=0mm|HoleSize=0mm|Usage=FLASHONLY|Rotation=45.000|XOffset=0mm|YOffset=0mm|HoleType=Round|Shape=Rectangle|*
%AMROTATEDRECTD49*
4,1,4,0.2425,-1.1764,-1.1764,0.2425,-0.2425,1.1764,1.1764,-0.2425,0.2425,-1.1764,0.0*
%
%ADD49ROTATEDRECTD49*%

%ADD50O,2.4032X0.8128*%
%ADD51O,1.8542X0.8128*%
%ADD52R,1.8542X1.6032*%
%ADD53R,2.0032X1.6032*%
G04:AMPARAMS|DCode=54|XSize=0.4318mm|YSize=1.7008mm|CornerRadius=0mm|HoleSize=0mm|Usage=FLASHONLY|Rotation=45.000|XOffset=0mm|YOffset=0mm|HoleType=Round|Shape=Rectangle|*
%AMROTATEDRECTD54*
4,1,4,0.4487,-0.7540,-0.7540,0.4487,-0.4487,0.7540,0.7540,-0.4487,0.4487,-0.7540,0.0*
%
%ADD54ROTATEDRECTD54*%

G04:AMPARAMS|DCode=55|XSize=0.4318mm|YSize=1.7008mm|CornerRadius=0mm|HoleSize=0mm|Usage=FLASHONLY|Rotation=315.000|XOffset=0mm|YOffset=0mm|HoleType=Round|Shape=Rectangle|*
%AMROTATEDRECTD55*
4,1,4,-0.7540,-0.4487,0.4487,0.7540,0.7540,0.4487,-0.4487,-0.7540,-0.7540,-0.4487,0.0*
%
%ADD55ROTATEDRECTD55*%

G04:AMPARAMS|DCode=56|XSize=1.6032mm|YSize=1.8542mm|CornerRadius=0mm|HoleSize=0mm|Usage=FLASHONLY|Rotation=135.000|XOffset=0mm|YOffset=0mm|HoleType=Round|Shape=Rectangle|*
%AMROTATEDRECTD56*
4,1,4,1.2224,0.0887,-0.0887,-1.2224,-1.2224,-0.0887,0.0887,1.2224,1.2224,0.0887,0.0*
%
%ADD56ROTATEDRECTD56*%

G04:AMPARAMS|DCode=57|XSize=1.3208mm|YSize=2.0066mm|CornerRadius=0mm|HoleSize=0mm|Usage=FLASHONLY|Rotation=135.000|XOffset=0mm|YOffset=0mm|HoleType=Round|Shape=Rectangle|*
%AMROTATEDRECTD57*
4,1,4,1.1764,0.2425,-0.2425,-1.1764,-1.1764,-0.2425,0.2425,1.1764,1.1764,0.2425,0.0*
%
%ADD57ROTATEDRECTD57*%

G04:AMPARAMS|DCode=58|XSize=1.3208mm|YSize=2.0066mm|CornerRadius=0mm|HoleSize=0mm|Usage=FLASHONLY|Rotation=120.000|XOffset=0mm|YOffset=0mm|HoleType=Round|Shape=Rectangle|*
%AMROTATEDRECTD58*
4,1,4,1.1991,-0.0703,-0.5387,-1.0736,-1.1991,0.0703,0.5387,1.0736,1.1991,-0.0703,0.0*
%
%ADD58ROTATEDRECTD58*%

G04:AMPARAMS|DCode=59|XSize=1.3208mm|YSize=2.0066mm|CornerRadius=0mm|HoleSize=0mm|Usage=FLASHONLY|Rotation=112.500|XOffset=0mm|YOffset=0mm|HoleType=Round|Shape=Rectangle|*
%AMROTATEDRECTD59*
4,1,4,1.1797,-0.2262,-0.6742,-0.9941,-1.1797,0.2262,0.6742,0.9941,1.1797,-0.2262,0.0*
%
%ADD59ROTATEDRECTD59*%

G04:AMPARAMS|DCode=60|XSize=1.3208mm|YSize=2.0066mm|CornerRadius=0mm|HoleSize=0mm|Usage=FLASHONLY|Rotation=105.000|XOffset=0mm|YOffset=0mm|HoleType=Round|Shape=Rectangle|*
%AMROTATEDRECTD60*
4,1,4,1.1400,-0.3782,-0.7982,-0.8976,-1.1400,0.3782,0.7982,0.8976,1.1400,-0.3782,0.0*
%
%ADD60ROTATEDRECTD60*%

G04:AMPARAMS|DCode=61|XSize=1.3208mm|YSize=2.0066mm|CornerRadius=0mm|HoleSize=0mm|Usage=FLASHONLY|Rotation=97.500|XOffset=0mm|YOffset=0mm|HoleType=Round|Shape=Rectangle|*
%AMROTATEDRECTD61*
4,1,4,1.0809,-0.5238,-0.9085,-0.7857,-1.0809,0.5238,0.9085,0.7857,1.0809,-0.5238,0.0*
%
%ADD61ROTATEDRECTD61*%

G04:AMPARAMS|DCode=62|XSize=1.3208mm|YSize=2.0066mm|CornerRadius=0mm|HoleSize=0mm|Usage=FLASHONLY|Rotation=82.500|XOffset=0mm|YOffset=0mm|HoleType=Round|Shape=Rectangle|*
%AMROTATEDRECTD62*
4,1,4,0.9085,-0.7857,-1.0809,-0.5238,-0.9085,0.7857,1.0809,0.5238,0.9085,-0.7857,0.0*
%
%ADD62ROTATEDRECTD62*%

G04:AMPARAMS|DCode=63|XSize=1.3208mm|YSize=2.0066mm|CornerRadius=0mm|HoleSize=0mm|Usage=FLASHONLY|Rotation=75.000|XOffset=0mm|YOffset=0mm|HoleType=Round|Shape=Rectangle|*
%AMROTATEDRECTD63*
4,1,4,0.7982,-0.8976,-1.1400,-0.3782,-0.7982,0.8976,1.1400,0.3782,0.7982,-0.8976,0.0*
%
%ADD63ROTATEDRECTD63*%

G04:AMPARAMS|DCode=64|XSize=1.3208mm|YSize=2.0066mm|CornerRadius=0mm|HoleSize=0mm|Usage=FLASHONLY|Rotation=67.500|XOffset=0mm|YOffset=0mm|HoleType=Round|Shape=Rectangle|*
%AMROTATEDRECTD64*
4,1,4,0.6742,-0.9941,-1.1797,-0.2262,-0.6742,0.9941,1.1797,0.2262,0.6742,-0.9941,0.0*
%
%ADD64ROTATEDRECTD64*%

%ADD65R,1.7032X1.4032*%
%ADD66C,1.9812*%
%ADD67O,2.0032X3.5032*%
%ADD68O,3.5052X2.2032*%
%ADD69C,1.8532*%
%ADD70C,1.8232*%
%ADD71C,1.7272*%
%ADD72O,1.5032X0.8532*%
%ADD73O,0.9782X1.7532*%
%ADD74C,0.8382*%
%ADD75C,1.2192*%
D25*
X447424Y524894D02*
D03*
X469516Y546986D02*
D03*
D43*
X428981Y752856D02*
G03*
X428981Y752856I-8611J0D01*
G01*
X403581D02*
G03*
X403581Y752856I-8611J0D01*
G01*
X606781D02*
G03*
X606781Y752856I-8611J0D01*
G01*
X581381D02*
G03*
X581381Y752856I-8611J0D01*
G01*
D44*
X261747Y78074D02*
D03*
X276733Y104031D02*
D03*
X309753Y161223D02*
D03*
X294767Y135267D02*
D03*
D45*
X354330Y792226D02*
D03*
X384302D02*
D03*
X301244D02*
D03*
X271272D02*
D03*
X688340Y867410D02*
D03*
X658368D02*
D03*
X655574Y810260D02*
D03*
X685546D02*
D03*
X658114Y843280D02*
D03*
X688086D02*
D03*
X548640Y791464D02*
D03*
X518668D02*
D03*
X744220Y867410D02*
D03*
X714248D02*
D03*
X477266Y198120D02*
D03*
X447294D02*
D03*
X443484Y791464D02*
D03*
X473456D02*
D03*
X388874Y198120D02*
D03*
X418846D02*
D03*
X508254D02*
D03*
X538226D02*
D03*
D46*
X441960Y721106D02*
D03*
Y691134D02*
D03*
X645160Y452374D02*
D03*
Y482346D02*
D03*
X495300Y15494D02*
D03*
X495300Y45466D02*
D03*
X495300Y111506D02*
D03*
Y81534D02*
D03*
D47*
X317500Y885940D02*
D03*
X398780D02*
D03*
D48*
X294386Y820940D02*
D03*
X317500D02*
D03*
X340614Y818440D02*
D03*
X375666Y820940D02*
D03*
X398780D02*
D03*
X421894Y818440D02*
D03*
D49*
X441376Y573409D02*
D03*
X420183Y552215D02*
D03*
X400883Y573603D02*
D03*
X422077Y594797D02*
D03*
X599003Y431363D02*
D03*
X620197Y452557D02*
D03*
D50*
X557784Y822960D02*
D03*
Y835660D02*
D03*
Y848360D02*
D03*
Y861060D02*
D03*
Y873760D02*
D03*
Y886460D02*
D03*
Y899160D02*
D03*
X617220Y911860D02*
D03*
Y899160D02*
D03*
Y886460D02*
D03*
Y873760D02*
D03*
Y861060D02*
D03*
Y848360D02*
D03*
Y835660D02*
D03*
Y822960D02*
D03*
D51*
X557784Y911860D02*
D03*
D52*
X651518Y909360D02*
D03*
Y889960D02*
D03*
X677918Y909360D02*
D03*
D53*
Y889960D02*
D03*
D54*
X507151Y432322D02*
D03*
X512719Y437890D02*
D03*
X518466Y443637D02*
D03*
X524034Y449205D02*
D03*
X529781Y454953D02*
D03*
X535349Y460520D02*
D03*
X541096Y466268D02*
D03*
X546664Y471835D02*
D03*
X486136Y532364D02*
D03*
X480568Y526796D02*
D03*
X474821Y521049D02*
D03*
X469253Y515481D02*
D03*
X463506Y509734D02*
D03*
X457938Y504166D02*
D03*
X452190Y498418D02*
D03*
X446623Y492851D02*
D03*
D55*
X547011Y492504D02*
D03*
X541443Y498072D02*
D03*
X535695Y503819D02*
D03*
X530128Y509387D02*
D03*
X524380Y515134D02*
D03*
X518813Y520702D02*
D03*
X513065Y526450D02*
D03*
X507497Y532017D02*
D03*
X446969Y471489D02*
D03*
X452537Y465921D02*
D03*
X458284Y460174D02*
D03*
X463852Y454606D02*
D03*
X469599Y448859D02*
D03*
X475167Y443291D02*
D03*
X480914Y437544D02*
D03*
X486482Y431976D02*
D03*
D56*
X598206Y468211D02*
D03*
X584488Y481929D02*
D03*
X579539Y449544D02*
D03*
X565821Y463262D02*
D03*
D57*
X599003Y503357D02*
D03*
X620197Y482163D02*
D03*
D58*
X728853Y78074D02*
D03*
X713867Y104031D02*
D03*
X695833Y135267D02*
D03*
X680847Y161223D02*
D03*
D59*
X662584Y78741D02*
D03*
X674054Y51050D02*
D03*
X648781Y112063D02*
D03*
X637312Y139754D02*
D03*
D60*
X608439Y60361D02*
D03*
X616196Y31410D02*
D03*
X591346Y124151D02*
D03*
X599104Y95200D02*
D03*
D61*
X556270Y19490D02*
D03*
X552357Y49206D02*
D03*
X543889Y114681D02*
D03*
X547802Y84965D02*
D03*
D62*
X434330Y19490D02*
D03*
X438243Y49206D02*
D03*
X446862Y114681D02*
D03*
X442950Y84965D02*
D03*
D63*
X382161Y60361D02*
D03*
X374404Y31410D02*
D03*
X391497Y95200D02*
D03*
X399254Y124151D02*
D03*
D64*
X316546Y51050D02*
D03*
X328016Y78741D02*
D03*
X353288Y139754D02*
D03*
X341819Y112063D02*
D03*
D65*
X452120Y226060D02*
D03*
X386120Y256060D02*
D03*
Y226060D02*
D03*
X452120Y256060D02*
D03*
D66*
X457200Y330200D02*
D03*
Y304800D02*
D03*
Y381000D02*
D03*
Y355600D02*
D03*
X406400D02*
D03*
Y381000D02*
D03*
Y304800D02*
D03*
Y330200D02*
D03*
X525780Y655320D02*
D03*
X551180D02*
D03*
X474980D02*
D03*
X500380D02*
D03*
X525780Y703580D02*
D03*
X551180D02*
D03*
X474980D02*
D03*
X500380D02*
D03*
X622300Y279400D02*
D03*
X596900D02*
D03*
X673100D02*
D03*
X647700D02*
D03*
X622300Y330200D02*
D03*
X596900D02*
D03*
X673100D02*
D03*
X647700D02*
D03*
X344170Y702056D02*
D03*
X369570D02*
D03*
X293370D02*
D03*
X318770D02*
D03*
X319786Y655320D02*
D03*
X294386D02*
D03*
X370586D02*
D03*
X345186D02*
D03*
X655320D02*
D03*
X680720D02*
D03*
X604520D02*
D03*
X629920D02*
D03*
X655320Y703580D02*
D03*
X680720D02*
D03*
X604520D02*
D03*
X629920D02*
D03*
X739140Y828040D02*
D03*
X713740D02*
D03*
X789940D02*
D03*
X764540D02*
D03*
X739140Y782320D02*
D03*
X713740D02*
D03*
X789940D02*
D03*
X764540D02*
D03*
X482600Y228600D02*
D03*
Y254000D02*
D03*
X508000Y228600D02*
D03*
Y254000D02*
D03*
X533400Y228600D02*
D03*
Y254000D02*
D03*
D67*
X450070Y847650D02*
D03*
D68*
X496570Y822650D02*
D03*
Y882650D02*
D03*
D69*
X521970Y752856D02*
D03*
X496570D02*
D03*
X471170D02*
D03*
D70*
X420370D02*
D03*
X394970D02*
D03*
X598170D02*
D03*
X572770D02*
D03*
D71*
X736600Y701040D02*
D03*
Y675640D02*
D03*
Y650240D02*
D03*
Y624840D02*
D03*
Y599440D02*
D03*
Y574040D02*
D03*
Y548640D02*
D03*
Y523240D02*
D03*
Y497840D02*
D03*
Y472440D02*
D03*
X254000Y254000D02*
D03*
Y279400D02*
D03*
Y304800D02*
D03*
Y330200D02*
D03*
Y355600D02*
D03*
Y381000D02*
D03*
X177800D02*
D03*
Y355600D02*
D03*
Y330200D02*
D03*
Y304800D02*
D03*
Y279400D02*
D03*
Y254000D02*
D03*
X812800D02*
D03*
Y279400D02*
D03*
Y304800D02*
D03*
Y330200D02*
D03*
Y355600D02*
D03*
Y381000D02*
D03*
Y406400D02*
D03*
Y431800D02*
D03*
X736600Y254000D02*
D03*
Y279400D02*
D03*
Y304800D02*
D03*
Y330200D02*
D03*
Y355600D02*
D03*
Y381000D02*
D03*
Y406400D02*
D03*
Y431800D02*
D03*
X177800Y609600D02*
D03*
Y584200D02*
D03*
Y558800D02*
D03*
Y533400D02*
D03*
Y508000D02*
D03*
Y482600D02*
D03*
Y457200D02*
D03*
Y431800D02*
D03*
X254000Y609600D02*
D03*
Y584200D02*
D03*
Y558800D02*
D03*
Y533400D02*
D03*
Y508000D02*
D03*
Y482600D02*
D03*
Y457200D02*
D03*
Y431800D02*
D03*
X812800Y472440D02*
D03*
Y497840D02*
D03*
Y523240D02*
D03*
Y548640D02*
D03*
Y574040D02*
D03*
Y599440D02*
D03*
Y624840D02*
D03*
Y650240D02*
D03*
Y675640D02*
D03*
Y701040D02*
D03*
D72*
X470300Y919150D02*
D03*
X520300D02*
D03*
D73*
X460300Y946150D02*
D03*
X530300D02*
D03*
D74*
X782320Y254000D02*
D03*
Y279400D02*
D03*
X546100Y99568D02*
D03*
X433070Y539750D02*
D03*
X728980Y867410D02*
D03*
X369316Y792226D02*
D03*
X504190Y784860D02*
D03*
X523240Y198120D02*
D03*
X403860D02*
D03*
X452120Y241300D02*
D03*
X386080D02*
D03*
X286512Y792226D02*
D03*
X458470Y791464D02*
D03*
X375920Y840740D02*
D03*
X294640D02*
D03*
X576580Y635000D02*
D03*
X551180Y604520D02*
D03*
X568960D02*
D03*
X490220Y548640D02*
D03*
X500380Y515620D02*
D03*
X457200Y599440D02*
D03*
X439420Y596900D02*
D03*
X388620Y546100D02*
D03*
X397187Y538533D02*
D03*
X585344Y904367D02*
D03*
X596773Y904240D02*
D03*
X626110Y811530D02*
D03*
X684530Y792480D02*
D03*
X671830Y867410D02*
D03*
X695875Y170327D02*
D03*
X695960Y890270D02*
D03*
X634746Y905510D02*
D03*
X625094Y467360D02*
D03*
X609092Y493522D02*
D03*
X608584Y441452D02*
D03*
X556768Y476250D02*
D03*
X495300Y96520D02*
D03*
X445770Y100330D02*
D03*
X394970Y110490D02*
D03*
X347980Y127000D02*
D03*
X302260Y148590D02*
D03*
X518250Y466611D02*
D03*
X506222Y454914D02*
D03*
X474472Y498856D02*
D03*
X293878Y558800D02*
D03*
X565150Y194310D02*
D03*
X553720Y205740D02*
D03*
Y194310D02*
D03*
X736437Y218619D02*
D03*
X462280Y482600D02*
D03*
X436110Y508770D02*
D03*
X551180Y586740D02*
D03*
D75*
X407445Y607285D02*
D03*
X386490Y586330D02*
D03*
X408940Y703580D02*
D03*
X444500Y549910D02*
D03*
X537958Y358337D02*
D03*
X532765Y889635D02*
D03*
X548640Y447040D02*
D03*
X537210Y435610D02*
D03*
X490728Y504190D02*
D03*
M02*
